<svg width="89" height="96" viewBox="0 0 89 96" fill="none" xmlns="http://www.w3.org/2000/svg">
<g clip-path="url(#clip0_291_18469)">
<path d="M82.6844 77.5894C82.0135 82.5829 78.6609 86.904 73.9666 88.8243C71.6668 89.7835 69.1766 90.0722 66.6854 89.7835C64.2909 89.4957 61.8954 88.7274 59.4052 87.2887C55.956 85.3665 52.5068 82.3911 48.4833 77.9741C54.8065 70.197 58.6376 63.0914 60.0751 56.756C60.746 53.7787 60.8417 51.0902 60.5546 48.5934C60.1718 46.1935 59.3095 43.9845 57.9677 42.0643C54.998 37.7441 50.0165 35.2474 44.4599 35.2474C38.9033 35.2474 33.9219 37.84 30.9521 42.0643C29.6104 43.9845 28.749 46.1935 28.3652 48.5934C27.9824 51.0902 28.0781 53.8747 28.8447 56.756C30.2813 63.0914 34.209 70.2929 40.4365 78.069C36.5088 82.487 32.9639 85.4633 29.5147 87.3836C27.0244 88.8243 24.6289 89.5926 22.2344 89.8794C19.6475 90.1681 17.1563 89.7835 14.9532 88.9202C10.2589 86.9999 6.90633 82.6779 6.23544 77.6853C5.94833 75.2855 6.13974 72.8856 7.09774 70.197C7.38485 69.2359 7.86434 68.2777 8.34286 67.1248C9.01375 65.5891 9.78034 63.9556 10.546 62.3231L10.6426 62.1322C17.252 47.8251 24.3418 33.2312 31.7187 19.0219L32.0059 18.4445C32.7724 17.0057 33.5381 15.47 34.3056 14.0294C35.0713 12.4927 35.9336 11.0521 36.9873 9.80321C38.999 7.4983 41.6816 6.25041 44.6513 6.25041C47.621 6.25041 50.3036 7.4983 52.3154 9.80321C53.3691 11.0521 54.2314 12.4927 54.998 14.0294C55.7645 15.47 56.5302 17.0057 57.2968 18.4445L57.5849 19.0219C64.8651 33.3271 71.9549 47.921 78.5652 62.2282V62.3231C79.3318 63.8597 80.0018 65.5891 80.7684 67.1248C81.2478 68.2777 81.7264 69.2359 82.0135 70.197C82.7801 72.6928 83.0672 75.0946 82.6844 77.5894ZM44.4599 73.0765C39.2871 66.5483 35.9336 60.4028 34.7842 55.2194C34.3056 53.0104 34.209 51.0902 34.497 49.3617C34.6885 47.8251 35.2636 46.4803 36.0293 45.3274C37.8496 42.7376 40.915 41.1022 44.4599 41.1022C48.0048 41.1022 51.1659 42.6398 52.8905 45.3274C53.6562 46.4803 54.2314 47.8251 54.4228 49.3617C54.7099 51.0902 54.6142 53.1063 54.1357 55.2194C52.9862 60.3079 49.6327 66.4524 44.4599 73.0765ZM87.6658 68.0839C87.1873 66.932 86.7078 65.6841 86.2293 64.628C85.4627 62.9005 84.6961 61.2671 84.0252 59.7305L83.9295 59.6355C77.3201 45.2324 70.2303 30.6385 62.7577 16.2383L62.4706 15.6609C61.704 14.2202 60.9374 12.6836 60.1718 11.148C59.2128 9.41858 58.2548 7.59614 56.7226 5.86673C53.6562 2.02618 49.2499 -0.0859375 44.5556 -0.0859375C39.7656 -0.0859375 35.4551 2.02618 32.293 5.67586C30.8564 7.40334 29.8027 9.2277 28.8447 10.9571C28.0781 12.4927 27.3115 14.0294 26.5449 15.47L26.2578 16.0446C18.8819 30.4467 11.6964 45.0416 5.08603 59.4437L4.99032 59.6355C4.31943 61.1711 3.55284 62.8027 2.78624 64.5321C2.30772 65.5891 1.82824 66.7411 1.34971 67.989C0.103639 71.5408 -0.27918 74.9018 0.199344 78.3577C1.25401 85.5592 6.04403 91.6088 12.6544 94.2964C15.1446 95.3534 17.7315 95.833 20.4141 95.833C21.1807 95.833 22.1387 95.7371 22.9053 95.6402C26.0664 95.2556 29.3232 94.2015 32.4844 92.3761C36.4131 90.1681 40.1494 86.9999 44.3642 82.3911C48.579 86.9999 52.4111 90.1681 56.2431 92.3761C59.4052 94.2015 62.662 95.2556 65.8231 95.6402C66.5897 95.7371 67.5477 95.833 68.3143 95.833C70.9969 95.833 73.6786 95.3534 76.0741 94.2964C82.7801 91.6088 87.4744 85.4633 88.5281 78.3577C89.2947 74.9968 88.9109 71.6377 87.6658 68.0839Z" fill="#FF385C"/>
</g>
<defs>
<clipPath id="clip0_291_18469">
<rect width="89" height="96" fill="white"/>
</clipPath>
</defs>
</svg>
