<svg width="154" height="52" viewBox="0 0 154 52" fill="none" xmlns="http://www.w3.org/2000/svg">
<path d="M12.9723 7.18161C12.434 7.60789 12.3207 8.31808 12.6324 9.31273C12.9156 10.1936 13.5814 11.2873 14.6297 12.5945C18.8508 17.8228 23.8796 22.1699 29.7157 25.6365C35.5519 29.1031 41.7989 31.6602 48.4567 33.3082C55.1426 34.9847 61.9702 35.8228 68.9395 35.8228C77.8638 35.8228 86.3631 34.5159 94.4373 31.9017C102.511 29.316 109.254 25.679 114.666 20.9907C116.564 19.3145 117.513 17.979 117.513 16.9844C117.513 16.615 117.357 16.2456 117.045 15.8762C116.62 15.4502 116.11 15.3081 115.515 15.4502C114.92 15.592 114.085 15.9473 113.008 16.5156C107.824 19.2434 101.506 21.417 94.0549 23.0367C86.6323 24.6846 78.8838 25.5086 70.8096 25.5086C60.8089 25.5086 51.148 24.1448 41.8272 21.417C32.5064 18.6892 24.2479 14.4272 17.0519 8.63084C16.0037 7.80687 15.1537 7.28096 14.5022 7.05367C13.8789 6.82637 13.3689 6.86911 12.9723 7.18161Z" fill="#FF6201"/>
<path d="M107.399 9.31959C106.804 9.88796 106.649 10.4846 106.932 11.1099C107.13 11.5645 107.513 11.8201 108.08 11.877C108.646 11.9622 109.453 11.9053 110.502 11.7066C112.201 11.3372 113.972 11.0813 115.814 10.9392C117.655 10.8257 119.256 10.854 120.616 11.0244C121.976 11.2234 122.826 11.5645 123.166 12.0474C123.676 12.8147 123.491 14.4341 122.613 16.9063C121.763 19.3782 120.602 21.7791 119.128 24.1092C118.562 25.0467 118.222 25.7855 118.108 26.3255C117.995 26.8653 118.137 27.3199 118.534 27.6893C118.788 27.9449 119.072 28.0728 119.383 28.0728C120.205 28.0728 121.395 27.3482 122.953 25.8993C125.758 23.4556 127.727 20.5574 128.86 17.2046C129.483 15.4712 129.866 13.6529 130.007 11.749C130.149 9.84549 129.937 8.48146 129.37 7.65749C128.832 6.86183 127.642 6.20825 125.8 5.69704C123.987 5.18556 122.16 4.92969 120.318 4.92969C116.72 4.92969 113.306 5.78224 110.077 7.48708C108.887 8.14065 107.995 8.75149 107.399 9.31959Z" fill="#FF6201"/>
</svg>
