<svg width="93" height="112" viewBox="0 0 93 112" fill="none" xmlns="http://www.w3.org/2000/svg">
<g clip-path="url(#clip0_291_18489)">
<mask id="mask0_291_18489" style="mask-type:luminance" maskUnits="userSpaceOnUse" x="6" y="5" width="41" height="50">
<path d="M46.1934 5.87109H6.19336V54.4065H46.1934V5.87109Z" fill="white"/>
</mask>
<g mask="url(#mask0_291_18489)">
<path d="M39.5981 31.6125C39.6672 38.7337 46.12 41.1035 46.1914 41.1336C46.1367 41.3007 45.1604 44.5106 42.7919 47.8262C40.7444 50.6928 38.6192 53.5488 35.2716 53.6079C31.9825 53.6661 30.9247 51.7396 27.1641 51.7396C23.4046 51.7396 22.2294 53.5488 19.1157 53.6661C15.8844 53.7832 13.4238 50.5663 11.3594 47.7102C7.14067 41.8682 3.91676 31.2018 8.24566 24.0018C10.3961 20.4263 14.2394 18.1622 18.4106 18.1041C21.5837 18.0462 24.5786 20.1489 26.5183 20.1489C28.4567 20.1489 32.0963 17.6202 35.9223 17.9915C37.5239 18.0555 42.0202 18.6112 44.9072 22.6591C44.6744 22.7973 39.5423 25.6589 39.5981 31.6125ZM33.4164 14.1265C35.132 12.1374 36.2866 9.36854 35.9716 6.61328C33.4988 6.70847 30.5088 8.19169 28.735 10.1796C27.1455 11.9402 25.7535 14.7578 26.1291 17.4584C28.8853 17.6628 31.7008 16.1168 33.4164 14.1265Z" fill="white"/>
</g>
</g>
<defs>
<clipPath id="clip0_291_18489">
<rect width="40" height="48.5354" fill="white" transform="translate(6.19336 5.87109)"/>
</clipPath>
</defs>
</svg>
