<svg width="89" height="88" viewBox="0 0 89 88" fill="none" xmlns="http://www.w3.org/2000/svg">
<g clip-path="url(#clip0_291_18453)">
<path d="M44.5619 0C20.2374 0 0.517578 19.6889 0.517578 43.9734C0.517578 68.2591 20.2374 87.948 44.5619 87.948C68.8865 87.948 88.6063 68.2591 88.6063 43.9734C88.6063 19.6901 68.8865 0 44.5619 0ZM85.7417 43.9734C85.7417 66.6795 67.3057 85.0875 44.5619 85.0875C21.8181 85.0875 3.38215 66.6795 3.38215 43.9734C3.38215 21.2685 21.8194 2.85923 44.5619 2.85923C67.3045 2.85923 85.7417 21.2685 85.7417 43.9734Z" fill="white"/>
<path d="M65.9106 25.3175C66.5081 25.9591 67.3708 26.9939 67.8552 27.622L76.7738 21.9697C76.3284 21.3881 75.6178 20.504 75.0884 19.8807L69.4396 23.6093L69.0538 23.9399L69.341 23.5212L71.8356 18.5521L70.0711 16.7912L65.0916 19.2807L64.673 19.5672L65.0064 19.1827L68.7423 13.5463C68.0852 12.9879 67.4536 12.4761 66.6492 11.8565L60.987 20.7525C61.705 21.3036 62.6505 22.1117 63.2529 22.6628L68.5829 19.9015L68.9236 19.6505L68.6729 19.9921L65.9106 25.3175ZM45.6724 14.0422L48.1098 8.59315L48.2643 8.10947L48.2205 8.61275L48.4761 15.8961C49.3316 15.9769 50.215 16.0957 51.0851 16.2402L50.6884 5.45351C49.4715 5.31882 48.2595 5.2233 47.0474 5.17188L44.6465 11.1205L44.5613 11.5626L44.4761 11.1218L42.0789 5.17188C40.8656 5.2233 39.6536 5.31882 38.4367 5.45351L38.0412 16.2414C38.9113 16.0945 39.7935 15.9794 40.649 15.8961L40.9046 8.61275L40.8607 8.10947L41.0165 8.59193L43.4527 14.0422H45.6724ZM25.9623 22.6395C27.3714 21.1578 28.1685 19.446 26.7606 17.8125C25.9939 16.9259 24.7064 16.7312 23.6392 17.1684L23.5334 17.21L23.5674 17.117C23.7256 16.6957 23.8266 15.3512 22.6791 14.423C22.1193 13.97 21.4184 13.8022 20.7077 13.8745C19.385 14.0092 18.3676 14.9116 15.5968 17.9962C14.7595 18.9268 13.5426 20.3962 12.8125 21.3464L20.423 28.5551C22.9456 25.7681 23.9739 24.731 25.9623 22.6395ZM16.0324 20.8762C17.5633 19.0039 19.1927 17.3055 19.9313 16.6333C20.165 16.4214 20.4181 16.2096 20.726 16.1263C21.2261 15.9892 21.7421 16.3443 21.8577 16.8561C21.9745 17.3704 21.6508 17.859 21.2906 18.2619C20.4802 19.1754 17.5073 22.2795 17.5073 22.2795L16.0312 20.8762H16.0324ZM19.0126 23.6999C19.0126 23.6999 21.9076 20.6436 22.8531 19.6664C23.2279 19.2782 23.4689 19.0419 23.7281 18.9158C24.0615 18.7529 24.4266 18.7198 24.7539 18.9366C25.0739 19.1521 25.2224 19.5207 25.1421 19.888C25.046 20.3252 24.6882 20.7415 24.3937 21.0599L20.5556 25.1608L19.0126 23.6999Z" fill="white"/>
<path d="M70.6823 43.9756H44.5628V17.8984C58.9977 17.8984 70.6823 29.5643 70.6823 43.9756ZM44.5628 43.9756V70.0528C30.128 70.0528 18.4434 58.3869 18.4434 43.9756H44.5628Z" fill="white"/>
<path d="M44.5628 17.8984V43.9756H18.4434C18.4434 29.5643 30.128 17.8984 44.5628 17.8984ZM70.6823 43.9756C70.6823 58.3881 58.9977 70.0528 44.5628 70.0528V43.9756H70.6823Z" fill="#0066B1"/>
</g>
<defs>
<clipPath id="clip0_291_18453">
<rect width="89" height="88" fill="white"/>
</clipPath>
</defs>
</svg>
