<svg width="125" height="68" viewBox="0 0 125 68" fill="none" xmlns="http://www.w3.org/2000/svg">
<g clip-path="url(#clip0_291_527)">
<path d="M88.5794 43.9061C86.8459 44.3023 82.2834 44.5304 82.2834 44.5304L81.7056 46.3311C81.7056 46.3311 83.9808 46.139 85.642 46.3071C85.642 46.3071 86.1838 46.2471 86.244 46.9193C86.268 47.5436 86.1958 48.2159 86.1958 48.2159C86.1958 48.2159 86.1597 48.624 85.5819 48.7201C84.9559 48.8281 80.6703 48.9842 80.6703 48.9842L79.9721 51.3251C79.9721 51.3251 79.7193 51.8653 80.2971 51.7093C80.8388 51.5652 85.3291 50.7249 85.9189 50.8449C86.5449 51.001 87.2431 51.8293 87.0385 52.5976C86.7977 53.534 82.3195 56.3912 79.5868 56.1871C79.5868 56.1871 78.1543 56.2831 76.9385 54.3503C75.8069 52.5136 77.3718 49.0202 77.3718 49.0202C77.3718 49.0202 76.6616 47.3875 77.1792 46.8473C77.1792 46.8473 77.4922 46.5712 78.383 46.4992L79.4785 44.2302C79.4785 44.2302 78.2265 44.3143 77.4802 43.4019C76.782 42.5255 76.7338 42.1294 77.2635 41.8893C77.8293 41.6132 83.0418 40.6648 86.6292 40.7848C86.6292 40.7848 87.8811 40.6648 88.9525 42.8257C88.9405 42.8257 89.4702 43.702 88.5794 43.9061ZM75.0846 52.6216C74.6271 53.7021 73.4113 54.8545 71.9065 54.1342C70.4138 53.414 68.0423 48.576 68.0423 48.576C68.0423 48.576 67.1394 46.7753 66.9709 46.8113C66.9709 46.8113 66.7783 46.4631 66.6579 48.4319C66.5375 50.4007 66.682 54.2303 65.8995 54.8305C65.1531 55.4308 64.2502 55.1907 63.7808 54.4824C63.3594 53.7861 63.1789 52.1294 63.4076 49.2243C63.6845 46.3191 64.3586 43.2218 65.2253 42.2494C66.0921 41.289 66.7903 41.9853 67.0551 42.2374C67.0551 42.2374 68.2108 43.2819 70.1249 46.3551L70.4619 46.9193C70.4619 46.9193 72.1954 49.8245 72.376 49.8125C72.376 49.8125 72.5205 49.9446 72.6408 49.8485C72.8214 49.8005 72.7492 48.8641 72.7492 48.8641C72.7492 48.8641 72.388 45.7068 70.811 40.3527C70.811 40.3527 70.5703 39.6804 70.7388 39.0561C70.8953 38.4199 71.5333 38.72 71.5333 38.72C71.5333 38.72 73.9891 39.9445 75.1689 43.9301C76.3366 47.9517 75.542 51.5412 75.0846 52.6216ZM63.0224 42.3815C62.8177 42.7897 62.6973 43.3779 61.662 43.534C61.662 43.534 51.7546 44.2062 51.2852 44.9025C51.2852 44.9025 50.936 45.3107 51.4778 45.4307C52.0195 45.5388 54.2586 45.8389 55.342 45.8989C56.4977 45.9109 60.398 45.9469 61.7945 47.6876C61.7945 47.6876 62.6251 48.516 62.589 50.3887C62.5529 52.3095 62.2158 52.9818 61.4694 53.6781C60.687 54.3263 53.9697 57.3275 49.6359 52.7177C49.6359 52.7177 47.6376 50.4968 50.3221 48.8161C50.3221 48.8161 52.2602 47.6516 57.1838 49.0202C57.1838 49.0202 58.6766 49.5604 58.6043 50.1006C58.5201 50.6768 57.3765 51.2891 55.7152 51.2531C54.1021 51.2051 52.9223 50.4368 53.1511 50.5568C53.3678 50.6408 51.4176 49.6204 50.8157 50.3167C50.2138 50.953 50.3582 51.3491 50.9481 51.7453C52.4529 52.5976 58.2673 52.2975 60.0008 50.3767C60.0008 50.3767 60.687 49.5964 59.6396 48.9602C58.5923 48.3599 55.5948 47.9998 54.4271 47.9397C53.3076 47.8797 49.1424 47.9517 48.5405 46.8473C48.5405 46.8473 47.9385 46.103 48.6006 43.9901C49.2989 41.7812 54.1502 40.9289 56.2449 40.7368C56.2449 40.7368 62.0112 40.5327 63.0705 41.7092C63.0585 41.7092 63.2029 41.9853 63.0224 42.3815ZM46.6505 55.3347C45.9523 55.8509 44.4716 55.6228 44.0502 55.0466C43.6289 54.5304 43.4844 52.4776 43.5687 49.2603C43.653 46.007 43.7252 41.9733 44.4234 41.3371C45.1698 40.6888 45.6272 41.253 45.9161 41.6972C46.2291 42.1294 46.6023 42.6096 46.6866 43.63C46.7588 44.6504 46.9996 50.0046 46.9996 50.0046C46.9996 50.0046 47.3126 54.8305 46.6505 55.3347ZM48.1552 38.0717C46.1208 38.744 44.7244 38.5159 43.5446 38.0117C43.027 38.9121 42.726 39.1882 42.3288 39.2482C41.7509 39.3082 41.2333 38.3839 41.137 38.0838C41.0407 37.8557 40.7638 37.4715 41.1009 36.5591C39.9452 35.5267 39.8609 34.1342 40.0536 33.1978C40.3425 32.1173 42.2927 28.0117 48.2275 27.5315C48.2275 27.5315 51.1287 27.3154 51.6222 28.864H51.7065C51.7065 28.864 54.5234 28.876 54.4632 31.373C54.4271 33.8821 51.3333 37.0033 48.1552 38.0717ZM42.6177 32.5135C42.0158 33.4739 41.9917 34.0501 42.2686 34.4463C42.9548 33.4019 44.2067 31.7572 46.0486 30.5087C44.6281 30.6287 43.4363 31.241 42.6177 32.5135ZM50.8157 30.9048C48.9498 31.181 46.0606 33.678 44.6882 35.7188C46.7949 36.103 50.5147 35.9589 52.1639 32.6095C52.1519 32.6095 52.9464 30.5327 50.8157 30.9048ZM101.472 50.2447C100.353 52.1895 97.2107 56.2471 93.0214 55.2987C91.637 58.6481 90.4814 62.0214 89.8193 67.0875C89.8193 67.0875 89.6748 68.0719 88.8562 67.7237C88.0497 67.4356 86.7014 66.0911 86.4366 64.2303C86.1476 61.7813 87.2431 57.6397 89.4702 52.8977C88.8201 51.8413 88.3747 50.3287 88.7599 48.1798C88.7599 48.1798 89.3257 44.1942 93.3344 40.5928C93.3344 40.5928 93.8159 40.1726 94.0928 40.3047C94.4058 40.4367 94.2614 41.7332 94.0086 42.3575C93.7558 42.9817 91.9621 46.079 91.9621 46.079C91.9621 46.079 90.8425 48.1678 91.1555 49.8125C93.2622 46.5832 98.0534 40.0646 101.027 42.1174C102.026 42.8257 102.483 44.3743 102.483 46.043C102.471 47.5196 102.122 49.0802 101.472 50.2447ZM100.605 45.1306C100.605 45.1306 100.437 43.8461 99.185 45.2627C98.1015 46.4511 96.1513 48.696 94.5744 51.7333C96.2236 51.5532 97.8126 50.6528 98.2941 50.1967C99.0766 49.5004 100.894 47.6276 100.605 45.1306ZM42.1602 46.7633C41.9315 49.6684 40.812 54.5544 32.8788 56.9674C27.6422 58.54 22.6945 57.7837 19.998 57.0994C19.9378 58.1679 19.8174 58.6241 19.6489 58.8041C19.4202 59.0322 17.7107 60.0166 16.7718 58.6241C16.3504 57.9638 16.1337 56.7633 16.0134 55.6949C9.94613 52.9098 7.15328 48.9001 7.04494 48.7201C6.91252 48.588 5.52813 47.1474 6.91252 45.3827C8.21264 43.7861 12.4621 42.1894 16.2902 41.5412C16.4227 38.2758 16.8079 35.8148 17.2653 34.6864C17.8191 33.3778 18.5173 34.5543 19.1192 35.4427C19.6248 36.103 19.9258 38.9481 19.9498 41.217C22.4538 41.097 23.9345 41.277 26.7273 41.7812C30.3628 42.4415 32.7946 44.2903 32.5779 46.3911C32.4214 48.4559 30.5193 49.3083 29.7971 49.3683C29.0386 49.4283 27.8589 48.8881 27.8589 48.8881C27.0524 48.504 27.7987 48.1678 28.7738 47.7477C29.8332 47.2315 29.5924 46.7032 29.5924 46.7032C29.1951 45.5508 24.4762 44.7464 19.7813 44.7464C19.7572 47.3275 19.8896 51.6132 19.9498 54.1102C23.2363 54.7345 25.692 54.6144 25.692 54.6144C25.692 54.6144 37.682 54.2783 38.0432 46.6432C38.4164 38.9961 26.0893 31.6612 16.9764 29.3322C7.87557 26.9552 2.72324 28.6119 2.27783 28.84C1.79631 29.0801 2.24172 29.1521 2.24172 29.1521C2.24172 29.1521 2.73528 29.2242 3.58999 29.5123C4.49285 29.8004 3.79464 30.2686 3.79464 30.2686C2.24172 30.7608 0.496185 30.4487 0.159116 29.7404C-0.177952 29.0321 0.387841 28.3958 1.0379 27.4835C1.68796 26.5231 2.39821 26.5591 2.39821 26.5591C13.6539 22.6695 27.3653 29.7044 27.3653 29.7044C40.2101 36.199 42.401 43.8101 42.1602 46.7633ZM8.18856 46.3671C6.91252 46.9914 7.79131 47.8917 7.79131 47.8917C10.1869 50.4608 13.1362 52.0694 15.9411 53.0658C16.2662 48.636 16.218 47.0754 16.2541 44.8425C11.8722 45.1426 9.34423 45.8389 8.18856 46.3671Z" fill="#FBFEFF"/>
<path d="M125.304 45.4528V47.0374C125.304 47.3855 125.028 47.6617 124.678 47.6617H117.106C117.106 48.0578 117.118 48.406 117.118 48.7301C117.118 51.071 117.022 52.9798 116.793 55.1287C116.757 55.4528 116.492 55.6929 116.179 55.6929H114.542C114.374 55.6929 114.217 55.6209 114.109 55.5008C114.001 55.3808 113.94 55.2127 113.964 55.0446C114.193 52.9078 114.302 51.023 114.302 48.7301C114.302 48.394 114.302 48.0458 114.29 47.6617H106.802C106.453 47.6617 106.176 47.3855 106.176 47.0374V45.4528C106.176 45.1046 106.453 44.8285 106.802 44.8285H114.181C114.025 42.2475 113.712 39.7625 113.206 37.2414C113.182 37.0854 113.218 36.9293 113.314 36.8093C113.411 36.6892 113.555 36.6172 113.712 36.6172H115.481C115.758 36.6172 115.987 36.8093 116.047 37.0854C116.541 39.6904 116.854 42.2235 117.01 44.8285H124.678C125.015 44.8285 125.304 45.1166 125.304 45.4528Z" fill="#FFFEFF"/>
<path d="M115.004 32.8844C111.091 23.2925 104.482 15.1172 95.8869 9.23478C87.0871 3.22035 76.7704 0.0390625 66.0564 0.0390625C48.3362 0.0390625 31.8921 8.81461 22.081 23.5206C21.9727 23.6766 21.9486 23.8807 22.0088 24.0608C22.069 24.2529 22.2135 24.3849 22.394 24.4449L23.7664 24.9131C23.8506 24.9371 23.9349 24.9491 24.0071 24.9491C24.2599 24.9491 24.5007 24.8171 24.6452 24.613C29.1474 18.0103 35.2387 12.5241 42.269 8.73058C49.528 4.817 57.7501 2.74016 66.0444 2.74016C76.0721 2.74016 85.7388 5.69335 94.021 11.2636C102.099 16.7018 108.371 24.3009 112.163 33.2205C112.271 33.4846 112.536 33.6647 112.825 33.6647H114.462C114.654 33.6647 114.835 33.5686 114.931 33.4126C115.052 33.2565 115.076 33.0644 115.004 32.8844ZM24.0071 24.541H24.0312C24.0312 24.541 24.0192 24.541 24.0071 24.541ZM112.488 33.4486C112.524 33.4726 112.56 33.4966 112.596 33.5086C112.56 33.4846 112.524 33.4726 112.488 33.4486Z" fill="url(#paint0_radial_291_527)"/>
</g>
<defs>
<radialGradient id="paint0_radial_291_527" cx="0" cy="0" r="1" gradientUnits="userSpaceOnUse" gradientTransform="translate(113.466 33.6042) scale(91.5049 91.2518)">
<stop offset="0.007" stop-color="#FFFEFF"/>
<stop offset="0.03" stop-color="#FFFEFF"/>
<stop offset="0.057" stop-color="#FFFEFF"/>
<stop offset="0.084" stop-color="#FFFEFF"/>
<stop offset="0.111" stop-color="#FFFEFF"/>
<stop offset="0.138" stop-color="#FFFEFF"/>
<stop offset="0.165" stop-color="#FFFEFF"/>
<stop offset="0.191" stop-color="#FFFEFF"/>
<stop offset="0.216" stop-color="#FFFEFF"/>
<stop offset="1" stop-color="#FFFEFF" stop-opacity="0"/>
</radialGradient>
<clipPath id="clip0_291_527">
<rect width="125" height="68" fill="white"/>
</clipPath>
</defs>
</svg>
