<svg width="65" height="99" viewBox="0 0 65 99" fill="none" xmlns="http://www.w3.org/2000/svg">
<g clip-path="url(#clip0_291_472)">
<path d="M32.502 49.5039C32.502 40.4841 39.7032 33.1719 48.5865 33.1719C57.4696 33.1719 64.6711 40.4841 64.6711 49.5039C64.6711 58.5239 57.4696 65.8359 48.5865 65.8359C39.7032 65.8359 32.502 58.5239 32.502 49.5039Z" fill="#1ABCFE"/>
<path d="M0.330078 82.164C0.330078 73.1443 7.53137 65.832 16.4146 65.832H32.4992V82.164C32.4992 91.184 25.298 98.4961 16.4146 98.4961C7.53137 98.4961 0.330078 91.184 0.330078 82.164Z" fill="#0ACF83"/>
<path d="M32.502 0.503906V33.1678H48.5865C57.4698 33.1678 64.6711 25.8558 64.6711 16.8359C64.6711 7.816 57.4698 0.503906 48.5865 0.503906H32.502Z" fill="#FF7262"/>
<path d="M0.330078 16.8359C0.330078 25.8558 7.53137 33.1679 16.4146 33.1679H32.4992V0.503906H16.4146C7.53137 0.503906 0.330078 7.81599 0.330078 16.8359Z" fill="#F24E1E"/>
<path d="M0.330078 49.5039C0.330078 58.5239 7.53137 65.8359 16.4146 65.8359H32.4992V33.1719H16.4146C7.53137 33.1719 0.330078 40.4841 0.330078 49.5039Z" fill="#A259FF"/>
</g>
<defs>
<clipPath id="clip0_291_472">
<rect width="65" height="99" fill="white"/>
</clipPath>
</defs>
</svg>
