<svg width="185" height="182" viewBox="0 0 185 182" fill="none" xmlns="http://www.w3.org/2000/svg">
<path d="M55.5085 58.346C56.8774 57.0958 59.2891 54.757 60.1864 53.7087C60.5959 53.2453 60.569 52.666 60.569 52.666C60.569 52.666 60.5959 52.0865 60.1864 51.6231C59.2891 50.575 56.8774 48.236 55.5085 46.9858C54.9481 46.463 54.8134 46.1344 54.8134 45.493V38.4037C54.8134 38.0668 55.134 37.9186 55.4062 38.1558C58.4591 40.9824 65.2602 47.7215 67.5397 50.3325C68.6283 51.4885 68.5287 52.6661 68.5287 52.6661C68.5287 52.6661 68.6283 53.8409 67.5397 54.9995C65.2575 57.6106 58.4564 64.3496 55.4062 67.1762C55.134 67.4134 54.8134 67.2651 54.8134 66.9284V59.8389C54.8161 59.1949 54.9481 58.8688 55.5085 58.346ZM51.4936 58.3406C50.1249 57.0904 47.7132 54.7514 46.8159 53.7033C46.4063 53.2399 46.4332 52.6604 46.4332 52.6604C46.4332 52.6604 46.4063 52.0811 46.8159 51.6177C47.7132 50.5694 50.1249 48.2306 51.4936 46.9804C52.0541 46.4576 52.1888 46.1288 52.1888 45.4875V38.3766C52.1888 38.091 51.8547 37.9132 51.5961 38.153C48.5432 40.9796 41.7421 47.7188 39.4624 50.3297C38.3711 51.4857 38.4735 52.6633 38.4735 52.6633C38.4735 52.6633 38.3738 53.8381 39.4624 54.9967C41.7447 57.6078 48.5458 64.3469 51.5961 67.1735C51.8682 67.4106 52.1888 67.2624 52.1888 66.9256V59.8362C52.1888 59.1895 52.0541 58.8607 51.4936 58.3406ZM26.4744 54.7163C29.5435 57.8825 46.1475 75.0092 49.2589 77.4798C50.3449 78.3503 51.7433 78.9889 53.4975 78.9889C55.2544 78.9889 56.6528 78.3503 57.7361 77.4798C60.8483 75.009 77.4515 57.8818 80.5207 54.7163C80.7712 54.428 80.5448 53.9754 80.1676 53.9754C78.6345 53.9754 75.0803 53.97 72.9382 53.97C72.1837 53.97 71.9601 54.102 71.4857 54.6113C71.0115 55.1206 68.6511 57.6535 68.6511 57.6535C65.6493 60.8896 58.3282 68.0356 55.6525 70.2882C54.6475 71.1344 53.5104 71.1074 53.4942 71.1074C53.478 71.1074 52.3408 71.1344 51.3358 70.2882C48.6601 68.0328 41.339 60.8869 38.3372 57.6535C38.3372 57.6535 35.9767 55.1206 35.5025 54.6113C35.0283 54.102 34.8046 53.97 34.0501 53.97C31.9106 53.97 28.3539 53.9754 26.8206 53.9754C26.4487 53.9754 26.2224 54.428 26.473 54.7163H26.4744ZM80.5248 50.6396C77.4557 47.4735 60.8516 30.3468 57.7402 27.8761C56.6542 27.0057 55.2558 26.3672 53.5017 26.3672C51.7448 26.3672 50.3464 27.0058 49.2632 27.8761C46.1508 30.347 29.5439 47.4741 26.4746 50.6396C26.224 50.9279 26.4504 51.3805 26.8276 51.3805C28.3608 51.3805 31.9149 51.3859 34.0572 51.3859C34.8117 51.3859 35.0353 51.254 35.5095 50.7447C35.9838 50.2354 38.3442 47.7025 38.3442 47.7025C41.346 44.4663 48.6672 37.3203 51.3429 35.0677C52.3479 34.2216 53.485 34.2486 53.5012 34.2486C53.5173 34.2486 54.6544 34.2216 55.6596 35.0677C58.3353 37.3231 65.6563 44.4689 68.6581 47.7025C68.6581 47.7025 71.0185 50.2354 71.4928 50.7447C71.967 51.254 72.1907 51.3859 72.9451 51.3859C75.0846 51.3859 78.6415 51.3805 80.1747 51.3805C80.5519 51.3833 80.7754 50.9279 80.5248 50.6396Z" fill="#FFB100"/>
</svg>
