<svg width="136" height="164" viewBox="0 0 136 164" fill="none" xmlns="http://www.w3.org/2000/svg">
<g clip-path="url(#clip0_291_428)">
<mask id="mask0_291_428" style="mask-type:luminance" maskUnits="userSpaceOnUse" x="0" y="20" width="75" height="50">
<path d="M74.0079 20.0312H0V69.0024H74.0079V20.0312Z" fill="white"/>
</mask>
<g mask="url(#mask0_291_428)">
<path d="M11.4443 44.1576H14.627V48.628C13.6339 48.9471 12.38 49.1221 11.0767 49.1221C5.79424 49.1221 2.6896 44.5982 2.6896 40.1801C2.6896 35.8469 5.49782 32.8074 9.41562 32.8074C11.8948 32.8074 13.3373 33.6473 14.6279 34.8173V36.2758L17.0478 33.8558C15.5172 32.8202 13.3009 31.8359 10.133 31.8359C3.17872 31.8359 0 36.8115 0 40.9005C0 46.7208 4.23897 50.2269 9.56595 50.2269C12.1489 50.2269 14.4422 49.8326 17.0913 49.0954V44.4767C17.0913 44.2405 17.1951 44.0785 17.3502 43.9362L18.1861 43.1002H12.5095L11.4443 44.1576Z" fill="url(#paint0_linear_291_428)"/>
<path d="M25.7036 38.0781C21.7008 38.0781 19.2207 41.0033 19.2207 44.1081C19.2207 46.788 21.2187 49.9698 25.2669 49.9698C29.161 49.9698 31.5503 47.039 31.5503 43.8798C31.5503 40.937 29.2154 38.0792 25.7036 38.0792V38.0781ZM25.0395 38.931C27.8616 38.931 29.1184 42.6079 29.1184 45.2305C29.1184 49.1309 26.1926 49.208 25.8429 49.208C24.504 49.208 23.5682 48.3987 22.8678 47.3374C22.2512 46.3592 21.6484 44.5418 21.6484 42.766C21.6484 40.9972 22.2274 40.1335 23.1385 39.4981C23.8835 39.0219 24.5811 38.931 25.0385 38.931H25.0395Z" fill="url(#paint1_linear_291_428)"/>
<path d="M51.8657 38.0781C48.3696 38.0781 46.4785 40.2917 46.4785 42.763C46.4785 44.6445 47.8262 46.7671 50.6068 46.7671H51.3102C51.3102 46.7671 51.1186 47.2326 51.1176 47.6823C51.1176 48.3454 51.3557 48.7178 51.8616 49.2909C47.0771 49.5825 45.1543 51.5124 45.1543 53.5866C45.1543 55.4029 46.8935 57.1905 50.5484 57.1905C54.8753 57.1905 57.1163 54.7882 57.1163 52.4305C57.1163 50.7684 56.2882 49.8573 54.1915 48.2861C53.5749 47.8068 53.4554 47.5016 53.4554 47.1429C53.4554 46.629 53.7626 46.289 53.8753 46.1606C54.0739 45.9511 54.4178 45.712 54.5462 45.5974C55.2508 45.0005 56.2458 44.1171 56.2458 42.3542C56.2458 41.1446 55.7427 40.1041 54.5966 39.1298H55.9958L57.0471 38.0784L51.8657 38.0781ZM50.9014 38.8648C51.5357 38.8648 52.0652 39.089 52.6245 39.5545C53.2449 40.1138 54.2361 41.6168 54.2361 43.4765C54.2361 45.4835 52.6769 46.0329 51.8331 46.0329C51.4201 46.0329 50.9252 45.9174 50.5061 45.6308C49.5753 45.0271 48.6513 43.4201 48.6513 41.5081C48.6513 39.7827 49.6789 38.8648 50.9014 38.8648ZM52.2856 50.0529C52.5523 50.0529 52.7441 50.0747 52.7441 50.0747C52.7441 50.0747 53.3736 50.5243 53.8132 50.8601C54.8369 51.6695 55.4751 52.2881 55.4751 53.39C55.4751 54.9049 54.07 56.0927 51.7944 56.0927C49.2966 56.0927 47.3876 54.9296 47.3876 53.0303C47.3876 51.4571 48.6958 50.1032 52.2856 50.0529Z" fill="url(#paint2_linear_291_428)"/>
<path d="M57.8065 49.6272H62.606L63.3374 48.8961L61.9606 48.7241C61.59 48.6786 61.3699 48.3585 61.3699 48.0483V33.5506C61.3699 33.2651 61.5024 33.1187 61.5992 33.0258L62.4648 32.1602H58.3719L57.3066 33.2254H58.8975V48.2428C58.8975 48.4562 58.8306 48.6015 58.686 48.7507L57.8065 49.6272Z" fill="url(#paint3_linear_291_428)"/>
<path d="M69.1124 38.0781C66.4327 38.0781 63.5859 40.1207 63.5859 43.7878C63.5859 46.8165 65.6288 49.9698 69.4449 49.9698C70.3963 49.9698 71.1801 49.8474 71.9142 49.5105C72.7014 49.1477 73.4592 48.5588 74.0124 47.8187C72.9682 48.3454 72.1165 48.6912 70.9853 48.6912C68.8346 48.6912 66.7618 47.1398 66.0369 44.2879L73.6321 41.2177C73.1936 39.6534 71.9563 38.0781 69.1135 38.0781H69.1124ZM68.6168 38.9171C70.0546 38.9171 71.0936 40.1 71.0936 41.0259C71.0936 41.3253 70.9063 41.4835 70.5346 41.6296L65.8657 43.5181C65.8657 43.5181 65.7395 42.9301 65.7395 42.2947C65.7395 39.6296 67.666 38.9171 68.6168 38.9171Z" fill="url(#paint4_linear_291_428)"/>
<path d="M39.2819 38.0781C35.279 38.0781 32.7988 41.0033 32.7988 44.1081C32.7988 46.788 34.7969 49.9698 38.8451 49.9698C42.7392 49.9698 45.1284 47.039 45.1284 43.8798C45.1284 40.937 42.7936 38.0792 39.2819 38.0792V38.0781ZM38.6178 38.931C41.4398 38.931 42.6966 42.6079 42.6966 45.2305C42.6966 49.1309 39.7708 49.208 39.4211 49.208C38.0821 49.208 37.1465 48.3987 36.446 47.3374C35.8294 46.3592 35.2267 44.5418 35.2267 42.766C35.2267 40.9972 35.8056 40.1335 36.7167 39.4981C37.4617 39.0219 38.1593 38.931 38.6168 38.931H38.6178Z" fill="url(#paint5_linear_291_428)"/>
</g>
</g>
<defs>
<linearGradient id="paint0_linear_291_428" x1="9.04787" y1="31.7839" x2="9.04787" y2="50.2259" gradientUnits="userSpaceOnUse">
<stop stop-color="#196EEF"/>
<stop offset="0.5" stop-color="#186DEE"/>
<stop offset="1" stop-color="#1065E7"/>
</linearGradient>
<linearGradient id="paint1_linear_291_428" x1="25.3406" y1="38.05" x2="25.3406" y2="49.9748" gradientUnits="userSpaceOnUse">
<stop stop-color="#DE5744"/>
<stop offset="0.5" stop-color="#DB4632"/>
<stop offset="1" stop-color="#D13D29"/>
</linearGradient>
<linearGradient id="paint2_linear_291_428" x1="51.0913" y1="38.0509" x2="51.0913" y2="57.1978" gradientUnits="userSpaceOnUse">
<stop stop-color="#1A6FEF"/>
<stop offset="0.25" stop-color="#1E72EF"/>
<stop offset="0.5" stop-color="#166BEC"/>
<stop offset="0.75" stop-color="#1267E9"/>
<stop offset="1" stop-color="#1063E5" stop-opacity="0.87"/>
</linearGradient>
<linearGradient id="paint3_linear_291_428" x1="60.2783" y1="32.119" x2="60.2783" y2="49.6441" gradientUnits="userSpaceOnUse">
<stop stop-color="#0AA561"/>
<stop offset="0.5" stop-color="#009B58"/>
<stop offset="1" stop-color="#00914B"/>
</linearGradient>
<linearGradient id="paint4_linear_291_428" x1="68.7556" y1="38.05" x2="68.7556" y2="49.942" gradientUnits="userSpaceOnUse">
<stop stop-color="#DE5644"/>
<stop offset="0.5" stop-color="#DA4531"/>
<stop offset="1" stop-color="#CE3A28"/>
</linearGradient>
<linearGradient id="paint5_linear_291_428" x1="38.9192" y1="38.0759" x2="38.9192" y2="49.9512" gradientUnits="userSpaceOnUse">
<stop stop-color="#FFC01A"/>
<stop offset="0.5" stop-color="#FFBA03"/>
<stop offset="1" stop-color="#FFB300"/>
</linearGradient>
<clipPath id="clip0_291_428">
<rect width="74.0079" height="48.9711" fill="white" transform="translate(0 20.0312)"/>
</clipPath>
</defs>
</svg>
