<svg width="130" height="75" viewBox="0 0 130 75" fill="none" xmlns="http://www.w3.org/2000/svg">
<g clip-path="url(#clip0_291_484)">
<path d="M11.7182 40.1917H14.2293V44.8617H5.3569V40.1917H7.86794V37.3562H0V40.1917H2.51105V54.2019H0V57.0373H7.86794V54.2019H5.3569V47.6972H14.2293V54.2019H11.7182V57.0373H19.5862V54.2019H17.0751V40.1917H19.5862V37.3562H11.7182M106.803 54.0351H99.1026V47.5304H105.799V44.695H99.1026V40.0249H106.971V42.6935H109.649V37.1895H93.5783V40.0249H96.2568V54.0351H93.5783V56.8705H109.649V50.3658H106.803M39.5071 50.3658H36.6613V54.0351H28.9607V47.5304H35.6568V44.695H28.9607V40.0249H36.8287V42.6935H39.5071V37.1895H23.4364V40.0249H26.1149V54.0351H23.4364V56.8705H39.5071M99.7722 36.3555H105.464L103.957 34.6876H98.0982M125.217 45.6957C123.209 45.1953 121.869 45.1953 119.861 44.5282C118.019 43.861 117.684 42.8603 117.684 42.0263C117.684 41.3592 118.521 39.3577 121.367 39.3577C124.213 39.3577 126.055 41.1924 126.222 42.8603H128.9V37.1895H126.222V38.357V38.6906C126.222 38.6906 126.054 38.5238 125.887 38.1902C125.05 37.3562 123.376 36.6891 121.032 36.6891C118.187 36.6891 114.671 38.5238 114.671 42.0263C114.671 45.3621 117.182 46.5296 119.191 47.1968C121.2 47.6971 122.372 47.6971 124.046 48.1975C125.72 48.6979 126.892 49.6986 126.892 51.1997C126.892 52.7008 126.054 54.5355 122.372 54.5355C118.689 54.5355 117.182 52.534 116.847 49.6986H114.169V56.537H116.847V55.2026L116.68 54.8691C116.68 54.8691 116.847 55.0359 117.015 55.3694C118.354 56.3702 120.195 57.0373 122.539 57.0373C125.05 57.0373 129.57 55.703 129.57 51.0329C129.905 48.0307 128.231 46.5296 125.217 45.6957ZM81.8601 54.0351V56.8705H89.8954V54.0351H87.217V40.0249H89.8954V37.1895H82.6971L78.0098 48.5311L77.8424 49.0315L77.675 48.5311L72.9877 37.1895H65.7894V40.0249H68.4679V54.0351H65.7894V56.8705H73.8247V54.0351H71.3137V41.1924V40.3584L71.4811 41.0256L77.0054 54.0351H78.6794L84.2037 41.0256L84.3711 40.3584V41.1924V54.2019M27.2867 29.1836V29.8507H29.9651C29.6303 29.684 29.4629 29.5172 29.1281 29.1836H27.2867ZM99.7722 29.1836H98.433C98.0982 29.1836 97.7634 29.5172 97.7634 29.8507H99.9396L99.7722 29.1836ZM27.2867 31.6854H99.7722V30.3511H53.0668C51.8949 30.8515 50.3883 30.8515 49.2165 30.3511H35.1546C33.8154 31.0183 32.3088 30.8515 30.9696 30.3511H27.2867V31.6854ZM47.7099 29.1836H36.8287C36.8287 29.1836 36.3265 29.684 36.1591 29.8507H48.5469C48.0447 29.5172 47.8773 29.3504 47.7099 29.1836Z" fill="white"/>
<path d="M28.4567 24.1844C28.2893 24.6847 28.2893 25.0183 28.2893 25.5187C28.2893 28.0205 30.4655 30.1888 33.1439 30.022C35.655 30.022 37.6638 28.0205 37.6638 25.5187C37.6638 25.0183 37.4964 24.518 37.329 24.0176C37.8312 23.8508 38.3334 23.8508 38.8356 23.684C39.003 23.684 39.003 23.5172 38.8356 23.5172C38.166 23.3504 37.329 23.1836 36.6594 23.0169C35.8224 21.8493 34.3158 21.0154 32.8091 21.0154C32.1395 21.0154 31.6373 21.1822 31.1351 21.349C30.9677 21.0154 30.9677 20.515 31.1351 20.0147C31.6373 19.1807 32.6417 19.0139 33.4787 18.8471C33.8136 18.8471 34.4832 18.8471 34.4832 19.0139C34.6506 19.1807 34.9854 19.1807 35.3202 19.0139C35.655 19.1807 35.655 19.1807 35.9898 19.3475C39.003 20.3482 42.3511 20.8486 45.5318 20.3482C46.034 20.8486 46.3688 21.6825 46.7036 22.3497C46.871 22.5165 46.871 22.1829 48.545 22.1829C49.0472 22.1829 49.8842 22.1829 50.3865 22.1829C49.0472 22.3497 48.0428 23.0169 47.3732 24.0176C46.3688 24.3512 45.5318 24.6847 45.197 24.8515C45.197 24.8515 45.197 25.0183 45.5318 25.0183C46.034 25.1851 46.5362 25.1851 47.0384 25.3519C47.0384 25.5187 47.0384 25.8523 47.0384 26.0191C47.0384 28.3541 48.8798 30.1888 51.2235 30.1888C53.5671 30.1888 55.4085 28.3541 55.4085 26.0191C55.4085 25.3519 55.2411 24.6847 54.9063 24.0176C55.4085 23.8508 55.9107 23.684 56.5804 23.3504C57.0826 23.5172 57.4174 23.8508 57.5848 24.1844C57.9196 24.518 58.4218 24.3512 58.7566 24.3512C59.2588 24.1844 59.4262 23.684 59.4262 23.1836C59.4262 23.0169 59.4262 22.6833 59.5936 22.5165C60.2632 21.0154 62.9417 20.8486 64.2809 20.515C64.2809 20.515 63.6113 21.349 63.1091 21.5158C62.9417 23.684 62.1047 25.6855 62.1047 27.8537C62.7743 27.8537 62.7743 28.6877 62.9417 29.0213C62.7743 29.3548 62.4395 29.0213 62.1047 29.188C61.1002 28.6877 62.2721 27.6869 61.6025 27.0198C61.9373 25.1851 62.7743 23.5172 62.6069 21.6825C62.2721 21.6825 62.2721 22.0161 62.1047 22.1829C61.9373 24.0176 61.4351 25.6855 60.9328 27.1866C61.1002 27.3534 61.4351 27.3534 61.4351 27.6869C60.7654 28.0205 61.435 28.6877 61.2676 29.188H54.9063L54.2367 29.8552H64.1135L64.2809 29.5216C62.7743 28.0205 63.4439 25.6855 64.1135 24.0176L65.7875 21.6825C67.1268 21.1822 68.1312 19.3475 69.4704 18.8471C69.4704 19.5143 68.6334 19.8479 68.1312 20.3482C67.629 21.5158 65.9549 21.6825 65.7875 23.0169C66.4571 23.684 67.2942 24.1844 68.1312 24.8515C68.9682 25.3519 68.6334 26.3526 69.303 26.853C69.4704 27.0198 69.303 27.1866 69.1356 27.3534C68.466 27.5202 68.466 28.0205 68.9682 28.3541C69.303 28.5209 69.4704 28.8545 69.4704 29.0213H64.9505C64.9505 29.188 65.1179 29.3548 65.2853 29.6884H90.3958C90.5632 29.3548 90.2284 28.8545 90.061 28.5209C88.2195 27.8537 88.2195 26.1858 88.2195 24.3512C88.2195 24.3512 88.0521 24.1844 88.2195 23.684C87.8847 23.5172 86.7129 20.515 87.3825 18.18L87.7173 17.346C88.0521 16.8457 87.7173 16.5121 87.8847 16.0117L93.2416 15.011C93.409 15.011 93.2416 14.6774 93.2416 14.6774L91.5676 15.011C90.2284 14.5106 88.3869 13.3431 87.2151 11.6752C87.5499 9.0066 87.3825 7.00513 87.2151 5.50403C88.0521 4.83688 88.5543 4.33651 88.5543 4.33651C89.0566 4.67009 89.224 4.5033 89.224 4.33651C89.0566 4.16972 88.3869 3.83614 88.5543 3.50256C89.0566 3.66935 89.224 3.50256 89.224 3.16899L88.2195 3.33578V3.16899C88.3869 3.0022 88.7217 3.16899 89.0566 3.16899C89.3914 3.0022 89.0566 2.66862 89.0566 2.50183C88.3869 1.66789 87.0477 1.66789 86.2107 1.16752C86.0433 0.667155 85.8759 0.500366 85.5411 0.333578C85.3737 0 84.2019 0 83.8671 0C83.6997 0 83.1974 0.500366 83.1974 0.500366C82.5278 0.667155 82.0256 0.333578 81.356 0C81.356 0 81.5234 0.667155 82.193 1.00073C81.6908 1.16752 81.356 1.66789 81.1886 2.33504C80.519 2.50183 80.3516 3.33578 80.519 3.66935C79.8494 4.00293 79.8494 4.5033 80.1842 5.17045C79.682 5.50403 79.682 6.17119 79.8494 6.50476C79.3472 6.83834 79.8494 7.67229 79.8494 8.17265C81.1886 7.83907 83.03 11.0081 85.5411 11.3416C86.0433 9.17338 85.3737 8.00586 84.8715 7.00513C85.3737 6.67155 85.7085 6.33797 86.2107 6.0044C86.5455 7.33871 86.7129 9.50696 86.3781 11.6752C86.2107 11.6752 86.0433 11.5084 85.8759 11.5084C85.8759 11.5084 86.2107 12.0088 86.2107 12.1756C86.2107 12.1756 85.3737 12.6759 83.6997 12.0088C83.1974 13.0095 77.6731 15.5114 77.6731 15.5114C77.8406 17.0125 78.6776 18.0132 79.3472 18.8471C80.519 19.6811 81.8582 20.1814 83.3648 20.515C83.6997 21.349 84.7041 24.0176 84.8715 24.518C85.0389 25.0183 85.2063 25.0183 85.2063 25.0183C85.3737 25.1851 85.8759 26.0191 85.8759 26.5194L86.0433 28.0205C86.0433 28.3541 86.5455 28.0205 86.5455 28.3541L86.3781 29.3548H69.6378C69.8052 28.1873 69.303 27.1866 69.6378 26.1858C68.9682 25.0183 67.1268 24.1844 67.4616 22.6833C68.2986 21.5158 71.1444 20.3482 70.4748 18.8471C72.9859 17.5128 74.3251 19.6811 76.6687 19.5143C77.5057 19.5143 78.3428 19.3475 79.1798 19.1807C78.1754 18.3468 77.3383 17.1792 76.8361 16.1785C71.814 18.18 67.1268 19.8479 61.6025 20.8486L61.2676 20.6818C60.9328 20.6818 54.9063 22.0161 53.3997 22.6833C53.0649 22.5165 52.5627 22.1829 52.0605 22.1829H52.2279C52.7301 22.1829 53.5671 21.8493 54.0693 21.6825C56.413 20.8486 57.25 17.5128 58.2544 15.5114C59.0914 18.6803 61.2676 19.0139 62.4395 18.6803L62.6069 19.6811C62.6069 19.6811 63.6113 19.6811 64.4483 19.3475C64.4483 19.1807 64.2809 18.6803 64.1135 18.0132C64.6157 17.8464 64.7831 17.5128 65.1179 17.5128C65.1179 18.3468 65.2853 19.0139 64.9505 19.3475L67.629 18.6803C68.1312 16.3453 69.6378 13.0095 72.1488 10.6745C68.8008 9.34017 66.2897 10.8413 65.6201 11.5084C62.4395 12.5092 62.2721 16.8457 62.4395 18.5136C61.9373 18.6803 59.5936 19.3475 58.4218 15.3446C58.924 13.3431 60.0958 11.6752 61.6025 10.3409C61.7699 10.1741 61.6025 10.0073 61.2676 10.1741C58.5892 12.0088 57.5848 15.3446 56.0782 18.18C54.9063 19.8479 53.3997 20.8486 51.0561 20.6818C48.2102 20.6818 46.7036 17.6796 45.3644 15.6781C43.3555 11.1748 37.9986 12.8427 33.981 11.842C33.8135 11.6752 33.3113 10.5077 32.6417 10.5077C32.1395 10.5077 32.6417 11.0081 32.3069 11.1748C31.8047 11.0081 31.4699 10.6745 30.8003 10.6745C30.4655 10.6745 30.2981 11.1749 30.2981 11.5084C30.6329 13.0095 32.1395 13.5099 33.3113 14.0103C33.8135 14.6774 33.6461 16.8457 33.1439 17.6796C32.6417 18.5136 30.8003 18.18 30.4655 20.1814C30.4655 20.515 30.4655 21.0154 30.6329 21.1822C29.9633 21.5158 29.2937 22.1829 28.7915 22.8501C27.9544 23.0169 27.2848 23.1836 26.4478 23.5172C26.2804 23.5172 26.2804 23.684 26.4478 23.684C27.2848 24.0176 27.9544 24.0176 28.4567 24.1844ZM87.0477 13.0095C87.7173 13.6767 89.3914 14.8442 90.3958 15.1778L87.3825 15.6781C87.7173 14.5106 86.5455 14.0103 87.0477 13.0095ZM87.3825 2.83541C87.5499 2.83541 87.8847 2.83541 87.8847 3.0022C87.8847 3.0022 87.8847 3.16899 87.8847 3.33578C87.7173 3.33578 87.3825 3.33578 87.3825 3.16899C87.2151 3.0022 87.2151 2.83541 87.3825 2.83541ZM87.3825 3.50256C87.3825 3.66935 87.5499 4.00293 87.7173 4.16972C87.7173 4.33651 87.2151 4.83688 86.5455 5.33724C86.3781 4.5033 86.2107 4.00293 86.2107 3.83614C86.2107 3.66935 87.0477 3.50256 87.3825 3.50256ZM84.5367 0.833944C84.7041 0.833944 84.8715 0.833944 84.8715 0.833944C84.8715 0.833944 84.8715 1.00073 84.8715 1.16752L84.5367 1.33431C84.5367 1.33431 84.2019 1.16752 84.2019 1.00073C84.3693 1.00073 84.3693 0.833944 84.5367 0.833944ZM84.8715 6.67155C84.5367 6.0044 84.2019 5.17045 84.3693 4.16972C84.7041 4.16972 85.2063 4.33651 85.8759 4.16972C85.8759 4.16972 86.0433 4.83688 86.2107 5.83761C85.7085 6.0044 85.2063 6.33797 84.8715 6.67155ZM80.3516 19.0139C79.3472 18.5136 80.0168 18.8471 80.1842 18.6803C81.8582 19.5143 82.6952 19.3475 84.0345 19.1807C84.2019 19.3475 84.5367 19.6811 84.5367 20.0147C82.8626 20.3482 81.6908 19.8479 80.3516 19.0139ZM86.3781 27.3534C86.2107 26.5194 86.2107 26.0191 85.8759 25.5187C85.5411 24.6847 84.7041 22.3497 84.0345 20.3482C84.3693 20.0147 84.7041 20.1814 84.8715 21.1822C85.0389 22.0161 85.3737 22.6833 85.5411 23.3504C85.8759 24.0176 86.0433 25.0183 86.2107 25.5187C86.2107 25.5187 86.3781 25.5187 86.5455 25.8523C87.0477 27.3534 87.2151 27.6869 87.2151 28.3541C87.3825 28.8545 88.2195 28.5209 88.0521 29.188H86.3781H87.0477C86.8803 28.5209 87.2151 27.8537 86.3781 27.3534ZM53.2323 28.6877C52.7301 29.0213 52.2279 29.188 51.5583 29.3548L51.3909 29.188L51.2235 27.0198C51.2235 27.0198 51.3909 27.0198 51.5583 26.853C51.5583 26.853 51.5583 26.853 51.7257 26.853L53.0649 28.5209C53.2323 28.5209 53.2323 28.6877 53.2323 28.6877ZM51.0561 29.3548C50.5539 29.3548 49.8842 29.188 49.5494 28.8545C49.5494 28.8545 49.5494 28.6877 49.5494 28.5209L50.7213 26.6862H50.8887L51.0561 28.8545C51.2235 29.188 51.2235 29.3548 51.0561 29.3548ZM48.2102 25.0183L48.0428 24.8515C48.2102 24.518 48.2102 24.3512 48.545 24.0176C48.8798 24.0176 49.0472 23.8508 49.382 23.8508L50.219 25.0183C49.5494 25.0183 49.0472 25.1851 48.545 25.1851L48.2102 25.0183ZM50.7213 22.5165L50.8887 22.6833V22.8501C50.3864 23.0169 49.7168 23.0169 49.2146 23.1836V23.0169C49.7168 22.8501 50.219 22.6833 50.7213 22.5165ZM50.5539 24.8515L49.5494 23.684C50.0516 23.5172 50.5539 23.5172 50.8887 23.3504V24.6847C50.8887 24.8515 50.7213 24.8515 50.5539 24.8515ZM50.3865 25.1851C50.3865 25.3519 50.219 25.3519 50.219 25.3519C50.219 25.3519 50.219 25.3519 50.0516 25.3519L49.382 25.1851C49.8842 25.3519 50.0516 25.3519 50.3865 25.1851ZM51.2235 24.6847V23.3504C51.7257 23.1836 52.3953 23.1836 52.8975 23.0169V23.1836L52.0605 24.518C51.7257 24.518 51.5583 24.6847 51.2235 24.6847ZM53.0649 23.3504L53.2323 23.1836C53.3997 23.3504 53.7345 23.5172 53.9019 23.8508C53.3997 24.0176 52.8975 24.1844 52.3953 24.3512C52.3953 24.3512 53.0649 23.3504 53.0649 23.3504ZM51.2235 22.8501C51.2235 22.6833 51.2235 22.5165 51.3909 22.5165C51.7257 22.5165 52.0605 22.5165 52.3953 22.6833C51.8931 22.8501 51.5583 22.8501 51.2235 22.8501ZM46.2014 24.8515C46.034 24.8515 46.034 24.6847 46.2014 24.8515C46.5362 24.518 47.0384 24.3512 47.3732 24.1844C47.2058 24.3512 47.2058 24.6847 47.0384 25.0183C46.871 25.0183 46.5362 25.0183 46.2014 24.8515ZM47.8754 25.3519C48.2102 25.3519 48.3776 25.3519 48.7124 25.3519L50.219 25.6855C50.219 25.6855 50.219 25.8523 50.219 26.0191L48.2102 26.853C48.2102 26.853 48.0428 26.853 47.8754 26.853C47.708 26.5194 47.708 26.1858 47.708 25.8523C47.708 25.8523 47.708 25.5187 47.8754 25.3519ZM48.0428 27.5202L48.2102 27.3534L50.219 26.5194L50.3865 26.6862C50.3865 26.6862 50.3865 26.6862 50.3865 26.853L49.2146 28.6877L49.0472 28.8545C48.7124 28.3541 48.3776 28.0205 48.0428 27.5202ZM53.5671 28.3541C53.5671 28.3541 53.3997 28.3541 53.3997 28.1873L52.0605 26.5194C52.0605 26.5194 52.0605 26.3526 52.2279 26.3526C52.2279 26.3526 52.2279 26.3526 52.3953 26.3526L54.4041 26.853L54.5715 27.0198C54.2367 27.5202 54.0693 28.0205 53.5671 28.3541ZM54.5715 26.6862C54.5715 26.6862 54.4041 26.6862 54.2367 26.6862L52.2279 26.1858V26.0191C52.2279 26.0191 52.2279 26.0191 52.2279 25.8523L54.2367 25.0183C54.2367 25.0183 54.4041 25.0183 54.5715 25.0183C54.7389 25.3519 54.7389 25.6855 54.7389 26.0191C54.5715 26.1858 54.5715 26.3526 54.5715 26.6862ZM54.2367 24.518L52.0605 25.5187L51.8931 25.3519C51.8931 25.3519 51.8931 25.3519 51.8931 25.1851L52.0605 24.8515C52.7301 24.6847 53.3997 24.518 54.0693 24.1844C54.2367 24.3512 54.2367 24.3512 54.2367 24.518ZM59.761 21.5158C58.924 22.1829 59.2588 23.0169 58.7566 23.1836C58.5892 23.1836 57.4174 23.3504 57.25 23.5172C56.9152 23.1836 56.413 22.8501 55.9108 22.6833C56.9152 22.0161 58.7566 21.6825 59.761 21.5158ZM56.0782 23.1836C55.9108 23.3504 55.4085 23.5172 54.5715 23.684C54.4041 23.3504 54.2367 23.1836 53.9019 23.0169C54.9063 22.8501 55.5759 23.0169 56.0782 23.1836ZM65.9549 11.5084C64.6157 13.0095 64.7831 15.011 64.9505 16.6789C64.6157 16.8457 64.2809 17.1792 63.9461 17.1792C63.7787 15.1778 64.1135 12.1756 65.9549 11.5084ZM31.3025 12.1756C31.1351 11.842 30.8003 11.3416 30.9677 11.0081C31.1351 10.8413 31.6373 11.0081 31.8047 11.0081C31.9721 11.1748 33.4787 12.0088 33.981 12.0088C37.1616 12.8427 41.1793 11.6752 43.5229 13.8435C43.6903 14.0103 43.6903 14.0103 43.6903 14.177C40.0075 12.0088 34.4832 15.6781 31.3025 12.1756ZM34.1484 16.3453C34.4832 16.5121 34.4832 16.8457 34.818 17.1792C35.3202 18.0132 36.1572 18.18 36.6594 18.8471C36.492 18.8471 36.3246 18.8471 36.1572 18.8471C35.8224 18.8471 35.655 18.6803 35.4876 18.5136C35.3202 18.3468 34.9854 18.18 34.818 18.3468C34.6506 18.3468 33.981 18.3468 33.6461 18.18C33.6461 17.6796 34.3158 17.0125 34.1484 16.3453ZM30.4655 23.0169L31.4699 24.0176C30.8003 24.0176 30.1307 24.0176 29.4611 24.0176V23.8508C29.6285 23.5172 29.7959 23.3504 29.9633 23.1836C30.1307 23.0169 30.2981 23.0169 30.4655 23.0169ZM36.1572 23.1836C36.3246 23.3504 36.3246 23.5172 36.492 23.684C35.9898 23.684 35.4876 23.8508 34.9854 23.8508L35.655 23.1836C35.9898 23.1836 36.1572 23.1836 36.1572 23.1836ZM35.4876 23.0169L34.4832 23.8508C34.1484 23.8508 33.981 23.8508 33.6461 23.8508L34.1484 22.6833C34.6506 22.6833 35.1528 22.6833 35.4876 23.0169C35.655 23.0169 35.655 23.0169 35.4876 23.0169ZM35.3202 28.5209C34.9854 28.8545 34.4832 29.0213 33.981 29.188C33.981 29.188 33.8136 29.0213 33.6461 28.8545L33.3113 26.6862C33.3113 26.6862 33.4787 26.6862 33.4787 26.5194L34.9854 28.1873C35.3202 28.3541 35.3202 28.5209 35.3202 28.5209ZM31.9721 24.6847C31.9721 24.8515 31.9721 24.8515 31.8047 24.8515L30.1307 24.1844C30.6329 24.1844 31.1351 24.1844 31.6373 24.1844C31.8047 24.3512 31.9721 24.6847 31.9721 24.6847ZM33.6461 24.518L33.4787 24.3512V24.1844H34.1484L33.6461 24.518C33.8136 24.518 33.8136 24.518 33.6461 24.518ZM33.3113 24.0176C33.1439 24.0176 32.9765 24.0176 32.8091 24.0176L32.6417 22.6833H32.8091C33.1439 22.6833 33.4787 22.6833 33.6461 22.6833L33.3113 24.0176ZM32.3069 22.8501L32.4743 24.0176C32.3069 24.0176 31.9721 24.0176 31.8047 24.0176L30.8003 22.8501C31.3025 22.8501 31.8047 22.8501 32.3069 22.8501ZM32.6417 24.3512C32.4743 24.3512 32.4743 24.518 32.4743 24.518L32.3069 24.3512C32.3069 24.3512 32.4743 24.3512 32.6417 24.3512ZM29.1263 24.518C29.1263 24.518 29.2937 24.3512 29.6285 24.3512L31.8047 25.1851V25.3519L29.6285 25.6855C29.4611 25.6855 29.2937 25.6855 29.2937 25.5187C29.2937 25.3519 29.2937 25.3519 29.2937 25.1851C28.9589 25.1851 29.1263 24.8515 29.1263 24.518ZM29.1263 26.5194C29.1263 26.3526 29.2937 26.1858 29.4611 26.1858L31.6373 25.8523V26.0191L30.1307 27.5202C29.9633 27.6869 29.7959 27.6869 29.6285 27.5202C29.4611 27.1866 29.2937 26.853 29.1263 26.5194ZM30.1307 28.1873C30.1307 28.1873 30.1307 27.8537 30.2981 27.6869L32.1395 26.3526L32.3069 26.5194L31.4699 28.6877C31.4699 28.8545 31.1351 29.0213 31.1351 29.0213C30.8003 28.6877 30.4655 28.5209 30.1307 28.1873ZM31.9721 29.188C31.9721 29.188 31.8047 29.0213 31.8047 28.6877L32.6417 26.5194H32.8091L33.3113 28.6877C33.3113 28.8545 33.3113 29.0213 33.1439 29.0213C32.9765 29.0213 32.9765 29.0213 32.8091 29.0213C32.6417 29.3548 32.3069 29.3548 31.9721 29.188ZM35.8224 28.0205C35.8224 28.0205 35.4876 28.0205 35.3202 27.8537L33.8136 26.1858C33.8136 26.1858 33.8135 26.0191 33.981 26.0191L36.1572 26.853C36.3246 27.0198 36.492 27.1866 36.492 27.1866C36.3246 27.5202 36.1572 27.8537 35.8224 28.0205ZM36.492 27.0198C36.492 27.0198 36.492 26.853 36.6594 26.853L36.492 27.0198ZM36.8268 26.3526C36.8268 26.3526 36.6594 26.5194 36.3246 26.5194L34.1484 25.6855V25.5187L36.492 25.1851C36.6594 25.1851 36.8268 25.1851 36.8268 25.3519V25.5187C36.8268 25.6855 36.8268 26.0191 36.8268 26.3526ZM36.8268 24.518C36.8268 24.6847 36.6594 24.8515 36.492 24.8515L34.1484 25.1851C34.1484 25.1851 34.1484 25.0183 33.981 25.0183L34.6506 24.518C35.3202 24.518 35.9898 24.3512 36.6594 24.3512C36.6594 24.1844 36.6594 24.3512 36.8268 24.518ZM37.9986 23.3504C38.166 23.3504 38.166 23.5172 37.9986 23.5172C37.8312 23.5172 37.4964 23.684 37.329 23.684C37.1616 23.5172 37.1616 23.3504 36.9942 23.1836C37.329 23.1836 37.6638 23.1836 37.9986 23.3504ZM34.1484 22.5165L34.3158 22.1829C34.3158 22.0161 34.6506 21.8493 34.6506 21.8493C34.9854 22.0161 35.3202 22.1829 35.655 22.5165C35.1528 22.5165 34.6506 22.5165 34.1484 22.5165ZM33.981 21.6825C33.981 21.6825 34.1484 22.0161 34.1484 22.1829L33.981 22.5165C33.6461 22.5165 33.3113 22.5165 32.9765 22.5165C32.8091 22.5165 32.8091 22.5165 32.6417 22.5165L32.4743 22.0161C32.4743 21.8493 32.4743 21.6825 32.6417 21.6825C32.8091 21.6825 32.8091 21.6825 32.9765 21.6825C33.3113 21.5158 33.6461 21.5158 33.981 21.6825ZM31.8047 21.6825C31.9721 21.6825 31.9721 21.8493 32.1395 22.0161V22.3497C31.9721 22.1829 31.8047 22.0161 31.8047 21.6825ZM31.8047 22.5165C31.4699 22.5165 31.1351 22.5165 30.6329 22.6833C30.6329 22.5165 30.6329 22.3497 30.6329 22.3497C30.8003 22.1829 30.9677 22.1829 31.1351 22.0161C31.3025 22.1829 31.4699 22.3497 31.8047 22.5165ZM27.787 23.5172C28.1218 23.3504 28.4567 23.3504 28.7915 23.1836C28.6241 23.3504 28.6241 23.5172 28.4567 23.8508C28.1218 23.8508 27.9544 23.8508 27.6196 23.684C27.6196 23.684 27.6196 23.684 27.787 23.5172ZM96.9245 12.5092C97.0919 12.6759 97.0919 12.6759 97.2593 12.8427C97.2593 12.8427 97.2593 12.8427 97.2593 12.6759C97.2593 12.5092 97.0919 12.3424 96.9245 12.5092Z" fill="white"/>
<path d="M94.0801 29.1808H90.3972C90.3972 29.3476 90.5646 29.6812 90.732 29.848H94.7497L95.9215 29.3476C96.0889 28.8473 95.7541 28.3469 95.7541 28.0133C95.7541 26.8458 95.0845 25.6783 94.7497 24.5107C94.9171 24.344 95.2519 23.6768 95.5867 23.8436C96.4237 25.1779 96.5911 26.8458 96.4237 28.6805C96.2563 29.1808 95.5867 29.5144 95.5867 29.848C95.5867 30.0148 96.5911 29.848 96.9259 29.5144C96.9259 29.1808 97.4281 28.8473 97.5955 28.8473C97.7629 28.3469 97.4281 28.3469 97.5955 28.0133C97.7629 27.8465 97.5955 25.5115 97.4281 25.1779C97.4281 25.1779 97.4281 25.1779 97.2607 25.1779C97.0933 24.6775 97.5955 24.0104 97.7629 23.51L99.1022 23.3432C98.9348 22.1757 98.6 21.0082 98.2651 19.8407C98.4326 19.5071 98.7673 19.3403 98.9348 19.1735C100.274 18.3396 99.1022 16.8385 99.1022 15.6709C98.9348 15.1706 98.0977 14.6702 97.9303 14.0031C98.0977 14.1698 98.2651 14.0031 98.2651 14.1698C98.6 13.8363 98.6 13.5027 98.4326 13.0023C99.1022 12.3352 99.437 12.0016 99.437 11.8348C99.437 11.1676 98.4325 10.3337 97.9303 10.3337C97.5955 10.5005 97.4281 10.8341 96.7585 11.3344C96.7585 11.3344 96.0889 11.1676 95.7541 11.3344C95.5867 11.5012 95.5867 12.0016 95.9215 12.3352C95.9215 12.502 95.7541 12.502 95.7541 12.6687C95.7541 12.8355 95.7541 12.8355 95.7541 12.8355C95.9215 13.0023 95.9215 13.1691 95.7541 13.3359C95.5867 13.6695 95.9215 13.8363 96.0889 13.8363C96.0889 13.8363 96.0889 13.8363 96.2563 14.0031C96.2563 14.3366 95.2519 14.837 95.2519 15.1706C95.0845 15.8377 94.7497 15.8377 94.2475 18.3396C94.2475 19.0067 94.2475 19.5071 94.2475 19.8407C93.7453 21.3418 93.2431 22.1757 92.9082 23.1764C92.5734 24.0104 94.4149 26.5122 94.4149 28.1801C94.4149 29.014 94.0801 29.014 94.0801 29.1808ZM96.9259 26.5122C96.7585 26.3454 96.7585 26.0118 96.7585 25.6783C96.9259 25.5115 97.2607 25.6783 97.2607 25.6783C97.5955 26.5122 97.5955 26.679 96.9259 26.5122ZM96.9259 14.6702L97.0933 14.5034C97.5955 14.1698 97.2607 14.3366 96.7585 14.1698C96.5911 14.0031 96.5911 13.8363 96.5911 13.6695C96.5911 13.3359 96.4237 13.3359 96.4237 13.1691C96.4237 13.1691 96.4237 13.0023 96.5911 12.8355C96.7585 12.6687 96.7585 12.1684 96.9259 12.1684C97.9303 12.1684 97.5955 12.6687 97.7629 12.6687C97.7629 12.8355 98.2651 13.3359 98.4326 13.5027C98.4326 14.0031 97.9303 13.6695 98.0977 14.3366C98.0977 15.3374 96.9259 15.1706 96.4237 16.0045C96.0889 15.0038 96.9259 15.0038 96.9259 14.6702ZM95.9215 18.8399C96.2563 19.0067 96.4237 19.3403 96.5911 19.3403C96.7585 19.6739 96.2563 19.6739 96.0889 19.8407C95.7541 19.8407 95.5867 19.5071 95.4193 19.6739H95.0845C95.2519 19.5071 95.5867 19.0067 95.9215 18.8399ZM93.5779 23.8436C93.4105 23.1764 94.4149 22.1757 94.9171 20.0074C95.0845 19.8407 95.2519 20.5078 95.5867 20.341C96.0889 20.341 95.9215 21.8421 96.4237 20.8414C96.4237 20.5078 96.4237 20.0074 96.7585 19.8407C97.0933 19.8407 97.2607 20.0074 97.4281 20.1742L96.9259 21.0082C97.9303 21.0082 96.5911 22.6761 97.9303 22.3425C97.9303 23.0096 97.5955 24.6775 97.2607 24.5107C97.0933 23.51 96.9259 24.0104 96.9259 24.1772C96.9259 24.5107 96.9259 24.8443 97.0933 25.1779C97.0933 25.1779 96.7585 25.1779 96.7585 25.3447C96.0889 24.344 96.0889 22.8429 95.5867 21.6753L95.4193 21.8421C95.4193 22.5093 95.0845 23.51 94.5823 23.8436C94.2475 24.0104 95.4193 23.8436 94.4149 24.344C94.7497 24.5107 94.4149 24.8443 94.0801 24.8443C93.9127 24.5107 93.7453 24.1772 93.5779 23.8436ZM94.5823 26.1786C94.4149 26.0118 94.2475 25.5115 94.0801 25.3447L94.5823 25.1779C94.7497 25.3447 94.9171 25.6783 94.9171 26.0118C94.9171 26.0118 94.7497 26.1786 94.5823 26.1786ZM77.005 15.0038C77.005 13.8363 77.3398 13.0023 76.8376 11.8348C76.8376 11.3344 77.1724 11.0009 77.1724 10.5005L76.3353 10.6673C76.1679 11.668 76.0005 11.8348 76.1679 12.8355C76.3353 13.8363 76.5028 14.6702 77.005 15.0038ZM68.3 18.1728C71.4807 17.3388 73.8243 16.5049 76.3353 15.3374C75.1635 13.0023 75.4983 12.3352 75.4983 10.8341C75.4983 10.8341 74.1591 10.8341 72.4851 10.5005C70.811 11.5012 68.6348 15.8377 68.3 18.1728ZM79.3486 18.8399C79.516 18.8399 79.1812 18.6731 79.3486 18.8399ZM83.1989 11.668C81.8596 10.6673 80.8552 8.49902 79.3486 8.66581C79.1812 6.99792 78.5116 4.3293 80.6878 1.49389C81.0226 1.3271 81.5248 1.3271 81.6922 1.16031C80.8552 0.993526 79.516 1.66068 78.679 1.16031C78.679 1.16031 79.0138 1.82747 79.516 1.99426C79.3486 2.32784 78.679 2.66141 79.0138 3.32857C78.3442 3.82894 78.5116 4.49609 78.8464 4.82967C78.5116 5.16325 78.1768 5.8304 78.679 6.33077C78.0094 6.99792 78.8464 7.49829 79.0138 7.66508C78.679 8.33223 79.0138 8.8326 79.0138 8.8326C79.0138 9.33297 78.1768 10.0001 77.842 10.1669C77.5072 11.3344 77.6746 13.5027 77.6746 14.837C79.6834 13.8363 81.6922 13.0023 83.1989 11.668ZM60.0973 50.0294C60.0973 48.8619 59.2602 47.5276 58.2558 46.8604C57.921 46.6937 57.7536 46.6937 57.4188 46.5269C57.7536 46.5269 58.0884 46.5269 58.4232 46.3601C59.4276 45.8597 60.7669 44.5254 60.7669 42.1904C60.7669 40.5225 60.0973 39.0214 58.758 38.1874C57.5862 37.3535 56.247 37.1867 54.7404 37.1867H43.8592V40.0221H46.3702V54.0324H43.8592V56.8678H51.7271V54.0324H49.2161V47.8612H54.573C56.4144 47.8612 57.084 49.0287 57.2514 50.1962L57.4188 56.8678H62.7757V54.0324H60.2647L60.0973 50.0294ZM55.0752 45.1926H49.0487V40.0221H54.7404C55.2426 40.0221 56.0796 40.0221 56.5818 40.3557C57.2514 40.6893 57.921 41.5232 57.921 42.6907C58.0884 44.1918 56.7492 45.1926 55.0752 45.1926ZM42.8547 63.7061H39.1719V74.881H40.8459V70.0441H42.6873C45.3658 70.0441 46.5376 68.7098 46.5376 66.8751C46.5376 65.2072 45.3658 63.7061 42.8547 63.7061ZM42.8547 68.7098H40.8459V65.2072H42.8547C44.3614 65.2072 44.8636 66.0412 44.8636 66.8751C44.8636 68.0426 44.0266 68.7098 42.8547 68.7098ZM52.8989 63.7061L47.8768 74.881H49.7183L51.0575 71.5452H55.9122L57.2514 74.881H59.0928L53.9033 63.7061H52.8989ZM51.7271 70.2109L53.4011 65.8744L55.2426 70.2109H51.7271ZM76.3353 63.7061H78.0094V74.881H76.3353V63.7061ZM84.8729 66.3747C84.8729 65.5408 85.7099 65.0404 86.8817 65.0404C87.7188 65.0404 88.7232 65.374 89.7276 66.2079V64.3733C88.8906 63.8729 87.8862 63.5393 87.0491 63.5393C84.8729 63.5393 83.3663 64.7068 83.3663 66.5415C83.3663 69.5437 88.7232 69.8773 88.7232 72.2123C88.7232 72.8795 88.0536 73.5466 86.7143 73.5466C85.5425 73.5466 84.3707 73.0463 83.5337 71.8788V73.8802C84.5381 74.5474 85.5425 74.881 86.8817 74.881C88.8906 74.881 90.2298 73.5466 90.2298 71.8788C90.0624 68.543 84.8729 68.543 84.8729 66.3747ZM70.4762 72.7127C69.6392 71.3784 68.9696 70.2109 67.7978 69.5437C69.137 69.0434 69.8066 68.0426 69.8066 66.8751C69.8066 64.8736 68.3 63.7061 65.9564 63.7061H62.9431V74.881H64.6171V70.0441H65.2867C66.1238 70.0441 66.7934 70.3777 68.4674 72.5459L69.974 74.881H71.9829L71.1459 73.5466C70.811 73.3799 70.6436 73.0463 70.4762 72.7127ZM65.6216 68.543H64.6171V65.0404H65.6216C67.2956 65.0404 67.9652 65.7076 67.9652 66.7083C67.9652 67.709 67.463 68.543 65.6216 68.543Z" fill="white"/>
</g>
<defs>
<clipPath id="clip0_291_484">
<rect width="130" height="75" fill="white"/>
</clipPath>
</defs>
</svg>
