<?xml version="1.0" encoding="UTF-8"?>
<svg fill="none" viewBox="0 0 130 75" xmlns="http://www.w3.org/2000/svg">
<g clip-path="url(#a)" fill="#F37021">
<path d="m11.718 40.192h2.5111v4.67h-8.8724v-4.67h2.511v-2.8355h-7.8679v2.8355h2.511v14.01h-2.511v2.8354h7.8679v-2.8354h-2.511v-6.5047h8.8724v6.5047h-2.5111v2.8354h7.868v-2.8354h-2.5111v-14.01h2.5111v-2.8355h-7.868m95.085 16.679h-7.7004v-6.5047h6.6964v-2.8354h-6.6964v-4.6701h7.8684v2.6686h2.678v-5.504h-16.071v2.8354h2.6785v14.01h-2.6785v2.8354h16.071v-6.5047h-2.846m-67.296 0h-2.8458v3.6693h-7.7006v-6.5047h6.6961v-2.8354h-6.6961v-4.6701h7.868v2.6686h2.6784v-5.504h-16.071v2.8354h2.6785v14.01h-2.6785v2.8354h16.071m60.265-20.515h5.6918l-1.507-1.6679h-5.8588m27.119 11.008c-2.008-0.5004-3.348-0.5004-5.356-1.1675-1.842-0.6672-2.177-1.6679-2.177-2.5019 0-0.6671 0.837-2.6686 3.683-2.6686s4.688 1.8347 4.855 3.5026h2.678v-5.6708h-2.678v1.5011s-0.168-0.1668-0.335-0.5004c-0.837-0.834-2.511-1.5011-4.855-1.5011-2.845 0-6.361 1.8347-6.361 5.3372 0 3.3358 2.511 4.5033 4.52 5.1705 2.009 0.5003 3.181 0.5003 4.855 1.0007s2.846 1.5011 2.846 3.0022-0.838 3.3358-4.52 3.3358c-3.683 0-5.19-2.0015-5.525-4.8369h-2.678v6.8384h2.678v-1.3344l-0.167-0.3335s0.167 0.1668 0.335 0.5003c1.339 1.0008 3.18 1.6679 5.524 1.6679 2.511 0 7.031-1.3343 7.031-6.0044 0.335-3.0022-1.339-4.5033-4.353-5.3372zm-43.357 8.3394v2.8354h8.0353v-2.8354h-2.6784v-14.01h2.6784v-2.8354h-7.1983l-4.6873 11.342-0.1674 0.5004-0.1674-0.5004-4.6873-11.342h-7.1983v2.8354h2.6785v14.01h-2.6785v2.8354h8.0353v-2.8354h-2.511v-13.677l0.1674 0.6672 5.5243 13.01h1.674l5.5243-13.01 0.1674-0.6672v13.844m-57.084-25.018v0.6671h2.6784c-0.3348-0.1667-0.5022-0.3335-0.837-0.6671h-1.8414zm72.486 0h-1.3392c-0.3348 0-0.6696 0.3336-0.6696 0.6671h2.1762l-0.1674-0.6671zm-72.486 2.5018h72.486v-1.3343h-46.705c-1.1719 0.5004-2.6785 0.5004-3.8503 0h-14.062c-1.3392 0.6672-2.8458 0.5004-4.185 0h-3.6829v1.3343zm20.423-2.5018h-10.881s-0.5022 0.5004-0.6696 0.6671h12.388c-0.5022-0.3335-0.6696-0.5003-0.837-0.6671z"/>
<path d="m28.457 24.184c-0.1674 0.5003-0.1674 0.8339-0.1674 1.3343 0 2.5018 2.1762 4.6701 4.8546 4.5033 2.5111 0 4.5199-2.0015 4.5199-4.5033 0-0.5004-0.1674-1.0007-0.3348-1.5011 0.5022-0.1668 1.0044-0.1668 1.5066-0.3336 0.1674 0 0.1674-0.1668 0-0.1668-0.6696-0.1668-1.5066-0.3336-2.1762-0.5003-0.837-1.1676-2.3436-2.0015-3.8503-2.0015-0.6696 0-1.1718 0.1668-1.674 0.3336-0.1674-0.3336-0.1674-0.834 0-1.3343 0.5022-0.834 1.5066-1.0008 2.3436-1.1676 0.3349 0 1.0045 0 1.0045 0.1668 0.1674 0.1668 0.5022 0.1668 0.837 0l0.6696 0.3336c3.0132 1.0007 6.3613 1.5011 9.542 1.0007 0.5022 0.5004 0.837 1.3343 1.1718 2.0015 0.1674 0.1668 0.1674-0.1668 1.8414-0.1668h1.8415c-1.3393 0.1668-2.3437 0.834-3.0133 1.8347-1.0044 0.3336-1.8414 0.6671-2.1762 0.8339 0 0 0 0.1668 0.3348 0.1668 0.5022 0.1668 1.0044 0.1668 1.5066 0.3336v0.6672c0 2.335 1.8414 4.1697 4.1851 4.1697 2.3436 0 4.185-1.8347 4.185-4.1697 0-0.6672-0.1674-1.3344-0.5022-2.0015 0.5022-0.1668 1.0044-0.3336 1.6741-0.6672 0.5022 0.1668 0.837 0.5004 1.0044 0.834 0.3348 0.3336 0.837 0.1668 1.1718 0.1668 0.5022-0.1668 0.6696-0.6672 0.6696-1.1676 0-0.1667 0-0.5003 0.1674-0.6671 0.6696-1.5011 3.3481-1.6679 4.6873-2.0015 0 0-0.6696 0.834-1.1718 1.0008-0.1674 2.1682-1.0044 4.1697-1.0044 6.3379 0.6696 0 0.6696 0.834 0.837 1.1676-0.1674 0.3335-0.5022 0-0.837 0.1667-1.0045-0.5003 0.1674-1.5011-0.5022-2.1682 0.3348-1.8347 1.1718-3.5026 1.0044-5.3373-0.3348 0-0.3348 0.3336-0.5022 0.5004-0.1674 1.8347-0.6696 3.5026-1.1719 5.0037 0.1674 0.1668 0.5023 0.1668 0.5023 0.5003-0.6697 0.3336-1e-4 1.0008-0.1675 1.5011h-6.3613l-0.6696 0.6672h9.8768l0.1674-0.3336c-1.5066-1.5011-0.837-3.8361-0.1674-5.504l1.674-2.3351c1.3393-0.5003 2.3437-2.335 3.6829-2.8354 0 0.6672-0.837 1.0008-1.3392 1.5011-0.5022 1.1676-2.1763 1.3343-2.3437 2.6687 0.6696 0.6671 1.5067 1.1675 2.3437 1.8346 0.837 0.5004 0.5022 1.5011 1.1718 2.0015 0.1674 0.1668 0 0.3336-0.1674 0.5004-0.6696 0.1668-0.6696 0.6671-0.1674 1.0007 0.3348 0.1668 0.5022 0.5004 0.5022 0.6672h-4.5199c0 0.1667 0.1674 0.3335 0.3348 0.6671h25.11c0.1674-0.3336-0.1674-0.8339-0.3348-1.1675-1.8415-0.6672-1.8415-2.3351-1.8415-4.1697 0 0-0.1674-0.1668 0-0.6672-0.3348-0.1668-1.5066-3.169-0.837-5.504l0.3348-0.834c0.3348-0.5003 0-0.8339 0.1674-1.3343l5.3569-1.0007c0.1674 0 0-0.3336 0-0.3336l-1.674 0.3336c-1.3392-0.5004-3.1807-1.6679-4.3525-3.3358 0.3348-2.6686 0.1674-4.6701 0-6.1712 0.837-0.66715 1.3392-1.1675 1.3392-1.1675 0.5023 0.33358 0.6697 0.16679 0.6697 0-0.1674-0.16679-0.8371-0.50037-0.6697-0.83395 0.5023 0.16679 0.6697 0 0.6697-0.33357l-1.0045 0.16679v-0.16679c0.1674-0.16679 0.5022 0 0.8371 0 0.3348-0.16679 0-0.50037 0-0.66716-0.6697-0.83394-2.0089-0.83394-2.8459-1.3343-0.1674-0.50036-0.3348-0.66715-0.6696-0.83394-0.1674-0.33358-1.3392-0.33358-1.674-0.33358-0.1674 0-0.6697 0.50037-0.6697 0.50037-0.6696 0.16679-1.1718-0.16679-1.8414-0.50037 0 0 0.1674 0.66716 0.837 1.0007-0.5022 0.16679-0.837 0.66716-1.0044 1.3343-0.6696 0.16679-0.837 1.0007-0.6696 1.3343-0.6696 0.33358-0.6696 0.83395-0.3348 1.5011-0.5022 0.33358-0.5022 1.0007-0.3348 1.3343-0.5022 0.33358 0 1.1675 0 1.6679 1.3392-0.33358 3.1806 2.8354 5.6917 3.169 0.5022-2.1682-0.1674-3.3357-0.6696-4.3365 0.5022-0.33358 0.837-0.66716 1.3392-1.0007 0.3348 1.3343 0.5022 3.5026 0.1674 5.6708-0.1674 0-0.3348-0.1668-0.5022-0.1668 0 0 0.3348 0.5004 0.3348 0.6672 0 0-0.837 0.5003-2.511-0.1668-0.5023 1.0007-6.0266 3.5026-6.0266 3.5026 0.1675 1.5011 1.0045 2.5018 1.6741 3.3357 1.1718 0.834 2.511 1.3343 4.0176 1.6679 0.3349 0.834 1.3393 3.5026 1.5067 4.003 0.1674 0.5003 0.3348 0.5003 0.3348 0.5003 0.1674 0.1668 0.6696 1.0008 0.6696 1.5011l0.1674 1.5011c0 0.3336 0.5022 0 0.5022 0.3336l-0.1674 1.0007h-16.74c0.1674-1.1675-0.3348-2.1682 0-3.169-0.6696-1.1675-2.511-2.0014-2.1762-3.5025 0.837-1.1675 3.6828-2.3351 3.0132-3.8362 2.5111-1.3343 3.8503 0.834 6.1939 0.6672 0.837 0 1.6741-0.1668 2.5111-0.3336-1.0044-0.8339-1.8415-2.0015-2.3437-3.0022-5.0221 2.0015-9.7093 3.6694-15.234 4.6701l-0.3349-0.1668c-0.3348 0-6.3613 1.3343-7.8679 2.0015-0.3348-0.1668-0.837-0.5004-1.3392-0.5004h0.1674c0.5022 0 1.3392-0.3336 1.8414-0.5004 2.3437-0.8339 3.1807-4.1697 4.1851-6.1711 0.837 3.1689 3.0132 3.5025 4.1851 3.1689l0.1674 1.0008s1.0044 0 1.8414-0.3336c0-0.1668-0.1674-0.6672-0.3348-1.3343 0.5022-0.1668 0.6696-0.5004 1.0044-0.5004 0 0.834 0.1674 1.5011-0.1674 1.8347l2.6785-0.6672c0.5022-2.335 2.0088-5.6708 4.5198-8.0058-3.348-1.3343-5.8591 0.1668-6.5287 0.8339-3.1806 1.0008-3.348 5.3373-3.1806 7.0052-0.5022 0.1667-2.8459 0.8339-4.0177-3.169 0.5022-2.0015 1.674-3.6694 3.1807-5.0037 0.1674-0.1668 0-0.3336-0.3349-0.1668-2.6784 1.8347-3.6828 5.1705-5.1894 8.0059-1.1719 1.6679-2.6785 2.6686-5.0221 2.5018-2.8459 0-4.3525-3.0022-5.6917-5.0037-2.0089-4.5033-7.3658-2.8354-11.383-3.8361-0.1675-0.1668-0.6697-1.3343-1.3393-1.3343-0.5022 0 0 0.5004-0.3348 0.6671-0.5022-0.1667-0.837-0.5003-1.5066-0.5003-0.3348 0-0.5022 0.5004-0.5022 0.8339 0.3348 1.5011 1.8414 2.0015 3.0132 2.5019 0.5022 0.6671 0.3348 2.8354-0.1674 3.6693-0.5022 0.834-2.3436 0.5004-2.6784 2.5018 0 0.3336 0 0.834 0.1674 1.0008-0.6696 0.3336-1.3392 1.0007-1.8414 1.6679-0.8371 0.1668-1.5067 0.3335-2.3437 0.6671-0.1674 0-0.1674 0.1668 0 0.1668 0.837 0.3336 1.5066 0.3336 2.0089 0.5004zm58.591-11.175c0.6696 0.6672 2.3437 1.8347 3.3481 2.1683l-3.0133 0.5003c0.3348-1.1675-0.837-1.6678-0.3348-2.6686zm0.3348-10.174c0.1674 0 0.5022 0 0.5022 0.16679v0.33358c-0.1674 0-0.5022 0-0.5022-0.16679-0.1674-0.16679-0.1674-0.33358 0-0.33358zm0 0.66715c0 0.16679 0.1674 0.50037 0.3348 0.66716 0 0.16679-0.5022 0.66716-1.1718 1.1675-0.1674-0.83394-0.3348-1.3343-0.3348-1.5011s0.837-0.33358 1.1718-0.33358zm-2.8458-2.6686h0.3348v0.33358l-0.3348 0.16679s-0.3348-0.16679-0.3348-0.33358c0.1674 0 0.1674-0.16679 0.3348-0.16679zm0.3348 5.8376c-0.3348-0.66715-0.6696-1.5011-0.5022-2.5018 0.3348 0 0.837 0.16679 1.5066 0 0 0 0.1674 0.66716 0.3348 1.6679-0.5022 0.16679-1.0044 0.50036-1.3392 0.83394zm-4.5199 12.342c-1.0044-0.5003-0.3348-0.1668-0.1674-0.3336 1.674 0.834 2.511 0.6672 3.8503 0.5004 0.1674 0.1668 0.5022 0.5004 0.5022 0.834-1.6741 0.3335-2.8459-0.1668-4.1851-1.0008zm6.0265 8.3395c-0.1674-0.834-0.1674-1.3343-0.5022-1.8347-0.3348-0.834-1.1718-3.169-1.8414-5.1705 0.3348-0.3335 0.6696-0.1668 0.837 0.834 0.1674 0.8339 0.5022 1.5011 0.6696 2.1682 0.3348 0.6672 0.5022 1.6679 0.6696 2.1683 0 0 0.1674 0 0.3348 0.3336 0.5022 1.5011 0.6696 1.8346 0.6696 2.5018 0.1674 0.5004 1.0044 0.1668 0.837 0.8339h-1.674 0.6696c-0.1674-0.6671 0.1674-1.3343-0.6696-1.8346zm-33.146 1.3343c-0.5022 0.3336-1.0044 0.5003-1.674 0.6671l-0.1674-0.1668-0.1674-2.1682s0.1674 0 0.3348-0.1668h0.1674l1.3392 1.6679c0.1674 0 0.1674 0.1668 0.1674 0.1668zm-2.1762 0.6671c-0.5022 0-1.1719-0.1668-1.5067-0.5003v-0.3336l1.1719-1.8347h0.1674l0.1674 2.1683c0.1674 0.3335 0.1674 0.5003 0 0.5003zm-2.8459-4.3365-0.1674-0.1668c0.1674-0.3335 0.1674-0.5003 0.5022-0.8339 0.3348 0 0.5022-0.1668 0.837-0.1668l0.837 1.1675c-0.6696 0-1.1718 0.1668-1.674 0.1668l-0.3348-0.1668zm2.5111-2.5018 0.1674 0.1668v0.1668c-0.5023 0.1668-1.1719 0.1668-1.6741 0.3335v-0.1667c0.5022-0.1668 1.0044-0.3336 1.5067-0.5004zm-0.1674 2.335-1.0045-1.1675c0.5022-0.1668 1.0045-0.1668 1.3393-0.3336v1.3343c0 0.1668-0.1674 0.1668-0.3348 0.1668zm-0.1674 0.3336c0 0.1668-0.1675 0.1668-0.1675 0.1668h-0.1674l-0.6696-0.1668c0.5022 0.1668 0.6696 0.1668 1.0045 0zm0.837-0.5004v-1.3343c0.5022-0.1668 1.1718-0.1668 1.674-0.3335v0.1667l-0.837 1.3344c-0.3348 0-0.5022 0.1667-0.837 0.1667zm1.8414-1.3343 0.1674-0.1668c0.1674 0.1668 0.5022 0.3336 0.6696 0.6672l-1.5066 0.5004 0.6696-1.0008zm-1.8414-0.5003c0-0.1668 0-0.3336 0.1674-0.3336 0.3348 0 0.6696 0 1.0044 0.1668-0.5022 0.1668-0.837 0.1668-1.1718 0.1668zm-5.0221 2.0014c-0.1674 0-0.1674-0.1668 0 0 0.3348-0.3335 0.837-0.5003 1.1718-0.6671-0.1674 0.1668-0.1674 0.5003-0.3348 0.8339-0.1674 0-0.5022 0-0.837-0.1668zm1.674 0.5004h0.837l1.5066 0.3336v0.3336l-2.0088 0.8339h-0.3348c-0.1674-0.3336-0.1674-0.6672-0.1674-1.0007 0 0 0-0.3336 0.1674-0.5004zm0.1674 2.1683 0.1674-0.1668 2.0088-0.834 0.1675 0.1668v0.1668l-1.1719 1.8347-0.1674 0.1668c-0.3348-0.5004-0.6696-0.834-1.0044-1.3343zm5.5243 0.8339s-0.1674 0-0.1674-0.1668l-1.3392-1.6679s0-0.1668 0.1674-0.1668h0.1674l2.0088 0.5004 0.1674 0.1668c-0.3348 0.5004-0.5022 1.0007-1.0044 1.3343zm1.0044-1.6679h-0.3348l-2.0088-0.5004v-0.1667-0.1668l2.0088-0.834h0.3348c0.1674 0.3336 0.1674 0.6672 0.1674 1.0008-0.1674 0.1667-0.1674 0.3335-0.1674 0.6671zm-0.3348-2.1682-2.1762 1.0007-0.1674-0.1668v-0.1668l0.1674-0.3336c0.6696-0.1668 1.3392-0.3335 2.0088-0.6671 0.1674 0.1668 0.1674 0.1668 0.1674 0.3336zm5.5243-3.0022c-0.837 0.6671-0.5022 1.5011-1.0044 1.6678-0.1674 0-1.3392 0.1668-1.5066 0.3336-0.3348-0.3336-0.837-0.6671-1.3392-0.8339 1.0044-0.6672 2.8458-1.0008 3.8502-1.1675zm-3.6828 1.6678c-0.1674 0.1668-0.6697 0.3336-1.5067 0.5004-0.1674-0.3336-0.3348-0.5004-0.6696-0.6671 1.0044-0.1668 1.674 0 2.1763 0.1667zm9.8767-11.675c-1.3392 1.5011-1.1718 3.5026-1.0044 5.1705-0.3348 0.1668-0.6696 0.5003-1.0044 0.5003-0.1674-2.0014 0.1674-5.0036 2.0088-5.6708zm-34.652 0.6672c-0.1674-0.3336-0.5022-0.834-0.3348-1.1675 0.1674-0.1668 0.6696 0 0.837 0 0.1674 0.1667 1.674 1.0007 2.1763 1.0007 3.1806 0.8339 7.1983-0.3336 9.5419 1.8347 0.1674 0.1668 0.1674 0.1668 0.1674 0.3335-3.6828-2.1682-9.2071 1.5011-12.388-2.0014zm2.8459 4.1697c0.3348 0.1668 0.3348 0.5004 0.6696 0.8339 0.5022 0.834 1.3392 1.0008 1.8414 1.6679h-0.5022c-0.3348 0-0.5022-0.1668-0.6696-0.3335-0.1674-0.1668-0.5022-0.3336-0.6696-0.1668-0.1674 0-0.837 0-1.1719-0.1668 0-0.5004 0.6697-1.1675 0.5023-1.8347zm-3.6829 6.6716 1.0044 1.0007h-2.0088v-0.1668c0.1674-0.3336 0.3348-0.5004 0.5022-0.6672 0.1674-0.1667 0.3348-0.1667 0.5022-0.1667zm5.6917 0.1667c0.1674 0.1668 0.1674 0.3336 0.3348 0.5004-0.5022 0-1.0044 0.1668-1.5066 0.1668l0.6696-0.6672h0.5022zm-0.6696-0.1667-1.0044 0.8339h-0.8371l0.5023-1.1675c0.5022 0 1.0044 0 1.3392 0.3336 0.1674 0 0.1674 0 0 0zm-0.1674 5.504c-0.3348 0.3336-0.837 0.5004-1.3392 0.6671 0 0-0.1674-0.1667-0.3349-0.3335l-0.3348-2.1683s0.1674 0 0.1674-0.1668l1.5067 1.6679c0.3348 0.1668 0.3348 0.3336 0.3348 0.3336zm-3.3481-3.8362c0 0.1668 0 0.1668-0.1674 0.1668l-1.674-0.6671h1.5066c0.1674 0.1668 0.3348 0.5003 0.3348 0.5003zm1.674-0.1667-0.1674-0.1668v-0.1668h0.6697l-0.5023 0.3336c0.1675 0 0.1675 0 0 0zm-0.3348-0.5004h-0.5022l-0.1674-1.3343h0.1674 0.837l-0.3348 1.3343zm-1.0044-1.1675 0.1674 1.1675h-0.6696l-1.0044-1.1675h1.5066zm0.3348 1.5011c-0.1674 0-0.1674 0.1668-0.1674 0.1668l-0.1674-0.1668h0.3348zm-3.5154 0.1668s0.1674-0.1668 0.5022-0.1668l2.1762 0.8339v0.1668l-2.1762 0.3336c-0.1674 0-0.3348 0-0.3348-0.1668v-0.3336c-0.3348 0-0.1674-0.3336-0.1674-0.6671zm0 2.0014c0-0.1668 0.1674-0.3336 0.3348-0.3336l2.1762-0.3335v0.1668l-1.5066 1.5011c-0.1674 0.1667-0.3348 0.1667-0.5022 0-0.1674-0.3336-0.3348-0.6672-0.5022-1.0008zm1.0044 1.6679s0-0.3336 0.1674-0.5004l1.8414-1.3343 0.1674 0.1668-0.837 2.1683c0 0.1668-0.3348 0.3336-0.3348 0.3336-0.3348-0.3336-0.6696-0.5004-1.0044-0.834zm1.8414 1.0007s-0.1674-0.1667-0.1674-0.5003l0.837-2.1683h0.1674l0.5022 2.1683c0 0.1668 0 0.3336-0.1674 0.3336h-0.3348c-0.1674 0.3335-0.5022 0.3335-0.837 0.1667zm3.8503-1.1675s-0.3348 0-0.5022-0.1668l-1.5066-1.6679s-1e-4 -0.1667 0.1674-0.1667l2.1762 0.8339 0.3348 0.3336c-0.1674 0.3336-0.3348 0.6671-0.6696 0.8339zm0.6696-1.0007s0-0.1668 0.1674-0.1668l-0.1674 0.1668zm0.3348-0.6672s-0.1674 0.1668-0.5022 0.1668l-2.1762-0.8339v-0.1668l2.3436-0.3336c0.1674 0 0.3348 0 0.3348 0.1668v0.1668 0.8339zm0-1.8346c0 0.1667-0.1674 0.3335-0.3348 0.3335l-2.3436 0.3336s0-0.1668-0.1674-0.1668l0.6696-0.5003c0.6696 0 1.3392-0.1668 2.0088-0.1668 0-0.1668 0 0 0.1674 0.1668zm1.1718-1.1676c0.1674 0 0.1674 0.1668 0 0.1668s-0.5022 0.1668-0.6696 0.1668c-0.1674-0.1668-0.1674-0.3336-0.3348-0.5004 0.3348 0 0.6696 0 1.0044 0.1668zm-3.8502-0.8339 0.1674-0.3336c0-0.1668 0.3348-0.3336 0.3348-0.3336 0.3348 0.1668 0.6696 0.3336 1.0044 0.6672h-1.5066zm-0.1674-0.834s0.1674 0.3336 0.1674 0.5004l-0.1674 0.3336h-1.0045-0.3348l-0.1674-0.5004c0-0.1668 0-0.3336 0.1674-0.3336h0.3348c0.3348-0.1667 0.6696-0.1667 1.0045 0zm-2.1763 0c0.1674 0 0.1674 0.1668 0.3348 0.3336v0.3336c-0.1674-0.1668-0.3348-0.3336-0.3348-0.6672zm0 0.834c-0.3348 0-0.6696 0-1.1718 0.1668v-0.3336c0.1674-0.1668 0.3348-0.1668 0.5022-0.3336 0.1674 0.1668 0.3348 0.3336 0.6696 0.5004zm-4.0177 1.0007c0.3348-0.1668 0.6697-0.1668 1.0045-0.3336-0.1674 0.1668-0.1674 0.3336-0.3348 0.6672-0.3349 0-0.5023 0-0.8371-0.1668l0.1674-0.1668zm69.138-11.008c0.1674 0.1667 0.1674 0.1667 0.3348 0.3335v-0.1668c0-0.1667-0.1674-0.3335-0.3348-0.1667z"/>
<path d="m94.08 29.181h-3.6829c0 0.1668 0.1674 0.5004 0.3348 0.6672h4.0177l1.1718-0.5004c0.1674-0.5003-0.1674-1.0007-0.1674-1.3343 0-1.1675-0.6696-2.335-1.0044-3.5026 0.1674-0.1667 0.5022-0.8339 0.837-0.6671 0.837 1.3343 1.0044 3.0022 0.837 4.8369-0.1674 0.5003-0.837 0.8339-0.837 1.1675 0 0.1668 1.0044 0 1.3392-0.3336 0-0.3336 0.5022-0.6671 0.6696-0.6671 0.1674-0.5004-0.1674-0.5004 0-0.834 0.1674-0.1668 0-2.5018-0.1674-2.8354h-0.1674c-0.1674-0.5004 0.3348-1.1675 0.5022-1.6679l1.3393-0.1668c-0.1674-1.1675-0.5022-2.335-0.8371-3.5025 0.1675-0.3336 0.5022-0.5004 0.6697-0.6672 1.3392-0.8339 0.1674-2.335 0.1674-3.5026-0.1674-0.5003-1.0045-1.0007-1.1719-1.6678 0.1674 0.1667 0.3348 0 0.3348 0.1667 0.3349-0.3335 0.3349-0.6671 0.1675-1.1675 0.6696-0.6671 1.0044-1.0007 1.0044-1.1675 0-0.6672-1.0045-1.5011-1.5067-1.5011-0.3348 0.1668-0.5022 0.5004-1.1718 1.0007 0 0-0.6696-0.1668-1.0044 0-0.1674 0.1668-0.1674 0.6672 0.1674 1.0008 0 0.1668-0.1674 0.1668-0.1674 0.3335v0.1668c0.1674 0.1668 0.1674 0.3336 0 0.5004-0.1674 0.3336 0.1674 0.5004 0.3348 0.5004l0.1674 0.1668c0 0.3335-1.0044 0.8339-1.0044 1.1675-0.1674 0.6671-0.5022 0.6671-1.0044 3.169v1.5011c-0.5022 1.5011-1.0044 2.335-1.3393 3.3357-0.3348 0.834 1.5067 3.3358 1.5067 5.0037 0 0.8339-0.3348 0.8339-0.3348 1.0007zm2.8458-2.6686c-0.1674-0.1668-0.1674-0.5004-0.1674-0.8339 0.1674-0.1668 0.5022 0 0.5022 0 0.3348 0.8339 0.3348 1.0007-0.3348 0.8339zm0-11.842 0.1674-0.1668c0.5022-0.3336 0.1674-0.1668-0.3348-0.3336-0.1674-0.1667-0.1674-0.3335-0.1674-0.5003 0-0.3336-0.1674-0.3336-0.1674-0.5004 0 0 0-0.1668 0.1674-0.3336s0.1674-0.6671 0.3348-0.6671c1.0044 0 0.6696 0.5003 0.837 0.5003 0 0.1668 0.5022 0.6672 0.6697 0.834 0 0.5004-0.5023 0.1668-0.3349 0.8339 0 1.0008-1.1718 0.834-1.674 1.6679-0.3348-1.0007 0.5022-1.0007 0.5022-1.3343zm-1.0044 4.1697c0.3348 0.1668 0.5022 0.5004 0.6696 0.5004 0.1674 0.3336-0.3348 0.3336-0.5022 0.5004-0.3348 0-0.5022-0.3336-0.6696-0.1668h-0.3348c0.1674-0.1668 0.5022-0.6672 0.837-0.834zm-2.3436 5.0037c-0.1674-0.6672 0.837-1.6679 1.3392-3.8362 0.1674-0.1667 0.3348 0.5004 0.6696 0.3336 0.5022 0 0.3348 1.5011 0.837 0.5004 0-0.3336 0-0.834 0.3348-1.0007 0.3348 0 0.5022 0.1667 0.6696 0.3335l-0.5022 0.834c1.0044 0-0.3348 1.6679 1.0044 1.3343 0 0.6671-0.3348 2.335-0.6696 2.1682-0.1674-1.0007-0.3348-0.5003-0.3348-0.3335 0 0.3335 0 0.6671 0.1674 1.0007 0 0-0.3348 0-0.3348 0.1668-0.6696-1.0007-0.6696-2.5018-1.1718-3.6694l-0.1674 0.1668c0 0.6672-0.3348 1.6679-0.837 2.0015-0.3348 0.1668 0.837 0-0.1674 0.5004 0.3348 0.1667 0 0.5003-0.3348 0.5003-0.1674-0.3336-0.3348-0.6671-0.5022-1.0007zm1.0044 2.335c-0.1674-0.1668-0.3348-0.6671-0.5022-0.8339l0.5022-0.1668c0.1674 0.1668 0.3348 0.5004 0.3348 0.8339 0 0-0.1674 0.1668-0.3348 0.1668zm-17.577-11.175c0-1.1675 0.3348-2.0015-0.1674-3.169 0-0.5004 0.3348-0.8339 0.3348-1.3343l-0.8371 0.1668c-0.1674 1.0007-0.3348 1.1675-0.1674 2.1682 0.1674 1.0008 0.3349 1.8347 0.8371 2.1683zm-8.705 3.169c3.1807-0.834 5.5243-1.6679 8.0353-2.8354-1.1718-2.3351-0.837-3.0022-0.837-4.5033 0 0-1.3392 0-3.0132-0.3336-1.6741 1.0007-3.8503 5.3372-4.1851 7.6723zm11.049 0.6671c0.1674 0-0.1674-0.1668 0 0zm3.8503-7.1719c-1.3393-1.0007-2.3437-3.169-3.8503-3.0022-0.1674-1.6679-0.837-4.3365 1.3392-7.1719 0.3348-0.16679 0.837-0.16679 1.0044-0.33358-0.837-0.16678-2.1762 0.50037-3.0132 0 0 0 0.3348 0.66716 0.837 0.83395-0.1674 0.33358-0.837 0.66715-0.5022 1.3343-0.6696 0.50037-0.5022 1.1675-0.1674 1.5011-0.3348 0.33358-0.6696 1.0007-0.1674 1.5011-0.6696 0.66715 0.1674 1.1675 0.3348 1.3343-0.3348 0.66715 0 1.1675 0 1.1675 0 0.50037-0.837 1.1675-1.1718 1.3343-0.3348 1.1675-0.1674 3.3358-0.1674 4.6701 2.0088-1.0007 4.0176-1.8347 5.5243-3.169zm-23.102 38.361c0-1.1675-0.8371-2.5018-1.8415-3.169-0.3348-0.1667-0.5022-0.1667-0.837-0.3335 0.3348 0 0.6696 0 1.0044-0.1668 1.0044-0.5004 2.3437-1.8347 2.3437-4.1697 0-1.6679-0.6696-3.169-2.0089-4.003-1.1718-0.8339-2.511-1.0007-4.0176-1.0007h-10.881v2.8354h2.511v14.01h-2.511v2.8354h7.8679v-2.8354h-2.511v-6.1712h5.3569c1.8414 0 2.511 1.1675 2.6784 2.335l0.1674 6.6716h5.3569v-2.8354h-2.511l-0.1674-4.003zm-5.0221-4.8368h-6.0265v-5.1705h5.6917c0.5022 0 1.3392 0 1.8414 0.3336 0.6696 0.3336 1.3392 1.1675 1.3392 2.335 0.1674 1.5011-1.1718 2.5019-2.8458 2.5019zm-12.22 18.514h-3.6828v11.175h1.674v-4.8369h1.8414c2.6785 0 3.8503-1.3343 3.8503-3.169 0-1.6679-1.1718-3.169-3.6829-3.169zm0 5.0037h-2.0088v-3.5026h2.0088c1.5067 0 2.0089 0.834 2.0089 1.6679 0 1.1675-0.837 1.8347-2.0089 1.8347zm10.044-5.0037-5.0221 11.175h1.8415l1.3392-3.3358h4.8547l1.3392 3.3358h1.8414l-5.1895-11.175h-1.0044zm-1.1718 6.5048 1.674-4.3365 1.8415 4.3365h-3.5155zm24.608-6.5048h1.6741v11.175h-1.6741v-11.175zm8.5376 2.6686c0-0.8339 0.837-1.3343 2.0088-1.3343 0.8371 0 1.8415 0.3336 2.8459 1.1675v-1.8346c-0.837-0.5004-1.8414-0.834-2.6785-0.834-2.1762 0-3.6828 1.1675-3.6828 3.0022 0 3.0022 5.3569 3.3358 5.3569 5.6708 0 0.6672-0.6696 1.3343-2.0089 1.3343-1.1718 0-2.3436-0.5003-3.1806-1.6678v2.0014c1.0044 0.6672 2.0088 1.0008 3.348 1.0008 2.0089 0 3.3481-1.3344 3.3481-3.0022-0.1674-3.3358-5.3569-3.3358-5.3569-5.5041zm-14.397 6.338c-0.837-1.3343-1.5066-2.5018-2.6784-3.169 1.3392-0.5003 2.0088-1.5011 2.0088-2.6686 0-2.0015-1.5066-3.169-3.8502-3.169h-3.0133v11.175h1.674v-4.8369h0.6696c0.8371 0 1.5067 0.3336 3.1807 2.5018l1.5066 2.3351h2.0089l-0.837-1.3344c-0.3349-0.1667-0.5023-0.5003-0.6697-0.8339zm-4.8546-4.1697h-1.0045v-3.5026h1.0045c1.674 0 2.3436 0.6672 2.3436 1.6679s-0.5022 1.8347-2.3436 1.8347z"/>
</g>
<defs>
<clipPath id="a">
<rect width="130" height="75" fill="#fff"/>
</clipPath>
</defs>
</svg>
