<svg width="89" height="35" viewBox="0 0 89 35" fill="none" xmlns="http://www.w3.org/2000/svg">
<g clip-path="url(#clip0_291_18476)">
<path d="M7.41245 1.16406H1.06055V7.44575H7.41245V1.16406Z" fill="#00C7FD"/>
<path d="M7.25614 33.8921V11.2468H1.2207V33.8698H7.25614V33.8921ZM47.2211 34.1157V28.5717C46.3396 28.5717 45.5936 28.527 45.0511 28.4376C44.4182 28.3481 43.9435 28.1246 43.627 27.8116C43.3105 27.4987 43.1071 27.0516 42.9941 26.448C42.9036 25.8891 42.8584 25.1514 42.8584 24.2572V16.366H47.2211V11.2468H42.8584V2.43898H36.823V24.3243C36.823 26.1797 36.9812 27.7446 37.2977 28.9964C37.6142 30.2259 38.1567 31.2319 38.9026 31.992C39.6486 32.752 40.6432 33.2885 41.8412 33.6239C43.0619 33.9592 44.599 34.1157 46.43 34.1157H47.2211ZM81.761 33.8921V0.695312H75.7256V33.8921H81.761ZM31.0136 13.4822C29.3409 11.6939 26.99 10.7997 24.0062 10.7997C22.5595 10.7997 21.2258 11.0903 20.0504 11.6715C18.8523 12.2527 17.8577 13.0575 17.0439 14.0858L16.7275 14.5106V14.1305V11.2468H10.7825V33.8698H16.7727V21.8206V22.6477C16.7727 22.5136 16.7727 22.3794 16.7727 22.2453C16.8405 20.1216 17.3604 18.5568 18.355 17.5508C19.4174 16.4778 20.7059 15.9413 22.1752 15.9413C23.9158 15.9413 25.2494 16.4778 26.131 17.5061C26.99 18.5344 27.4421 19.9875 27.4421 21.8429V21.91V33.8698H33.5227V21.0381C33.5453 17.8191 32.6864 15.2706 31.0136 13.4822ZM72.6061 22.5359C72.6061 20.904 72.3123 19.3839 71.7472 17.9532C71.1594 16.5448 70.3457 15.293 69.3285 14.2199C68.2887 13.1469 67.0454 12.3198 65.5987 11.7162C64.152 11.1126 62.5471 10.822 60.8065 10.822C59.1564 10.822 57.5967 11.135 56.15 11.7386C54.7033 12.3645 53.4374 13.1916 52.375 14.2423C51.3126 15.293 50.4536 16.5448 49.8433 17.9755C49.2103 19.4062 48.9165 20.9487 48.9165 22.5806C48.9165 24.2125 49.2103 25.755 49.7981 27.1857C50.3858 28.6164 51.2222 29.8683 52.262 30.9189C53.3018 31.9696 54.5902 32.8191 56.0822 33.4227C57.5741 34.0486 59.2242 34.3616 60.9874 34.3616C66.096 34.3616 69.2606 32.059 71.1594 29.913L66.8194 26.6492C65.9152 27.7222 63.7451 29.1753 61.0326 29.1753C59.3372 29.1753 57.9357 28.7952 56.8733 28.0128C55.8109 27.2528 55.0875 26.1797 54.7033 24.8608L54.6355 24.6596H72.6061V22.5359ZM54.6807 20.4569C54.6807 18.8027 56.6021 15.9189 60.7387 15.8965C64.8754 15.8965 66.8194 18.7803 66.8194 20.4346L54.6807 20.4569ZM88.6328 31.0307C88.5198 30.7625 88.3616 30.5389 88.1581 30.3377C87.9547 30.1365 87.7286 29.98 87.4574 29.8683C87.1861 29.7565 86.8923 29.6894 86.5984 29.6894C86.2819 29.6894 86.0107 29.7565 85.7394 29.8683C85.4682 29.98 85.2421 30.1365 85.0387 30.3377C84.8352 30.5389 84.677 30.7625 84.564 31.0307C84.451 31.299 84.3831 31.5896 84.3831 31.8802C84.3831 32.1932 84.451 32.4614 84.564 32.7297C84.677 32.9979 84.8352 33.2215 85.0387 33.4227C85.2421 33.6239 85.4682 33.7803 85.7394 33.8921C86.0107 34.0039 86.3045 34.071 86.5984 34.071C86.9149 34.071 87.1861 34.0039 87.4574 33.8921C87.7286 33.7803 87.9547 33.6239 88.1581 33.4227C88.3616 33.2215 88.5198 32.9979 88.6328 32.7297C88.7458 32.4614 88.8137 32.1708 88.8137 31.8802C88.8137 31.5896 88.7458 31.299 88.6328 31.0307ZM88.2711 32.5955C88.1807 32.8191 88.0451 33.0203 87.8869 33.1768C87.7286 33.3333 87.5252 33.4674 87.2992 33.5568C87.0731 33.6462 86.8471 33.6909 86.5758 33.6909C86.3272 33.6909 86.0785 33.6462 85.8525 33.5568C85.6264 33.4674 85.423 33.3333 85.2647 33.1768C85.1065 33.0203 84.9709 32.8191 84.8805 32.5955C84.79 32.372 84.7448 32.1485 84.7448 31.8802C84.7448 31.6343 84.79 31.3884 84.8805 31.1648C84.9709 30.9413 85.1065 30.7401 85.2647 30.5836C85.423 30.4271 85.6264 30.293 85.8525 30.2036C86.0785 30.1142 86.3045 30.0695 86.5758 30.0695C86.8245 30.0695 87.0731 30.1142 87.2992 30.2036C87.5252 30.293 87.7286 30.4271 87.8869 30.5836C88.0451 30.7401 88.1807 30.9413 88.2711 31.1648C88.3616 31.3884 88.4068 31.6119 88.4068 31.8802C88.4068 32.1485 88.3616 32.372 88.2711 32.5955ZM87.0053 32.0814C87.1861 32.059 87.3218 31.992 87.4348 31.8802C87.5478 31.7684 87.6156 31.6119 87.6156 31.3884C87.6156 31.1425 87.5478 30.9636 87.3896 30.8295C87.2539 30.6954 87.0053 30.6283 86.7114 30.6283H85.7168V33.1544H86.1915V32.1261H86.5306L87.1635 33.1544H87.6608L87.0053 32.0814ZM86.7566 31.7014C86.6888 31.7014 86.621 31.7014 86.5306 31.7014H86.1915V30.986H86.5306C86.5984 30.986 86.6662 30.986 86.7566 30.986C86.8245 30.986 86.8923 31.0084 86.9601 31.0307C87.0279 31.0531 87.0731 31.0978 87.0957 31.1425C87.1409 31.1872 87.1409 31.2543 87.1409 31.3437C87.1409 31.4331 87.1183 31.5002 87.0957 31.5449C87.0505 31.5896 87.0053 31.6343 86.9601 31.6566C86.8923 31.679 86.8245 31.7014 86.7566 31.7014Z" fill="white"/>
</g>
<defs>
<clipPath id="clip0_291_18476">
<rect width="89" height="35" fill="white"/>
</clipPath>
</defs>
</svg>
