<svg width="101" height="85" viewBox="0 0 101 85" fill="none" xmlns="http://www.w3.org/2000/svg">
<g clip-path="url(#clip0_291_18472)">
<path d="M96.2835 79.3187C96.5008 79.3209 96.7162 79.2791 96.9163 79.1961C97.1164 79.1131 97.2971 78.9905 97.447 78.8361C97.5969 78.6816 97.7129 78.4986 97.7878 78.2983C97.8627 78.0979 97.8948 77.8847 97.8823 77.6716C97.8823 76.5035 97.1649 75.9453 95.6928 75.9453H93.3145V82.0613H94.209V79.3953H95.3083L95.3335 79.4277L97.0394 82.0613H97.9961L96.1606 79.3356L96.2835 79.3187ZM95.2489 78.7061H94.2116V76.6385H95.5264C96.2056 76.6385 96.9799 76.7475 96.9799 77.621C96.9799 78.6256 96.1963 78.7061 95.2436 78.7061" fill="#0A66C2"/>
<path d="M72.9466 71.6529H60.2614V52.1394C60.2614 47.4863 60.1769 41.4962 53.6638 41.4962C47.0569 41.4962 46.046 46.566 46.046 51.8007V71.6516H33.3607V31.524H45.5386V37.0078H45.7091C46.9278 34.961 48.6889 33.2772 50.8047 32.1358C52.9206 30.9943 55.3121 30.4379 57.7244 30.5259C70.5814 30.5259 72.9519 38.8328 72.9519 49.6396L72.9466 71.6529ZM19.0476 26.0388C17.5917 26.0391 16.1683 25.6153 14.9576 24.8209C13.7469 24.0266 12.8032 22.8974 12.2458 21.5763C11.6884 20.2551 11.5423 18.8012 11.8261 17.3985C12.1099 15.9958 12.8108 14.7073 13.8401 13.6958C14.8694 12.6844 16.181 11.9955 17.6089 11.7162C19.0368 11.4369 20.5169 11.5799 21.8622 12.1269C23.2074 12.674 24.3572 13.6006 25.1663 14.7896C25.9754 15.9785 26.4074 17.3765 26.4077 18.8066C26.4079 19.7562 26.2176 20.6965 25.8478 21.5739C25.4781 22.4512 24.936 23.2485 24.2526 23.92C23.5691 24.5916 22.7576 25.1244 21.8646 25.4879C20.9715 25.8515 20.0143 26.0387 19.0476 26.0388ZM25.3902 71.6529H12.6918V31.524H25.3902V71.6529ZM79.2707 0.00572939H6.31751C4.66168 -0.0126255 3.06609 0.615503 1.8815 1.75209C0.6969 2.88867 0.0202085 4.44072 0 6.06718V78.0246C0.0195169 79.6518 0.695811 81.2049 1.88037 82.3427C3.06492 83.4805 4.66086 84.1098 6.31751 84.0925H79.2707C80.9307 84.113 82.531 83.4854 83.7203 82.3477C84.9095 81.2099 85.5903 79.6551 85.6133 78.0246V6.06199C85.5896 4.4323 84.9083 2.87849 83.7191 1.74193C82.5298 0.605375 80.9298 -0.0209582 79.2707 0.000535468" fill="#0A66C2"/>
<path d="M95.356 73.2188C93.8126 73.2333 92.3379 73.8477 91.2544 74.9274C90.1709 76.0071 89.5669 77.4644 89.5743 78.9804C89.5817 80.4965 90.2001 81.9479 91.2941 83.0174C92.3881 84.0868 93.8687 84.6872 95.4121 84.6872C96.9555 84.6872 98.4361 84.0868 99.5301 83.0174C100.624 81.9479 101.242 80.4965 101.25 78.9804C101.257 77.4644 100.653 76.0071 99.5698 74.9274C98.4863 73.8477 97.0116 73.2333 95.4682 73.2188H95.356ZM95.356 84.0307C94.3437 84.0473 93.3491 83.7686 92.498 83.2299C91.647 82.6912 90.9776 81.9168 90.5747 81.0044C90.1717 80.0921 90.0532 79.0829 90.2342 78.1044C90.4151 77.1259 90.8875 76.2221 91.5914 75.5073C92.2952 74.7925 93.1991 74.2987 94.1886 74.0885C95.1782 73.8782 96.2091 73.961 97.1508 74.3262C98.0925 74.6914 98.9027 75.3228 99.4791 76.1403C100.056 76.9579 100.372 77.925 100.389 78.9194C100.389 78.9479 100.389 78.9752 100.389 79.0037C100.417 80.3082 99.9171 81.5703 98.9983 82.5125C98.0795 83.4547 96.8173 83.9999 95.4894 84.0281H95.3572" fill="#0A66C2"/>
</g>
<defs>
<clipPath id="clip0_291_18472">
<rect width="101" height="85" fill="white"/>
</clipPath>
</defs>
</svg>
