<svg width="77" height="74" viewBox="0 0 77 74" fill="none" xmlns="http://www.w3.org/2000/svg">
<g clip-path="url(#clip0_291_18497)">
<path d="M26.5842 70.2528H54.4224C63.2002 70.2528 67.9653 63.0025 70.0552 58.669L71.3092 55.5855H76.4087L66.6277 74.0862H0.250794L2.00635 70.1694H4.5143C4.5979 70.1694 4.5979 70.1694 4.68149 70.1694C5.01589 70.1694 5.35028 70.1694 5.68467 70.1694H7.60743C10.7842 70.0861 14.2117 69.086 16.5524 63.1691C16.8032 62.5858 16.9704 62.0858 17.2212 61.6691L23.8255 44.8351L9.61378 11.9171C9.27939 11.4171 9.0286 10.7504 8.6942 10.0837C6.93864 6.00024 4.3471 4.75019 2.42435 4.3335H0V0H22.9895V4.3335H21.9027C21.8191 4.3335 21.7355 4.3335 21.7355 4.3335C19.8128 4.3335 17.8064 4.41684 19.0604 7.33362C19.144 7.50029 19.144 7.66697 19.2276 7.7503L29.3429 31.0846L34.8604 17.0007C35.5292 14.7506 34.4424 14.0005 33.3557 13.8339H30.5969L32.6869 9.00035H56.5959L54.506 13.8339H50.7441C49.0721 14.2506 46.8985 15.5839 45.0594 19.2508L35.0276 44.3351L40.1271 56.0022L40.2107 56.0855C40.4615 56.7522 40.8795 57.0856 41.4647 56.0855C41.4647 56.0022 41.5483 56.0022 41.5483 55.9189L61.5282 12.0838C61.6954 11.5838 61.9462 11.0004 62.2806 10.3337C64.3706 5.75022 62.2806 4.58351 60.6086 4.3335H57.6827V0H76.9103V4.3335H73.7335C72.4796 4.58351 70.5568 5.33354 68.8013 7.91698L42.2171 66.3359L33.1885 66.1693L29.5937 58.0023L25.4138 68.5027C25.4138 68.586 25.4138 68.6694 25.3302 68.7527C24.9958 69.9194 25.581 70.2528 26.5842 70.2528Z" fill="white"/>
</g>
<defs>
<clipPath id="clip0_291_18497">
<rect width="77" height="74" fill="white"/>
</clipPath>
</defs>
</svg>
