<svg viewBox="0 0 120 40" xmlns="http://www.w3.org/2000/svg">
  <path d="M10.5 30V12.4L20.1 26.8H22.9L32.5 12.4V30H36V8H32.9L21.5 23.6L10.1 8H7V30H10.5ZM54.3 30.4C57.3 30.4 59.7 29.3 61.3 27.3L59.1 25.3C57.9 26.8 56.2 27.6 54.4 27.6C51 27.6 48.6 25.2 48.4 22H62V20.8C62 15.6 59 12.4 54.1 12.4C49 12.4 45.6 16 45.6 21.4C45.6 26.8 49 30.4 54.3 30.4ZM48.5 19.4C48.9 16.4 51.1 15 54.1 15C57 15 59.1 16.6 59.2 19.4H48.5ZM72 30.4C74.2 30.4 76 29.6 77 28.2V30H79.8V15.6H83V13H79.8V8H77V13H73V15.6H77V26.4C76.2 27.4 74.6 27.8 73 27.8H72V30.4ZM95.5 30.4C100 30.4 103.4 28.4 103.4 24.8C103.4 17.4 92 20.4 92 16.8C92 15.4 93.6 14.8 95.8 14.8C97.6 14.8 99.4 15.4 100.8 16.8L102.6 14.6C101 13.2 98.6 12.4 95.8 12.4C91.6 12.4 89.2 14.4 89.2 17C89.2 24.2 100.6 21 100.6 25C100.6 26.8 98.8 27.8 96 27.8C93.6 27.8 91.4 26.8 89.8 25L87.8 27.2C89.8 29.2 92.4 30.4 95.5 30.4Z" fill="currentColor"/>
</svg>
