<svg width="89" height="92" viewBox="0 0 89 92" fill="none" xmlns="http://www.w3.org/2000/svg">
<g clip-path="url(#clip0_291_511)">
<path fill-rule="evenodd" clip-rule="evenodd" d="M57.0969 0.152507L5.64669 3.97053C1.48309 4.26423 -0.00390625 7.05433 -0.00390625 10.285V66.0869C-0.00390625 68.5833 0.888293 70.786 3.11879 73.5761L15.1635 89.1419C17.0966 91.6383 19.0297 92.2257 22.7472 91.932L82.5246 88.4077C87.5804 88.114 89.0674 85.7644 89.0674 81.7996V18.9489C89.0674 16.8931 88.3239 16.3057 85.796 14.5435C85.6473 14.3967 85.4986 14.3967 85.3499 14.2498L68.9929 2.9426C65.1267 0.00565971 63.491 -0.288035 57.0969 0.152507ZM24.0855 17.921C19.1784 18.2147 18.1375 18.3616 15.3122 16.012L8.32329 10.5787C7.57979 9.84442 7.87719 8.96334 9.81029 8.81649L59.3274 5.29216C63.491 4.99846 65.5728 6.32009 67.2085 7.64171L75.6844 13.6625C76.1305 13.8093 77.0227 14.8372 75.8331 14.8372L24.6803 17.921H24.0855ZM18.4349 81.2122V27.9066C18.4349 25.5571 19.1784 24.5291 21.2602 24.3823L79.9967 21.0048C81.9298 20.858 82.822 22.0327 82.822 24.3823V77.2473C82.822 79.5968 82.3759 81.5059 79.2532 81.6527L23.0446 84.8833C19.9219 85.177 18.4349 84.0023 18.4349 81.2122ZM73.9 30.8436C74.1974 32.4589 73.9 34.0742 72.2643 34.2211L69.5877 34.8085V74.1635C67.2085 75.4851 65.1267 76.0725 63.3423 76.0725C60.517 76.0725 59.7735 75.1914 57.543 72.5482L39.699 44.9409V71.5203L45.3496 72.8419C45.3496 72.8419 45.3496 76.0725 40.8886 76.0725L28.3978 76.8067C28.1004 76.0725 28.3978 74.3103 29.5874 74.0167L32.8588 73.1356V37.8922L28.3978 37.4517C28.1004 35.8364 28.9926 33.4868 31.5205 33.34L44.9035 32.4589L63.3423 60.3599V35.6895L58.5839 35.1021C58.2865 33.1931 59.6248 31.7247 61.4092 31.5778L73.9 30.8436Z" fill="white"/>
</g>
<defs>
<clipPath id="clip0_291_511">
<rect width="89" height="92" fill="white"/>
</clipPath>
</defs>
</svg>
