<svg width="89" height="56" viewBox="0 0 89 56" fill="none" xmlns="http://www.w3.org/2000/svg">
<g clip-path="url(#clip0_291_541)">
<path d="M28.9778 55.8716H61.7529C77.3329 55.4954 89.5879 42.6093 89.2079 27.2777C88.8279 12.3224 76.6679 0.376941 61.7529 0.000705613H28.9778C13.3978 -0.375529 0.382745 11.7581 0.00274399 27.1837C-0.377257 42.6093 11.8778 55.4013 27.4578 55.7776C27.9328 55.8716 28.4078 55.8716 28.9778 55.8716ZM60.9929 45.9954H29.6428C19.5728 45.7133 11.6878 37.342 11.9728 27.3718C12.3528 17.8719 20.0478 10.1591 29.6428 9.87688H60.9929C71.0629 9.5947 79.5179 17.4016 79.8029 27.3718C80.0879 37.342 72.2029 45.7133 62.1329 45.9954C61.7529 45.9954 61.3729 45.9954 60.9929 45.9954Z" fill="#C74634"/>
</g>
<defs>
<clipPath id="clip0_291_541">
<rect width="89" height="56" fill="white"/>
</clipPath>
</defs>
</svg>
