<svg width="139" height="26" viewBox="0 0 139 26" fill="none" xmlns="http://www.w3.org/2000/svg">
<g clip-path="url(#clip0_291_495)">
<path d="M137.767 3.45711C137.767 4.61044 136.867 5.53311 135.71 5.53311C134.552 5.53311 133.652 4.61044 133.652 3.45711C133.652 2.33673 134.552 1.41406 135.71 1.41406C136.899 1.41406 137.767 2.33673 137.767 3.45711ZM134.199 3.45711C134.199 4.37978 134.842 5.10473 135.742 5.10473C136.61 5.10473 137.252 4.37978 137.252 3.49006C137.252 2.5674 136.61 1.84244 135.71 1.84244C134.842 1.84244 134.199 2.5674 134.199 3.45711ZM135.42 4.54454H134.97V2.50149C135.163 2.46854 135.42 2.43559 135.742 2.43559C136.127 2.43559 136.288 2.50149 136.449 2.60035C136.545 2.6992 136.642 2.86397 136.642 3.06168C136.642 3.29235 136.481 3.45711 136.224 3.52301V3.55597C136.417 3.62187 136.513 3.78663 136.577 4.05025C136.642 4.34682 136.674 4.47863 136.738 4.57749H136.224C136.16 4.51159 136.127 4.31387 136.063 4.0832C136.031 3.85254 135.902 3.75368 135.645 3.75368H135.42V4.54454ZM135.42 3.3912H135.645C135.902 3.3912 136.095 3.29235 136.095 3.09463C136.095 2.89692 135.967 2.79806 135.677 2.79806C135.549 2.79806 135.485 2.79806 135.42 2.83101V3.3912Z" fill="white"/>
<path d="M52.3627 15.384C52.3627 16.5374 52.0734 17.6577 50.5947 17.6577C49.1161 17.6577 48.7304 16.2408 48.7304 14.9886C48.7304 13.4728 49.8554 12.3195 51.4305 12.3195H52.1698C52.3627 12.3195 52.3627 12.5172 52.3627 12.5172V15.384ZM58.8558 18.5145H58.2129C58.02 18.5145 58.1165 18.2179 58.1165 18.2179V9.88098C58.1165 6.19032 55.8021 4.64155 52.2662 4.64155C51.0769 4.64155 49.8554 4.83927 48.6661 5.3006C48.6661 5.3006 48.3768 5.49832 48.5697 5.10289C48.6661 4.90517 48.6661 4.70746 48.6661 4.70746C48.6661 4.70746 48.7625 4.50975 48.5697 4.41089C48.3768 4.41089 47.1874 4.01546 46.9946 3.94955C46.8017 3.8507 46.8017 4.04841 46.8017 4.04841C46.8017 4.04841 45.0338 8.59584 44.9374 8.79355C44.8409 8.99127 44.9374 8.99127 44.9374 8.99127C44.9374 8.99127 46.5124 9.55146 46.7053 9.55146C46.8017 9.65031 46.8981 9.55146 46.8981 9.55146C47.7339 8.49698 48.5697 7.83793 50.3376 7.83793C51.7198 7.83793 52.3627 8.39812 52.3627 9.65031V10.1116C52.3627 10.3094 52.2662 10.3094 52.2662 10.3094L48.0875 10.4082C45.2909 10.4082 42.9766 12.4842 42.9766 16.109C42.9766 19.0417 45.0981 20.8541 47.9911 20.8541C49.6626 20.8541 50.9483 20.0962 52.2662 19.1406C52.2662 19.1406 52.4591 18.7452 52.5555 19.1406C52.5555 19.4372 52.652 19.7996 52.7484 20.1951C52.8448 20.3928 52.9413 20.3928 52.9413 20.3928H58.8879C58.8879 20.3928 59.1772 20.4916 59.1772 20.1951V18.6793C59.1129 18.7122 59.1129 18.5145 58.8558 18.5145Z" fill="white"/>
<path d="M42.2722 17.5643C42.2722 17.3666 42.0793 17.5643 42.0793 17.5643C41.6936 17.762 41.6293 17.762 41.1471 17.762C40.6971 17.762 39.8613 17.5643 39.8613 16.5428V7.71157C39.8613 7.71157 39.8613 7.61271 40.0542 7.61271H42.0793C42.0793 7.61271 42.1757 7.61271 42.2722 7.415C42.2722 7.21728 42.6579 5.339 42.6579 5.339C42.6579 5.339 42.7543 5.14128 42.5615 5.14128H40.0542C40.0542 5.14128 39.8613 5.24014 39.8613 5.04243V3.88909C39.8613 3.23005 39.9578 2.37328 40.0542 1.61538C40.0542 1.61538 40.1506 1.51652 39.9578 1.41767C39.7649 1.41767 38.5756 1.12109 38.3827 1.12109C38.1898 1.12109 38.1898 1.21995 38.1898 1.21995C37.1612 3.49366 35.1362 5.10833 32.7253 5.76738C32.7253 5.76738 32.6289 5.86624 32.6289 5.96509V7.38204C32.6289 7.57976 32.7253 7.57976 32.7253 7.57976H34.0111C34.204 7.57976 34.204 7.67861 34.204 7.67861V16.8064C34.204 19.4756 35.2326 20.8925 38.0934 20.8925C40.6971 20.8925 40.8578 20.7937 42.8186 19.3767C42.8186 19.3767 43.0115 19.2778 42.915 19.179C42.8186 19.0142 42.3364 17.762 42.2722 17.5643Z" fill="white"/>
<path d="M26.4899 12.5501V15.384C26.4899 16.5374 26.2006 17.6577 24.8184 17.6577C23.2434 17.6577 22.8577 16.2408 22.8577 14.9886C22.8577 13.4728 24.047 12.3195 25.5578 12.3195H26.3935C26.5864 12.3524 26.4899 12.5501 26.4899 12.5501ZM33.0795 18.5145H32.3402C32.2437 18.5145 32.2437 18.2179 32.2437 18.2179V9.88098C32.2437 6.19032 29.9294 4.64155 26.3935 4.64155C25.2042 4.64155 23.9827 4.83927 22.7934 5.3006C22.7934 5.3006 22.6005 5.49832 22.6969 5.10289C22.7934 4.90517 22.8898 4.70746 22.8898 4.70746C22.8898 4.70746 22.9862 4.50975 22.7934 4.41089C22.5041 4.41089 21.4112 4.01546 21.1219 3.94955C21.0254 3.8507 21.0254 4.04841 21.0254 4.04841C21.0254 4.04841 19.1611 8.59584 19.0646 8.79355C18.9682 8.99127 19.1611 8.99127 19.1611 8.99127C19.1611 8.99127 20.6397 9.55146 20.8326 9.65031C21.0254 9.65031 21.0254 9.55146 21.0254 9.55146C21.8612 8.49698 22.6969 7.83793 24.4649 7.83793C25.8471 7.83793 26.4899 8.39812 26.4899 9.65031V10.1116V10.3094L22.2469 10.54C19.4504 10.54 17.2324 12.5501 17.2324 16.1419C17.2324 19.0747 19.3539 20.8871 22.1505 20.8871C23.822 20.8871 25.2042 20.1292 26.4257 19.1736C26.4257 19.1736 26.6185 18.7781 26.715 19.1736C26.715 19.4701 26.9078 19.8326 27.0042 20.228C27.0042 20.4257 27.1007 20.4257 27.1007 20.4257H33.0152C33.0152 20.4257 33.3045 20.5246 33.3045 20.228V18.7122C33.2724 18.7122 33.2724 18.5145 33.0795 18.5145Z" fill="white"/>
<path d="M114.531 4.64408C116.106 4.64408 118.613 3.88618 118.613 1.97494C118.613 0.360272 117.134 -0.0351562 115.816 -0.0351562C114.434 -0.0351562 112.377 1.11818 112.377 2.63399C112.409 3.98503 113.245 4.64408 114.531 4.64408Z" fill="white"/>
<path d="M64.3176 8.7282C64.3176 7.21239 64.7676 6.6522 65.8927 6.6522C68.2071 6.6522 69.2357 11.2985 69.2357 13.012C69.2357 14.5278 68.7857 15.088 67.5642 15.088C65.2177 15.088 64.3176 10.4417 64.3176 8.7282ZM66.7284 21.1842C66.8249 21.0853 66.9213 21.0853 66.9213 21.0853C67.9499 21.7444 68.7857 22.2387 68.7857 23.6556C68.7857 24.4135 68.3356 24.809 67.5963 24.809C66.6641 24.809 66.3106 23.9522 66.3106 23.1943C66.2463 22.5023 66.4391 21.4808 66.7284 21.1842ZM74.3145 10.8371C74.3145 7.21239 71.3572 6.28972 71.3572 5.59772C71.3572 5.20229 71.5501 4.93867 71.9036 4.93867C72.5465 4.83982 72.643 4.93867 72.9323 5.13639C72.9323 5.13639 73.0287 5.3341 73.1251 5.03753C73.1251 4.93867 73.6716 2.66496 73.768 2.5661C73.768 2.26953 73.5751 2.36839 73.5751 2.36839C73.2858 2.26953 72.9323 2.26953 72.5465 2.26953C70.875 2.26953 70.3286 2.73086 69.9429 3.8842C69.9429 3.8842 69.6536 4.6421 69.6536 4.93867C69.5571 5.13639 69.4607 5.03753 69.4607 5.03753C68.6249 4.93867 67.6928 4.6421 66.1177 4.6421C62.6783 4.6421 59.0781 6.6522 59.0781 11.1008C59.0781 14.2312 61.6818 16.0436 64.2533 16.505C64.2533 16.505 64.7034 16.6038 64.2533 16.7027C63.514 16.9992 61.8425 17.9549 59.9782 18.2185C59.9782 18.2185 59.7853 18.3173 59.8817 18.5151C59.9782 18.6139 60.4282 19.932 60.5246 20.1297C60.621 20.3274 60.8139 20.3274 60.8139 20.3274C61.6497 20.1297 64.1569 20.3274 64.6069 20.4263C64.9927 20.4263 64.6069 20.5251 64.6069 20.5251C63.3212 20.7229 61.7461 21.7444 61.7461 23.1943C61.7461 25.1714 63.5462 25.9952 65.6677 26.2259H68.5928C70.7786 25.9293 73.8002 24.8419 73.8002 22.041C73.8002 18.7128 68.6249 18.0537 66.1177 17.7571C65.732 17.7571 66.1177 17.6583 66.1177 17.6583C69.975 16.7027 74.3145 15.6811 74.3145 10.8371Z" fill="white"/>
<path d="M8.8075 18.5175C7.32887 18.5175 6.84671 17.3641 6.84671 16.0461V8.36815C6.84671 8.17043 7.03957 8.07158 7.03957 8.07158L7.77889 7.97272C8.71107 7.97272 11.4755 8.26929 11.4755 13.8712C11.4755 17.3971 10.6397 18.5175 8.8075 18.5175ZM10.7362 4.64453C9.35395 4.64453 8.32534 5.20472 6.94314 6.06148C6.94314 6.06148 6.84671 6.16034 6.84671 5.96263V4.80929C6.84671 4.61158 6.65384 4.71044 6.65384 4.71044L0.192865 6.45691C0.192865 6.45691 0 6.45691 0 6.65463V6.68758V6.72053V6.75348V6.78644V6.81939V6.85234V6.88529V6.91824V6.9512V6.98415V7.0171V7.05005V7.08301V7.11596V7.14891V7.18186V7.21482V7.24777V7.28072V7.31367V7.34663V7.37958V7.41253V7.44548V7.47844V7.51139V7.54434V7.57729V7.61024V7.6432V7.67615V7.7091V7.74205V7.77501V7.80796V7.84091V7.87386V7.90682V7.93977V7.97272V8.00567V8.03863V8.07158V8.10453V8.13748V8.17043V8.20339C0 8.4011 0.192865 8.4011 0.192865 8.4011L0.932181 8.20339C0.932181 8.20339 1.12505 8.10453 1.12505 8.30224V23.2297C1.12505 23.2297 1.12505 23.4274 0.932181 23.4274H0.192865C0.192865 23.4274 0 23.4274 0 23.6251V23.6581V23.691V23.724V23.7569V23.7899V23.724V23.7569V23.7899V23.8228V23.8558V23.8887V23.9217V23.9546V23.9876V24.0205V24.0535V24.0864V24.1194V24.0535V24.0864V24.1194V24.1523V24.1853V24.2182V24.2512V24.2841V24.3171V24.3501V24.383V24.416V24.4489V24.4819V24.5148V24.5478V24.5807V24.6137V24.6466V24.6796V24.7125V24.7455V24.7784V24.8114V24.8443V24.8773V24.9102V24.9432V24.9761V25.0091V25.042V25.075V25.108V25.1409V25.1739C0 25.3716 0.289298 25.3716 0.289298 25.3716H8.71107C8.71107 25.3716 8.90394 25.2727 8.90394 25.1739V23.6581C8.90394 23.4603 8.71107 23.4603 8.71107 23.4603H7.03957C6.84671 23.4603 6.84671 23.2626 6.84671 23.2626V20.4287C6.84671 20.3299 6.94314 20.3299 6.94314 20.3299C7.77889 20.7912 8.96822 20.8901 9.9004 20.8901C14.5292 20.8901 17.2293 16.5074 17.2293 12.1577C17.2293 7.7091 14.3684 4.64453 10.7362 4.64453Z" fill="white"/>
<path d="M110.288 18.5197H109.452C109.259 18.5197 109.355 18.4208 109.355 18.4208V9.12826C109.355 7.41473 108.809 4.67969 104.823 4.67969C102.702 4.67969 101.127 5.89893 99.5515 7.15112C99.5515 7.15112 99.455 7.34883 99.455 7.05226V4.8774C99.455 4.67969 99.2622 4.77854 99.2622 4.77854L92.6726 6.59093C92.6726 6.59093 92.5762 6.49207 92.5762 6.68978V8.30445C92.5762 8.50216 92.6726 8.40331 92.6726 8.40331C92.6726 8.40331 93.2191 8.20559 93.5084 8.10673C93.7012 8.10673 93.6048 8.30445 93.6048 8.30445V18.4538C93.6048 18.4538 93.7012 18.5526 93.5084 18.5526H92.6726C92.6726 18.5526 92.5762 18.5526 92.5762 18.7504V20.2662C92.5762 20.5627 92.6726 20.4639 92.6726 20.4639H100.451C100.451 20.4639 100.548 20.4639 100.548 20.365V18.7504C100.548 18.5526 100.451 18.5526 100.451 18.5526H99.4229C99.3264 18.5526 99.3264 18.4538 99.3264 18.4538V9.78731C99.3264 9.68845 99.4229 9.58959 99.4229 9.58959C100.162 8.93054 100.902 8.43626 101.93 8.43626C102.766 8.43626 103.602 8.83169 103.602 9.75435V18.3879C103.602 18.3879 103.602 18.4867 103.505 18.4867H102.573C102.573 18.4867 102.38 18.4867 102.38 18.6844V20.2991C102.38 20.398 102.477 20.398 102.477 20.398H110.255C110.255 20.398 110.352 20.4968 110.352 20.2003V18.6844C110.352 18.5197 110.288 18.5197 110.288 18.5197Z" fill="white"/>
<path d="M128.706 15.384C128.706 16.5374 128.417 17.6577 126.938 17.6577C125.46 17.6577 125.074 16.2408 125.074 14.9886C125.074 13.4728 126.199 12.3195 127.774 12.3195H128.514C128.706 12.3195 128.706 12.5172 128.706 12.5172V15.384ZM135.296 18.5145H134.557C134.46 18.5145 134.46 18.2179 134.46 18.2179V9.88098C134.46 6.19032 132.146 4.64155 128.61 4.64155C127.421 4.64155 126.199 4.83927 125.01 5.3006C125.01 5.3006 124.721 5.49832 124.913 5.10289C125.01 4.90517 125.106 4.70746 125.106 4.70746C125.106 4.70746 125.106 4.50975 124.913 4.41089C124.721 4.41089 123.531 4.01546 123.338 3.94955C123.145 3.8507 123.145 4.04841 123.145 4.04841C123.145 4.04841 121.378 8.59584 121.281 8.79355C121.185 8.99127 121.378 8.99127 121.378 8.99127C121.378 8.99127 122.856 9.55146 123.049 9.55146C123.145 9.65031 123.242 9.55146 123.242 9.55146C124.078 8.49698 124.913 7.83793 126.681 7.83793C128.064 7.83793 128.706 8.39812 128.706 9.65031V10.1116C128.706 10.3094 128.61 10.3094 128.61 10.3094L124.431 10.4082C121.635 10.4082 119.32 12.4842 119.32 16.109C119.32 19.0417 121.442 20.8541 124.335 20.8541C126.006 20.8541 127.292 20.0962 128.61 19.1406C128.61 19.1406 128.803 18.7452 128.899 19.1406C128.899 19.4372 128.996 19.7996 129.092 20.1951C129.189 20.3928 129.285 20.3928 129.285 20.3928H135.232C135.232 20.3928 135.521 20.4916 135.521 20.1951V18.6793C135.489 18.7122 135.489 18.5145 135.296 18.5145Z" fill="white"/>
<path d="M84.797 18.5175C81.6469 18.5175 80.7147 12.8167 80.7147 10.543C80.7147 9.38967 80.7147 7.0171 82.7398 7.0171C85.9864 7.0171 86.9186 12.7179 86.9186 14.9916C86.9186 16.7051 86.4685 18.5175 84.797 18.5175ZM83.7684 4.64453C78.754 4.64453 74.9609 7.77501 74.9609 12.7179C74.9609 17.8584 78.754 20.8901 83.7684 20.8901C88.7829 20.8901 92.6724 17.8584 92.6724 12.7179C92.6724 7.77501 88.7829 4.64453 83.7684 4.64453Z" fill="white"/>
<path d="M119.354 18.7153C119.354 18.5176 119.161 18.5176 119.161 18.5176H118.421C118.228 18.5176 118.325 18.4187 118.325 18.4187V4.84232C118.325 4.64461 118.132 4.74346 118.132 4.74346L111.542 6.55584C111.542 6.55584 111.446 6.55584 111.446 6.75356V8.26937C111.446 8.46708 111.639 8.36822 111.639 8.36822C111.639 8.36822 112.089 8.26937 112.475 8.17051C112.668 8.17051 112.571 8.36823 112.571 8.46708V18.4516C112.571 18.4516 112.668 18.5505 112.475 18.5505H111.542C111.542 18.5505 111.35 18.5505 111.35 18.7482V20.3629C111.35 20.5606 111.542 20.4617 111.542 20.4617H119.257C119.45 20.4617 119.354 20.264 119.354 20.264V18.7153Z" fill="white"/>
</g>
<defs>
<clipPath id="clip0_291_495">
<rect width="139" height="26" fill="white"/>
</clipPath>
</defs>
</svg>
