<svg width="89" height="107" viewBox="0 0 89 107" fill="none" xmlns="http://www.w3.org/2000/svg">
<g clip-path="url(#clip0_291_18448)">
<path d="M75.9114 24.61C75.9114 37.8637 63.6542 53.5 45.1089 53.5H27.245L26.3681 59.0212L22.2006 85.6H0L13.3556 0H49.324C61.4358 0 70.9647 6.73625 74.4745 16.0976C75.4868 18.8193 75.9743 21.7075 75.9114 24.61Z" fill="#002991"/>
<path d="M88.7061 49.2233C87.5212 56.4075 83.8128 62.9365 78.2447 67.6416C72.6766 72.3468 65.6121 74.9209 58.3159 74.9033H45.911L40.7475 107.003H18.666L22.1997 85.6033L26.3696 59.0245L27.2441 53.5033H45.108C63.6295 53.5033 75.9105 37.867 75.9105 24.6133C85.0247 29.307 90.3384 38.792 88.7061 49.2233Z" fill="#60CDFF"/>
<path d="M75.9105 24.6123C72.0885 22.6174 67.454 21.4023 62.4096 21.4023H32.2909L27.2441 53.5023H45.108C63.6296 53.5023 75.9105 37.8661 75.9105 24.6123Z" fill="#008CFF"/>
</g>
<defs>
<clipPath id="clip0_291_18448">
<rect width="89" height="107" fill="white"/>
</clipPath>
</defs>
</svg>
