<?xml version="1.0" encoding="UTF-8"?>
<svg viewBox="0 0 169 94" xmlns="http://www.w3.org/2000/svg">
<path d="m79.346 74.981c13.694 0 24.797-11.029 24.797-24.633 0-13.604-11.104-24.633-24.797-24.633-13.695 0-24.797 11.029-24.797 24.633 0 13.604 11.102 24.633 24.797 24.633z" fill="#fc0"/>
<path d="m77.579 61.78c-1.401-0.7855-1.6779-2.3333-2.4108-3.2803-0.3003-0.375-0.7963-0.791-0.9299-1.1318-1.2633-3.2105-1.6917-5.0142-2.1353-8.148-0.2287-1.6053-1.3005-2.9587-2.8641-4.8582-0.6819-0.828-1.6531-2.1965-2.4935-3.0053-2.8199-2.362-4.345-3.6744-6.2268-4.9334-0.3676-0.2478-0.7573-0.4617-1.1641-0.6391h-0.0096c-0.0072-0.0015-0.0138-0.0048-0.0193-0.0096-0.6282-0.2737-1.1958-0.3503-1.9686-0.3928-0.1028-6e-3 -0.2057-0.0092-0.3086-0.0096-1.4024 0-2.7359 0.5064-4.0805 1.5383-0.9767 0.6349-2.0967 0.9894-3.1823 1.3301-1.3693 0.4311-2.7897 0.8814-3.9468 1.8845-0.2067 0.1478-0.3954 0.3558-0.5814 0.5501-0.2535 0.2696-0.434 0.5775-0.8197 0.7007-0.3347 0.0753-0.5731 0.0753-0.8445 0.0985-0.4278 0.032-0.8531 0.0924-1.2729 0.1807-1.4244 0.3352-2.5155 1.207-3.6644 2.1307l-0.3913 0.312c-0.7439 0.5871-2.0251 1.1222-2.7497 1.1455-2.0251 0.0616-3.4592 0.5351-4.9511 1.6381-1.5402 1.1701-3.1892 2.3771-5.0146 3.1202-0.4192 0.1617-0.8645 0.2466-1.3142 0.2504-0.4767 0-1.1586-0.104-1.7014-0.6049-0.6915-0.6349-0.9202-1.857-0.5056-2.6754 0.62-1.2125 1.8819-2.2019 2.9123-2.9313 1.3294-0.999 2.6161-2.3101 2.0444-4.4833-0.6158-1.9884-3.0597-2.6275-4.6756-3.0531-0.4574-0.1191-0.8541-0.2231-1.087-0.3312-0.5097-0.2367-0.8679-0.479-1.215-0.7116-0.3372-0.2429-0.6998-0.4489-1.0814-0.6145-0.0648-0.0226-0.1326-0.0355-0.2012-0.0383-0.2277 0-0.41 0.109-0.5469 0.3271-0.5827 1.0086-0.7535 2.0363-0.5097 3.0395 0.3761 1.6476 2.0113 3.1475 3.7168 3.413 0.1708 0.0424 0.3664 0.0575 0.5579 0.0766 0.1764 0.0137 0.3568 0.0329 0.5235 0.0657-1.1317 0.8683-2.1642 1.8573-3.0789 2.9492-1.2482 1.4588-1.5912 3.8687-0.7963 5.6013 0.6874 1.7325 2.4315 3.1434 4.2431 3.4281 0.3568 0.0656 0.7439 0.0985 1.1806 0.0985 0.6295 0 1.2632-0.0657 1.8694-0.1314 0.1474-0.0137 0.3003-0.0342 0.4422-0.0479 0.062 1.3726 0.1102 2.2252 0.8775 4.1712 0.0469 0.1232 0.0138 0.3312-0.1474 0.4735-0.1336 0.1177-1.2495 0.5775-1.5691 0.6432-0.1352 0.0222-0.2721 0.0318-0.4091 0.0288h-0.4574c-0.1515 0-0.3485 0-0.5386 0.0273-0.7012 0.0999-1.0484 0.687-1.2964 1.2563-0.1515 0.3449-0.2617 0.6487-0.3581 0.9087-0.2384 0.6487-0.3858 1.051-0.8431 1.2974 0 0-0.9534-0.843-1.1159-0.958-0.2205-0.1292-0.4714-0.1986-0.7274-0.2012-0.6006 0-1.1338 0.3791-1.649 0.7431-0.156 0.1158-0.3169 0.2249-0.4822 0.3271-0.4325 0.2696-0.7577 0.7294-0.8513 1.207-0.7012 0.3504-1.3873 0.7719-1.7069 1.4684-0.1515 0.2984-0.1805 0.6624-0.2094 1.0127-0.0117 0.1664-0.031 0.3322-0.0579 0.4968-0.0546 0.1113-0.1167 0.2187-0.1859 0.3216-0.1943 0.2655-0.3665 0.6582-0.3665 0.9005 0 0.5104 0.1901 0.7048 0.4767 0.947 0.3485 0.2463 1.2963 0.5337 1.9727 0.7007 0.0494 0.0133 0.1004 0.0197 0.1516 0.0191 0.2066 0 0.3719-0.1054 0.5303-0.2053 0.0758-0.0465 0.1516-0.0985 0.2384-0.1368 0.5579 0.1327 1.3817 0.3038 2.1821 0.3038 0.4151-9e-4 0.7917-0.0465 1.1297-0.1369 0.8155-0.2189 1.5112-1.3165 1.8873-1.909 0.0909-0.1423 0.1818-0.2833 0.2053-0.3025 0.0234-0.0116 0.0497-0.0163 0.0757-0.0136 0.124 0 0.3251 0.0561 0.5387 0.1176 0.2479 0.0712 0.5345 0.1506 0.7921 0.1752 0.9189 0.0808 1.7964-0.4872 2.364-0.9087 0.2328-0.171 0.4849-0.4119 0.7329-0.6432 0.2755-0.2614 0.5579-0.531 0.8017-0.6924 0.3221-0.1292 0.6667-0.1934 1.014-0.1889 0.124-9e-4 0.2608 0.0055 0.4105 0.0192 0.6613 0.1368 1.5292 0.2983 2.3736 0.2983 0.8431 0 1.4823-0.1423 2.0389-0.4311l0.5152-0.2655c0.558-0.2832 1.1297-0.572 1.6725-0.8662 1.0483-0.5639 1.4685-1.4917 1.8115-2.2348l0.0854-0.1889c0.2012-0.431 0.5056-1.2125 0.5869-1.4068 0.1607 0.0228 0.3293 0.0338 0.5056 0.0329 0.5662 0 1.1241-0.1177 1.6628-0.2327 0.529-0.1122 1.0814-0.2258 1.6338-0.2258 0.2921 0 0.558 0.0274 0.8252 0.0944 0.9919 0.1944 2.2979 0.4174 3.6273 0.4174 0.6887 0.0062 1.376-0.0654 2.0485-0.2135 0.1529 0.1465 0.3251 0.2738 0.4918 0.3969 0.1653 0.1232 0.3182 0.2368 0.4615 0.375-0.1529 0.027-0.3069 0.0475-0.4615 0.0616-0.4629 0.052-0.9437 0.104-1.2963 0.4789-0.3814-0.1532-0.7901-0.2277-1.2013-0.2189-0.4664 0.0107-0.9315 0.0551-1.3914 0.1327-0.1865 0.0274-0.3678 0.0525-0.5442 0.0753-0.7094 0.0848-1.1957 0.3558-1.4478 0.8143-0.153 0.2983-0.2673 0.6117-0.0193 1.1221l1.3955 2.3005c0.1722 0.2983 0.4574 0.5406 0.653 0.5542 0.1047 0.0096 0.2438 0 0.3954-0.0136 0.1212-0.011 0.242-0.0174 0.3623-0.0192 0.2241 0 0.3595 0.0379 0.4064 0.1136 0.0698 0.1076 0.1377 0.2148 0.2039 0.3216 0.2865 0.4461 0.5813 0.91 1.029 1.3028 0.6778 0.5871 1.7689 0.832 2.7938 0.5967 0.3858-0.1414 0.7715-0.2806 1.1572-0.4174 1.2068-0.4311 2.4549-0.8759 3.6645-1.3863l2.0072-0.2847c0.6626-0.1286 1.1682-1.0181 1.3349-1.3876l0.0427-0.0849s0.6061-1.1933 0.7907-1.9173c0.0097 0.1232 0.0097 0.2874 0.0097 0.516 0 1.1262 0.2011 2.5522 2.1353 2.477 1.0773-0.0438 2.5073-0.6775 3.5267-0.8622 1.0676-0.1806 2.459 0.2696 3.4936-0.2326 1.0057-0.4065 1.5829-1.1838 1.7441-1.0223 0.6675 0.6463 1.4602 1.1513 2.3299 1.4844 0.8698 0.3331 1.7985 0.4873 2.7301 0.4534 1.4451-0.0465 1.6021-1.1975 0.5923-1.7189 1.9714 0.2272 2.5541-0.832 2.1863-1.1741-0.2342-0.2176-0.3719-0.3257-1.12-0.7431v0.0109zm-17.715-1.0702c-0.744-0.999-1.2289-1.7079-1.3005-2.622 0.9478-0.1095 1.8157-0.4215 3.2264-0.4968-0.3679 1.0839-1.6298 1.5998-1.9301 3.1147l0.0042 0.0041zm83.829 6.3595c-0.068-0.1328-0.134-0.26-0.172-0.3558-0.062-0.2121-0.072-0.4352-0.086-0.672-0.014-0.26-0.027-0.5309-0.11-0.7855-0.223-0.739-1.019-1.1988-1.663-1.4588-0.023-0.2792-0.076-0.5816-0.337-0.7664-1.112-0.7869-1.693-1.2316-2.007-1.4684-0.186-0.1423-0.253-0.1943-0.291-0.208-0.132-0.0609-0.275-0.0936-0.42-0.0958-0.491 0-0.882 0.3887-1.262 0.7582l-0.262 0.2559c-0.01 0.0096-0.014 0.0096-0.029 0.0096-0.12 0-0.368-0.3641-0.43-0.5297-0.11-0.2942-0.194-0.5734-0.281-0.843-0.142-0.5021-0.325-0.9918-0.548-1.4643-0.419-0.8279-1.314-0.8416-2.106-0.8553h-0.224c-0.362 0-0.84-0.052-0.925-0.2901-0.086-0.2354 0.091-0.6815 0.201-1.0072 0.076-0.2272 0.147-0.4407 0.171-0.6487 0.201-0.8895 0.215-2.0746 0.038-3.0353 0.2 0.0054 0.4 0.0273 0.61 0.052 0.18 0.0246 0.368 0.0419 0.563 0.052h0.172c1.191 0 2.197-0.2327 3.073-0.7048 1.768-1.0565 2.85-2.7603 2.893-4.5736-0.062-0.947-0.286-1.7284-0.771-2.6945-0.653-1.2782-1.74-2.5373-3.327-3.8442 0.919-0.1888 1.682-0.4105 2.387-0.8526 1.44-0.9086 2.078-2.5563 1.797-4.6433-0.076-0.4927-0.268-1.3452-0.686-1.5669-0.061-0.0318-0.128-0.0482-0.196-0.0479-0.305 0-0.601 0.327-0.862 0.6158-0.097 0.1095-0.191 0.208-0.272 0.2792-0.49 0.4351-1.068 0.5487-1.672 0.6678-0.32 0.0616-0.648 0.1273-0.959 0.2409-1.449 0.4693-3.913 1.5382-4.133 3.4842-0.213 1.9227 1.164 3.216 2.499 4.4654 0.442 0.416 0.868 0.8088 1.229 1.2262 0.771 0.8854 1.43 1.7654 1.258 2.7603-0.061 0.3407-0.547 0.8621-1.01 1.0701-0.355 0.1223-0.718 0.1834-1.091 0.1834-1.235 0-2.422-0.6706-3.465-1.2686l-0.149-0.0848c-2.42-1.6669-4.922-3.3939-8.024-3.7224-1.182-0.2258-2.207-0.936-3.203-1.6285-0.229-0.1601-0.459-0.3174-0.692-0.4721-1.043-0.6087-2.193-1.0168-3.389-1.2029-0.62-0.0808-1.11-0.4831-1.629-0.9033-0.269-0.2315-0.556-0.4419-0.857-0.6295-1.217-0.78-2.573-1.3203-3.995-1.5915-0.141-0.0422-0.283-0.0769-0.428-0.1041-0.371-0.0766-0.759-0.1614-1.026-0.4406-0.409-0.479-0.972-1.0948-1.653-1.5765-0.911-0.6063-2.325-1.2508-3.56-1.2508-0.249-0.0034-0.498 0.027-0.74 0.0903-0.686 0.171-1.219 0.5679-1.7821 0.9894l-0.2136 0.156c-1.1296 0.8759-2.6312 2.0801-3.8132 2.9177-3.5267 2.4948-4.852 3.5882-6.6002 5.4877-4.4993 4.8801-3.1313 12.185-7.0203 16.418-1.0057 1.0976-1.2867 1.2399-1.6531 1.5437-0.4546 0.3777-0.5593 2.3908 2.386 1.4055-1.3432 1.1413-0.4959 1.6709 0.3857 1.6901 1.5554 0.0328 3.2705-0.5023 4.9526-2.2813 1.1682 1.6696 3.2029 0.8991 4.2609 0.9853 0.9919 0.0794 2.8172 1.1496 3.8794 1.088 1.6201-0.0999 2.2166-1.7093 2.054-2.6043 0.2618 0 0.3334-0.0616 0.405-0.1889 0.1915 0.932 0.3196 1.5711 0.5015 2.0391 0.0156 0.0347 0.0358 0.0757 0.0606 0.1232v0.0109c0.1157 0.2026 0.354 0.6528 0.5928 0.8704 0.275 0.3312 0.69 0.375 1.019 0.375 0.134 0 0.267-0.0096 0.395-0.0137 0.147-0.01 0.29-0.0151 0.429-0.0151 0.123 0.0911 0.24 0.1889 0.352 0.2929 0.262 0.2272 0.529 0.4653 0.859 0.5542 1.534 0.3928 2.807 0.7431 4.042 1.1742 0.252 0.0808 0.638 0.1848 1.023 0.1848 0.126 0 0.247-0.011 0.363-0.0329 1.173-0.2518 2.218-1.2494 2.474-2.3812 0.019-0.1751 0.147-0.1902 0.366-0.1998 0.159-0.0041 0.339-0.0137 0.44-0.1272 0.637-0.5064 1.029-1.203 1.41-1.8708 0.079-0.1423 0.162-0.2856 0.248-0.4297 0.099-0.1687 0.154-0.3586 0.162-0.5533 9e-3 -0.1948-0.031-0.3886-0.115-0.5648-0.124-0.2463-0.348-0.4242-0.672-0.5337-0.61-0.1711-1.291-0.1861-1.878-0.1861h-0.647c-0.306 0-0.659 0-1.002-0.0329l-0.248-0.2696c-0.18-0.1614-0.409-0.1984-0.634-0.2367l-0.161-0.0274 0.557-0.4324c0.223 0.0064 0.444 0.0096 0.662 0.0096 1.297 0 2.488-0.1136 3.552-0.3353 0.946-0.226 1.915-0.3454 2.887-0.3558 0.13-0.0019 0.262 0.0013 0.396 0.0095 0.159 0.0092 0.318 0.0201 0.477 0.0329 0.581 0.0383 1.177 0.0821 1.772 0.0821 0.787 0 1.426-0.0725 1.998-0.2231 0.072 0.2833 0.128 0.5625 0.181 0.8376 0.209 1.0318 0.405 2.0076 1.205 2.8547 0.482 0.6103 1.11 0.9607 1.722 1.3069 0.314 0.1752 0.634 0.3736 0.942 0.5775 0.411 0.208 0.74 0.2408 1.211 0.2408 0.657 0 1.496-0.2791 1.973-0.2791 1.988 0 3.522 1.0701 5.185 2.362 0.296 0.1943 0.659 0.2942 1.073 0.2942 0.505 0 1.072-0.1505 1.568-0.4173l0.039 0.0574c0.303 0.4256 0.624 0.8718 1.052 1.218 0.615 0.5529 1.411 0.6295 2.108 0.6295 0.233 0 0.475-0.0109 0.709-0.0205 0.334-0.0137 0.671-0.0274 0.996-0.0137 0.129 0.1793 0.377 0.3175 0.572 0.3079 0.196-0.0096 2.345-0.7061 2.459-0.7431 0.115-0.0369 0.276-0.1327 0.276-0.1327 0.52-0.2655 0.143-1.0127-0.133-1.5629l-9e-3 0.0151zm-44.505-6.2897c-0.5194-1.0263-0.9258-1.9501-1.5691-2.9149 1.474 0.3449 3.1545 0.1779 3.1545 0.1779-0.475 0.6733-1.0192 1.634-1.5854 2.737z" fill="#fc0"/>
<path d="m108.35 61.786c-0.077-0.0958-0.229-0.1095-0.315-0.1095-0.037-9e-4 -0.074 9e-4 -0.111 0.0055-0.266 0.0328-0.509 0.0465-0.761 0.0465-0.131-6e-4 -0.26-0.0038-0.39-0.0096-0.106 0-0.201-0.0095-0.297-0.0095-0.157 0-0.285 0.0095-0.413 0.0342h-0.03l-0.014 0.0273c-0.019 0.0384-0.51 0.8896-0.444 1.4301 0.072 0.583 0.667 0.7007 1.12 0.791 0.163 0.0329 0.349 0.0657 0.539 0.0657 0.323-9e-4 0.539-0.1081 0.648-0.3216 0.236-0.5757 0.405-1.1762 0.505-1.79 8e-3 -0.0292 9e-3 -0.0598 2e-3 -0.0893-6e-3 -0.0295-0.02-0.057-0.039-0.0804v0.0096zm32.378 1.9214c-0.281-0.4024-0.771-0.7253-1.163-0.9854-0.156-0.0953-0.306-0.2009-0.449-0.3161l-0.08-0.0575c-0.089-0.0755-0.202-0.1172-0.319-0.1176-0.444 0-0.925 0.5296-0.934 0.7088-0.014 0.2655 0.366 0.739 0.862 1.3275l0.105 0.1273c0.252 0.2983 0.522 0.4575 0.81 0.4776 0.291 0 0.519-0.0958 0.763-0.3216 0.181-0.1656 0.581-0.583 0.4-0.8389l5e-3 -0.0041zm2.075 3.4281c-0.069-0.1338-0.126-0.273-0.171-0.416-0.041-0.2006-0.073-0.4029-0.096-0.6063-0.042-0.323-0.08-0.6295-0.181-0.8663-0.072-0.146-0.183-0.2696-0.32-0.3574-0.138-0.0878-0.297-0.1365-0.461-0.1407-0.113-0.0013-0.225 0.025-0.325 0.0766-0.485 0.2409-0.777 0.5023-0.696 1.0456 0.267 0.791 0.4 1.3644 0.577 2.1444 0.02 0.1191 0.101 0.5119 0.29 0.5119 0.015 0 0.03-0.0014 0.044-0.0042l1.397-0.4543c0.032-0.0096 0.062-0.026 0.088-0.0482 0.025-0.0223 0.045-0.0497 0.059-0.0804 0.081-0.1848-0.066-0.4968-0.209-0.8006l4e-3 -0.0041z" fill="#D2003C"/>
<path d="m140.34 68.253c-0.111-0.8524-0.349-1.6836-0.707-2.4661l-0.018-0.0369h-0.043c-0.811 0.0506-1.311-0.6021-1.797-1.2276-0.162-0.208-0.31-0.4023-0.472-0.572-0.24-0.2676-0.5-0.5178-0.776-0.7486-0.287-0.2463-0.529-0.4639-0.625-0.6568-0.114-0.2382-0.238-0.6925-0.358-1.1332-0.085-0.312-0.165-0.6103-0.242-0.8142l-0.048-0.1273c-0.148-0.3887-0.324-0.8717-0.83-0.9511-0.252-0.0424-0.529-0.052-0.79-0.0616-0.731-0.0287-1.464-0.156-1.84-0.6774-0.348-0.479-0.206-0.9237-9e-3 -1.3959 0.085-0.2094 0.147-0.3832 0.195-0.583 0.262-0.8758 0.353-1.9651 0.152-2.7274-0.032-0.123-0.071-0.2445-0.114-0.364-0.105-0.3175-0.229-0.8006-0.152-0.947 0.08-0.1465 0.161-0.1711 0.309-0.1711 0.129 0 0.277 0.0438 0.414 0.0821 0.101 0.0274 0.177 0.0411 0.273 0.0657 0.361 0.0849 0.905 0.1834 1.401 0.1834 0.82 0 1.681-0.1752 2.425-0.4927 1.406-0.676 2.793-2.2046 2.722-4.0987-0.186-1.9172-1.378-3.7688-3.651-5.6669-0.052-0.0479-0.114-0.0958-0.172-0.1424-0.295-0.2422-0.653-0.5487-0.661-0.8197-9e-3 -0.271 0.7-0.4352 1.143-0.5392 0.104-0.0219 0.196-0.0438 0.276-0.0657l0.114-0.0287c0.568-0.1464 1.149-0.2983 1.631-0.6295 1.62-1.0853 1.562-2.9929 1.378-4.044-9e-3 -0.0273-0.017-0.0602-0.025-0.0985-0.028-0.1368-0.066-0.3079-0.196-0.3079-0.047 0.0031-0.091 0.023-0.124 0.0561l-0.147 0.1369c-0.186 0.1765-0.391 0.3749-0.63 0.5063-0.514 0.3038-1.133 0.4324-1.729 0.5556-0.381 0.0794-0.777 0.1601-1.143 0.2874-1.612 0.5542-2.612 1.3644-2.97 2.4099-0.186 0.5447-0.086 1.2317 0.271 1.894 0.529 0.8294 1.287 1.5533 2.025 2.254 1.164 1.1085 2.364 2.2484 2.641 3.8017 0.152 0.9032-0.219 1.6668-1.129 2.3251-0.477 0.2833-1.087 0.4352-1.764 0.4352-0.857-0.0074-1.7-0.2186-2.459-0.6159-0.943-0.468-1.854-1.0742-2.736-1.6613-1.325-0.88-2.697-1.79-4.217-2.2717-0.658-0.2998-1.391-0.4462-2.098-0.5885-1.005-0.2025-2.044-0.4106-2.879-1.0606-0.287-0.1876-0.568-0.3834-0.843-0.5871-0.758-0.5433-1.539-1.1085-2.425-1.3302-0.33-0.1136-0.653-0.156-0.968-0.2025-0.486-0.0712-0.938-0.1328-1.358-0.4311l-0.572-0.4119c-0.705-0.5118-1.434-1.0414-2.163-1.4068-1.254-0.62-2.589-0.9416-4.08-1.2632-0.477-0.1136-0.772-0.4694-1.087-0.8484-0.21-0.2546-0.429-0.516-0.706-0.7007-1.147-0.9032-2.192-1.5095-3.536-1.5095-0.126 0-0.251 0.0046-0.376 0.0137-0.706 0.0479-1.392 0.5775-1.849 0.9757-1.339 1.1633-2.7827 2.2006-4.1741 3.2051-2.0802 1.4917-4.2238 3.034-6.0588 5.0279-1.806 1.8516-2.459 4.1602-3.0982 6.4005-0.0951 0.3312-0.1846 0.6582-0.2852 0.9894-0.1722 0.6117-0.3293 1.2412-0.4822 1.8475-0.8279 3.2981-1.6807 6.5948-4.9993 8.7338-0.2191 0.1423-0.1419 0.4174 0.062 0.4927 0.0867 0.0328 1.4781 0.4967 2.8654-0.8855 0.8376-1.0318 1.3046-1.9843 2.3061-3.049 0.0331-0.0328 0.1474-0.1232 0.2425-0.1136 0.0675 0.0329 0.0868 0.0671 0.0675 0.1848-0.1295 0.4269-0.3913 0.8005-0.6475 1.1646-0.2617 0.3736-0.5304 0.7581-0.664 1.1974-0.3182 0.947-1.2054 1.7148-1.992 2.3867 0 0-0.124 0.0807-0.1943 0.1711-0.0716 0.0889-0.0716 0.1272-0.0716 0.1272-0.0248 0.208 0.1419 0.3367 0.4808 0.3504 1.8597 0 3.1836-1.3111 4.4607-2.5851 0.0278-0.0281 0.0615-0.0498 0.0986-0.0637 0.0371-0.014 0.0767-0.0198 0.1163-0.0171 0.0699-0.0021 0.1396 0.0091 0.2053 0.0329 0.0854 0.0479 0.281 0.2381 0.4325 0.3695 0.4202 0.3694 0.8486 0.7526 1.4107 0.8662h0.0193c0.6778-0.0944 1.2867-0.1697 1.9163-0.1697 0.1836-9e-4 0.3522 0.0055 0.5055 0.0192 0.6765 0.2025 1.3584 0.4584 2.0114 0.7007 0.4615 0.1751 0.9381 0.3503 1.4189 0.5104h0.0207c0.6199-0.0233 1.0607-0.5953 1.3859-1.103 0.1515-0.3599 0.0812-0.7103 0.0096-1.051-0.0427-0.2121-0.0854-0.4106-0.0716-0.6063 0.1143-0.0561 0.2713-0.0465 0.4394-0.0232 0.1474 0.0232 0.361 0 0.4326-0.0096 0.1625-0.0233 0.3334-0.208 0.2865-0.4489-0.124-0.6158-0.4339-0.9949-0.7439-1.4684-0.2714-0.4023-0.529-0.78-0.6571-1.207-0.2053-0.5638-0.6392-1.0319-1.058-1.4862-0.4863-0.5255-0.9437-1.0237-1.0828-1.6532 0 0-0.0413-0.1327 0.0055-0.1847s0.1763 0.0096 0.1763 0.0096c0.2232 0.1615 0.4478 0.3421 0.6613 0.5159 0.7067 0.5693 1.4355 1.1605 2.3226 1.2932 0.8239 0.0808 1.7294 0.1848 2.6104 0.1095 0.234-0.0383 0.353-0.2422 0.296-0.4365-0.352-0.739-0.715-1.5328-0.934-2.4004-0.186-0.6528-0.6002-2.3716-0.176-3.669 0.043-0.1272 0.128-0.171 0.205-0.171 8e-3 -9e-4 0.019 9e-4 0.033 0.0054 0.144 0.0329 0.239 0.204 0.258 0.3353l0.014 0.1711c0.124 1.7654 0.242 3.4322 1.329 4.8527 0.291 0.4598 0.706 0.7007 1.106 0.9374 0.276 0.1615 0.596 0.308 0.797 0.5639 0.228 0.2874 0.266 0.78 0.11 1.0783l-1.336 1.957c-0.315 0.4448-0.62 0.9224-0.729 1.4096-0.099 0.4926-0.057 0.9716-0.014 1.4355l0.01 0.1123c-0.043-0.0263-0.078-0.0637-0.101-0.1082-0.537-0.9661-0.647-1.7845-0.372-2.414 0.177-0.4078 1.263-1.9364 1.578-2.4387 0.1-0.1615 0.181-0.3216 0.096-0.4311-0.106-0.1368-0.92-0.483-1.135-0.483-0.014-1e-3 -0.028 9e-4 -0.043 0.0054-0.19 0.052-0.314 0.2272-0.424 0.3832l-0.076 0.104-1.6448 2.9642-0.0386 0.1095c-0.0951 0.297-0.1791 0.5529-0.0951 0.8936 0.091 0.4448 0.2287 0.9238 0.3334 1.2727l0.0871 0.2902c0.147 0.5159 0.285 0.999 0.514 1.2686 0.068 0.0822 0.155 0.1473 0.254 0.1901 0.098 0.0427 0.206 0.062 0.313 0.0562 0.124 0 0.252-0.0192 0.376-0.0383 0.207-0.0329 0.43-0.0561 0.597-0.0137 0.248 0.0616 0.419 0.2463 0.6 0.4352 0.181 0.1943 0.367 0.3927 0.644 0.4735 0.509 0.171 1.043 0.3079 1.558 0.4406 0.686 0.1793 1.397 0.3641 2.073 0.6241 0.382 0.1231 0.791 0.2367 1.186 0.2367 0.44 0 0.711-0.1231 1.093-0.4297 0.533-0.4311 0.709-0.858 0.843-1.4725 0.104-0.5638 0.295-0.6021 0.705-0.6254 0.2-0.0096 0.229 0 0.424-0.0657 0.206-0.0671 0.801-0.791 1.111-1.3822 0.087-0.1624 0.174-0.3079 0.262-0.4365 0.082-0.1075 0.127-0.2385 0.129-0.3736 0-0.2943-0.248-0.3832-0.405-0.3887h-0.106s-1.754-0.0137-2.235 0c-0.719 0.0383-1.033 0.7253-1.286 1.3357-0.101 0.2367-0.192 0.4543-0.31 0.6486-0.19 0.3408-0.562 0.5488-1.02 0.5392-0.133 0-0.429-0.0807-0.581-0.1177-0.949-0.2326-1.926-0.4694-2.327-1.4068-0.037-0.1601-0.099-0.4927 0.138-0.7718 0.506-0.5816 1.174-1.3206 1.86-1.8502 0.953-0.1998 1.906-0.9005 2.43-1.7805 0.11-0.1519 0.167-0.3312 0.224-0.5022 0.086-0.2655 0.166-0.5159 0.41-0.6719 0.152-0.0767 0.276-0.0521 0.31 0.0807 0.09 0.4927-0.096 0.9648-0.282 1.4232-0.041 0.1023-0.081 0.2054-0.118 0.3093l-0.029 0.0753 0.081 0.0096c0.264 0.0246 0.532 0.0374 0.805 0.0383 0.978 0 1.907-0.1656 2.807-0.3271 0.892-0.1615 1.816-0.3271 2.769-0.3271 0.102-9e-4 0.205 1e-3 0.31 0.0055 0.425 0 0.834 0.037 1.235 0.0712 0.391 0.0328 0.796 0.0711 1.201 0.0711 0.142 0 0.276 0 0.409-0.0136 1.221-0.0575 2.108-0.6077 2.374-1.478 0.252-0.7431 0.224-2.0254-0.081-3.8168-0.014-0.0848-0.024-0.141-0.024-0.1505v-0.0329c0-0.067 0-0.1368 0.091-0.1806 0.114-0.0616 0.234 0 0.289 0.1464 0.463 1.2878 0.731 2.7699 0.874 3.788 0.157 0.9895 0.571 1.9926 1.277 3.0628 0.872 1.2932 2.311 2.0363 3.945 2.0363 0.382 0 0.764-0.0712 1.14-0.1191 0.261-0.0328 0.362-0.0191 0.538-0.0191 2.079 0 3.885 0.895 5.234 2.5864 0 0 0.023 0.0329 0.023 0.0794 0 0.0712-0.104 0.1423-0.195 0.104l-0.177-0.1368c-1.171-0.9032-2.383-1.8366-3.903-2.0213-0.283-0.0484-0.57-0.0722-0.858-0.0712-0.43 0.0065-0.86 0.038-1.286 0.0945-0.419 0.0479-0.81 0.0958-1.216 0.0958-0.471 0.0086-0.939-0.0751-1.377-0.2464-1.75-0.5748-3.178-2.5728-3.637-3.8126-0.017-0.0349-0.043-0.0644-0.075-0.0852-0.033-0.0208-0.071-0.0321-0.11-0.0325-0.047-9e-4 -0.097 0.015-0.148 0.0479-0.204 0.1272-0.239 0.1929-0.266 0.3161-0.029 0.104 0.142 0.9949 0.219 1.3781 0.228 0.947 0.571 2.3771 1.82 2.9067 0.154 0.0921 0.308 0.1884 0.462 0.2887 0.625 0.3969 1.268 0.8102 2.006 0.8102 0.178 0 0.352-0.0237 0.524-0.0712 0.445-0.0967 0.897-0.1455 1.354-0.1464 1.44 0 2.903 0.4872 4.133 1.3767 0.204 0.1191 0.399 0.2792 0.585 0.4366 0.268 0.2217 0.539 0.4488 0.864 0.5679 0.204 0.0821 0.423 0.1232 0.657 0.1232 0.558 0 0.7-0.1656 1.097-0.3599 0.145-0.0716 0.305-0.1104 0.467-0.1136 0.448 0 0.695 0.3448 1.01 0.7855 0.19 0.2655 0.405 0.5638 0.695 0.8238 0.405 0.3928 0.967 0.4407 1.411 0.4407 0.244 0 0.486-0.0192 0.725-0.0329 0.228-0.0136 0.505-0.0246 0.653-0.0383 0.143-0.0191 0.224-0.0383 0.224-0.0383v-0.0561l0.01 0.0178zm-47.356-6.6031c-0.0799 0.1465-0.2755 0.2313-0.5331 0.2313-0.214 0.0045-0.4246-0.0531-0.6062-0.1656-0.3333-0.2367-0.5276-0.6295-0.5565-1.1454-0.0055-0.1191-0.0138-0.2422 0.1474-0.3599 0.0813-0.0479 0.1295-0.0479 0.2245-0.0479 0.3183 0 0.8294 0.2039 1.1007 0.531 0.0193 0.0232 0.4436 0.5816 0.2246 0.9607l-0.0014-0.0042zm0.4588-7.2872c-0.1199 0.1519-0.3003 0.2654-0.4767 0.1806-0.1667-0.0575-0.3155-0.271-0.405-0.4311-0.1143-0.2039-0.2108-0.3791-0.4822-0.3599h-0.0427c-0.2383 0.0192-0.4188 0.1369-0.6103 0.2833-0.095 0.0766-0.4821 0.3613-0.5758 0.4406-0.5194 0.4366-1.0442 0.8855-1.1682 1.4958-0.0261 0.109-0.05 0.2185-0.0717 0.3285-0.0385 0.2121-0.0757 0.4338-0.2576 0.5474h-0.0137c-0.0245 0.0146-0.0529 0.0212-0.0813 0.0191-0.0823-0.0028-0.1612-0.0326-0.2246-0.0848-0.0325-0.0245-0.0591-0.0559-0.0779-0.0919-0.0189-0.0359-0.0294-0.0756-0.0309-0.1161-0.0909-1.0511 0.2672-1.9981 1.0098-2.67 0.4821-0.3928 0.8679-0.8854 1.244-1.3644 0.1818-0.2326 0.3719-0.4735 0.5675-0.6952 0.1475-0.1464 0.3913-0.0233 0.7908 0.4106 0.1667 0.1806 0.6916 1.0674 0.9299 1.649 0.0277 0.0725 0.0395 0.15 0.0348 0.2274-0.0048 0.0774-0.026 0.1529-0.0624 0.2215l0.0042 0.0096zm8.755-12.219c-0.2 0.1902-0.411 0.379-0.62 0.5734-0.744 0.6719-1.511 1.3685-2.0157 2.154-0.2383 0.3216-0.4146 0.6911-0.5868 1.051-0.0193 0.0383-0.062 0.1177-0.1433 0.1177-0.0421-0.0027-0.0815-0.0213-0.1102-0.052-0.1419-0.1423-0.0234-1.1318 0.1626-1.6285 0.4105-1.0976 1.3394-2.2485 2.5554-3.1531 0.135-0.0821 0.29-0.1261 0.448-0.1272 0.228 0 0.405 0.104 0.476 0.2832 0.152 0.2423 0.097 0.5256-0.166 0.7815zm-49.663 20.808c-0.0428-0.0712-0.0824-0.1442-0.1185-0.219-0.124-0.2312-0.1901-0.4776-0.2521-0.6911-0.124-0.4297-0.2287-0.8046-0.7012-0.739-0.6668 0.0958-1.3156 0.1383-2.0389 0.1383-0.011 0-0.2342 0-0.3058 0.156-0.0813 0.1806 0.1006 0.3503 0.2962 0.5255 0.1088 0.0999 0.2231 0.2039 0.2989 0.3175 0.1336 0.1943 0.2618 0.4735 0.3858 0.7431 0.1956 0.4311 0.3678 0.8006 0.5634 0.8621 0.0896 0.0255 0.1824 0.038 0.2755 0.037 0.4546 0 1.0773-0.2409 1.5305-0.5912 0.2522-0.2135 0.1723-0.3558 0.0579-0.5447l0.0083 0.0055zm-32.593-0.6719-0.0372-0.0288c-0.1378-0.1095-0.3858-0.0958-0.5538 0.0192-0.1144 0.0794-0.2342 0.156-0.3472 0.2326-0.3719 0.245-0.7577 0.4954-1.1627 0.8362-0.1488 0.1232-0.2301 0.3558-0.2438 0.5351-0.0138 0.1423 0.0137 0.2559 0.0716 0.3284 0.0331 0.037 0.3293 0.3627 0.3913 0.416 0.13 0.115 0.2971 0.18 0.4711 0.1834 0.1395-0.0033 0.2763-0.0389 0.3995-0.104 0.7205-0.3585 1.4644-1.6846 1.4933-1.7613 0.0758-0.2121-0.1667-0.4064-0.4821-0.6568zm-2.3737 3.1434c-0.1474-0.208-0.6378-0.7814-0.9147-0.7814-0.0234 0-0.0482 0-0.0661 0.0137-0.3816 0.156-0.8252 0.6487-0.8486 0.9429-0.0965 1.2823-0.1337 1.4191-0.4863 1.8133-0.1006 0.1094-0.1667 0.364-0.0524 0.4735 0.0992 0.0985 1.368 0.4967 1.5099 0.4967h0.0289c0.1144-0.0383 0.2094-0.327 0.4684-1.2125 0.1378-0.4789 0.2948-1.0181 0.4712-1.5053 0.0096-0.0329 0.0137-0.0808-0.1006-0.2409h-0.0097z" fill="#D2003C"/>
<path d="m56.441 65.338c0.5194-0.0383 1.058-0.0767 1.4396-0.479 0.4822-0.6966 0.8955-1.3959 1.2592-2.1349 0.3237-0.6637 0.3278-1.3124 0.0096-1.8187-0.9588-1.5245-1.1296-1.9269-1.5209-2.9628l-0.0096-0.0288-0.0276-0.0096c-0.1132-0.0349-0.2249-0.0746-0.3347-0.119-0.2342-0.089-0.4822-0.1889-0.7619-0.1889h-0.0385c-0.3293 0.0096-0.5524 0.1136-0.6434 0.2943l-0.0137 0.0273 1.7385 3.409c0.1102 0.2655 0.2383 0.5351 0.1722 0.9333-0.0675 0.3969-0.9202 1.7325-1.1779 1.9022-0.043 0.0353-0.0959 0.0568-0.1515 0.0616-0.0193 0-0.1102-0.0178-0.0537-0.2176 0.1625-0.5529 0.3678-1.8557 0.3099-2.2717-0.062-0.4831-1.5195-2.8793-1.5815-2.9834l-0.0289-0.041c-0.2245-0.3654-0.4574-0.7445-0.4381-1.1851 0-0.2039 0.1901-0.3449 0.3279-0.3969 0.2535-0.0958 0.4959-0.1327 0.7536-0.1902 0.6199-0.1369 1.2577-0.2737 1.4878-0.62 0.6957-1.051 1.109-2.1485 1.3859-3.6689 0.0137-0.0671 0.062-0.1943 0.157-0.1943 0.0579 0 0.1144 0.0191 0.1378 0.1505 0.1259 0.7189 0.1066 1.4555-0.0569 2.1669-0.1634 0.7114-0.4677 1.3834-0.8951 1.9769-0.0603 0.0993-0.0823 0.217-0.062 0.3312 0.0193 0.1232 0.1571 0.2231 0.1571 0.2231 0.3334 0.2271 1.5539 0.0944 2.4398-0.3654 0.6764 0.0137 1.3114-0.104 1.93-0.2176 0.1965-0.0374 0.3903-0.0721 0.5813-0.104 0.062 0.0328 0.1103 0.0903 0.1199 0.1327-0.5194 0.5816-0.8348 1.2358-0.996 2.0542-0.1477 0.1486-0.3002 0.2923-0.4574 0.431-0.5676 0.516-1.1778 1.0948-1.2068 1.8325 0 0-0.0179 0.2655 0.2728 0.2832 0.0895 0.0055 0.1942-0.041 0.2893-0.0793 0.0933-0.0481 0.1965-0.0743 0.3017-0.0767 0.0444 0.0063 0.0852 0.0278 0.1154 0.0608 0.0301 0.033 0.0478 0.0754 0.0499 0.1199l-0.6475 0.9415c-0.2424 0.3928-0.1377 0.8102-0.0427 1.218 0.0716 0.2217 0.0386 0.3968 0.1006 0.5953 0.1612 0.4694 0.7384 0.6911 1.1958 0.6911 0.8431-0.037 1.6118-0.312 2.3543-0.5775 0.1336-0.0466 0.2617-0.0945 0.3995-0.141 0.8155-0.3503 1.9025-0.4215 3.1947-0.2135 1.0387-0.067 1.8198-0.7486 2.5775-1.4109 0.3242 0.0091 0.6581 0.1984 1.0015 0.5679 1.1242 1.1975 2.5018 1.7791 4.2128 1.7791h0.1956l0.1708-0.0137c0.1764-0.0411 0.2246-0.1273 0.2342-0.2368 0.0138-0.1313-0.0909-0.2641-0.281-0.3544l-0.9588-0.5063c-0.7674-0.4831-1.6008-1.0661-1.8295-1.8338-0.248-0.8184-0.7109-1.6505-1.058-2.2047-0.0708-0.1131-0.1457-0.2235-0.2246-0.3312-0.1336-0.1943-0.2755-0.3941-0.3719-0.6021 1.0442 0.3695 1.6297 1.1358 2.3364 2.4154 0.5235 0.9511 1.8874 1.9734 3.1782 1.9734 0.1722 0 0.3334-0.0192 0.4959-0.052 0.1378-0.0274 0.2287-0.1177 0.248-0.2368 0.0138-0.104 0-0.2039-0.1144-0.2655l-0.7824-0.3873c-0.9286-0.5405-1.4631-1.4301-1.9824-2.2963-0.2053-0.3421-0.4133-0.6911-0.6434-1.0086-0.1474-0.219-0.405-0.4448-0.6282-0.6432-0.1956-0.1752-0.3816-0.3421-0.416-0.4311-0.8472-2.3018-1.7716-5.0046-1.9962-8.0112-0.033-0.4585-0.3582-1.4671-0.7439-2.1212-1.2054-1.9501-4.0846-5.2879-4.2417-5.4535-0.0991-0.1035-0.2007-0.2048-0.3044-0.3038l-0.0772-0.0753-5.1853-4.2793c-1.0291-0.7198-1.3432-0.8485-2.0912-1.1126-0.5242-0.1791-1.0755-0.267-1.6297-0.26-0.7343 0-1.4686 0.141-2.0692 0.3969-0.4133 0.2189-0.8142 0.4735-1.2054 0.7198-0.6613 0.4215-1.3501 0.8567-2.0926 1.103-0.5814 0.26-1.2054 0.4503-1.8102 0.635-1.1779 0.3586-2.3929 0.7335-3.3559 1.6148-0.281 0.2546-0.5097 0.4681-0.7012 0.6528-0.8899 0.8334-0.9809 0.9224-1.7096 0.9224-1.6876 0-2.8834 0.4119-4.1329 1.4205-0.9863 0.8895-1.9631 1.7243-3.1024 2.1171-0.5097 0.1751-1.0772 0.2408-1.6779 0.2983-0.8624 0.0753-0.996 0.0849-1.8102 0.2792-1.2302 0.2792-2.5348 1.2864-3.6369 2.139-0.3623 0.2791-0.8431 0.6486-1.0718 0.7964-0.1198 0.0753-0.2617 0.1643-0.3774 0.2327-1.3721 0.7937-2.6643 1.5464-4.323 1.5464h-0.124c-1.2384-0.089-2.3626-0.9374-2.74-2.0596-0.3472-1.2631 0.0247-2.5605 1.029-3.5554 0.4767-0.4735 1.0195-0.9319 1.5498-1.3767 0.8487-0.7157 1.6491-1.3931 2.207-2.1349 0.6475-0.8621 0.5758-2.3155-0.1529-3.1065-0.7247-0.791-2.3447-1.1837-2.955-1.3302l-0.1047-0.0246c-0.062-0.0137-0.1667-0.0274-0.2246-0.0411-0.3857-0.0766-0.7577-0.1286-1.1337-0.2189-0.963-0.26-1.711-1.0031-2.5638-1.4575-0.3292 0.5009-0.4394 1.0456-0.3954 1.6518 0.1612 1.2782 1.2344 2.6043 2.4246 3.1435 0.0524 0.0191 0.1006 0.0424 0.153 0.0574 0.376 0.1602 0.7714 0.1848 1.1434 0.1848h0.4821c0.2287 0 0.5056 0 0.7522 0.0616 0.131 0.0375 0.2481 0.1121 0.3372 0.2147 0.089 0.1025 0.1461 0.2286 0.1643 0.3628 0.0193 0.1697-0.0579 0.3024-0.2755 0.468l-0.6062 0.4968c-1.0249 0.8389-2.083 1.7106-2.9412 2.7644-1.1531 1.2371-1.2054 3.3856-0.6668 4.7774 0.6861 1.8338 2.5831 2.8602 4.1604 3.0586 0.2811 0.0424 0.5621 0.0671 0.8583 0.0671 0.9285 0 1.8102-0.2231 2.6684-0.4366 0.0322-0.0082 0.0593-0.0114 0.0813-0.0096 0.0386 0 0.1143 0 0.1281 0.1944 0.0248 0.3791 0.0482 0.8101 0.0675 1.2262 0.0276 0.6774 0.062 1.3165 0.1102 1.5874 0.113 0.6008 0.4133 1.3343 0.6144 1.8174 0.0855 0.2039 0.1516 0.364 0.1709 0.4448 0.0771 0.2737 0.0055 0.5734-0.1805 0.7431-0.6475 0.5925-1.97 1.0606-2.2124 1.0948-0.3899 0.0465-0.8046 0.0698-1.1104 0.0848-0.1515 0.0082-0.2755 0.0137-0.3375 0.0233-0.1367 0.0141-0.2644 0.074-0.3623 0.1697-0.186 0.1806-0.3858 0.6965-0.6241 1.2932-0.1433 0.3599-0.2865 0.7335-0.4339 1.0414-0.4147 0.6816-1.1063 1.0839-1.7772 1.4671-0.169 0.0958-0.3343 0.1939-0.4959 0.2942l-0.0193 0.0192c-0.2755 0.4352-0.5538 0.8471-0.9106 1.1591-0.2755 0.2559-0.6296 0.3134-0.9726 0.3558h-0.0234l-0.0138 0.0192c-0.5249 0.5966-0.6916 1.3863-0.8582 2.1581-0.0248 0.1195-0.0506 0.2363-0.0772 0.3503l-0.0234 0.1095h0.0675c0.2755 0.0329 0.551 0.0903 0.8431 0.156 0.3857 0.0849 0.7811 0.1711 1.1723 0.1711 0.372 0 0.6861-0.0766 0.9726-0.2327 0.5001-0.2271 0.7674-0.6869 1.0291-1.1262 0.1722-0.2888 0.3486-0.5926 0.5869-0.8239 0.0663-0.0748 0.1485-0.1341 0.2407-0.1734 0.0923-0.0393 0.1921-0.0576 0.2924-0.0537 0.1956 0 0.4106 0.0561 0.6144 0.1135 0.1915 0.052 0.3858 0.104 0.5717 0.1136 0.9258 0.052 1.802-0.5255 2.2263-0.8621 0.186-0.1465 0.3719-0.3216 0.5524-0.4872 0.281-0.26 0.5676-0.531 0.8775-0.7199 0.3761-0.1806 0.8294-0.2654 1.3914-0.2654 0.6957 0 1.4341 0.1368 2.021 0.2463 0.3127 0.0807 0.6344 0.1221 0.9574 0.1231 0.5276 0.0097 1.0485-0.1177 1.5113-0.3694 0.5152-0.2874 1.0332-0.5584 1.4492-0.776 0.2425-0.1286 0.4574-0.2367 0.6241-0.3312 0.7384-0.4023 1.368-1.5204 1.6008-1.9843 0.2204-0.4311 0.5924-1.363 0.5965-1.3726l0.0193-0.0424-0.8638-0.6542-0.0331 0.0575s-0.5717 0.9319-0.9381 1.363c-1.5209 2.0555-3.9951 2.3196-5.9816 2.3196-0.1378-0.0054-0.2746-0.0086-0.4105-0.0095-2.4591 0-4.4415 0.8197-5.8907 2.4386-0.0662 0.0753-0.186 0.0904-0.2342 0.0233-0.0276-0.0369-0.0372-0.0985-0.0179-0.1752 0.0293-0.144 0.0844-0.2816 0.1625-0.4064 1.5388-2.1732 4.1701-2.4948 6.2902-2.5331 1.5677-0.104 2.707-0.3736 3.6989-0.8759 1.2729-0.6432 2.2111-2.0637 2.583-3.1913 0.2425-0.739 0.3624-1.5286 0.4767-2.2909 0.0909-0.6062 0.186-1.2316 0.3375-1.8092 0.0138-0.0358 0.0381-0.0667 0.0698-0.0887 0.0317-0.0219 0.0693-0.0339 0.1079-0.0344 0.0179 0 0.0331 0 0.0606 0.0137 0.0827 0.015 0.2342 0.0711 0.2342 0.1902-0.2149 1.1933-0.5055 2.8314 0.0427 4.1945 0.2577 0.5391 0.8004 0.8046 1.6683 0.8046 0.5235 0 1.0966-0.0903 1.6532-0.1751 0.4298-0.0657 0.8348-0.1328 1.182-0.1465 0.1469-0.0136 0.2966-0.02 0.4491-0.0191 0.6902 0 1.3583 0.1327 2.0016 0.26 0.5621 0.1136 1.1435 0.2272 1.7386 0.2559 0.1065 0.0055 0.2195 0.0137 0.3389 0.0246 0.2053 0.0178 0.4188 0.0329 0.6392 0.0329 0.5042 0 0.8624-0.0999 1.12-0.3079 0.1805-0.1465 0.1185-0.3695 0.0372-0.6487l-0.0138-0.052c-0.0128-0.0484-0.0289-0.1004-0.0482-0.156-0.1143-0.3695-0.2893-0.9279 0-1.1892 0.0473-0.034 0.1042-0.0523 0.1626-0.052 0.0468 0 0.1143 0.0136 0.1336 0.0903l0.095 0.3216c0.1282 0.4461 0.2618 0.91 0.5483 1.3069 0.6062 0.7664 1.5388 1.4958 2.7015 2.0979 0.7495 0.5105 1.6491 1.3726 1.7221 2.5755 0 0.5447-0.5346 0.9224-0.9299 1.1592-0.6255 0.3079-1.6931 0.6541-2.1973 0.6541-0.0669 5e-3 -0.1341-0.0063-0.1956-0.0328-0.7247-0.3832-1.0966-1.0045-1.492-1.6628-0.2067-0.361-0.4406-0.7059-0.6998-1.0318-0.3775-0.416-0.8542-0.5775-1.4975-0.5255-0.6199 0.0479-1.1916 0.1656-1.868 0.3079-0.066 0.0114-0.1281 0.0385-0.1811 0.079-0.0531 0.0406-0.0954 0.0933-0.1234 0.1536-0.0295 0.0718-0.0415 0.1496-0.035 0.2268 0.0065 0.0773 0.0312 0.152 0.0722 0.218 0.3527 0.624 0.6916 1.192 1.0539 1.7927l0.1625 0.271c0.0854 0.1464 0.2714 0.1656 0.423 0.1656 0.0826 0 0.1717-0.0046 0.2672-0.0137 0.101-0.0073 0.2044-0.0119 0.31-0.0137 0.3141 0 0.5152 0.0753 0.6433 0.2313 0.1102 0.1642 0.2053 0.3408 0.3003 0.5105 0.2384 0.4215 0.4822 0.8621 0.8914 1.1741 0.3719 0.3285 0.9092 0.5119 1.4726 0.5119 0.248 0 0.4863-0.0384 0.715-0.1041 1.6256-0.5063 3.2071-1.0263 4.7128-1.8269 0 0 0.5965-0.0096 0.8252-0.0287l-0.0055-0.0137zm2.7029-18.105c-0.0276 0.0999-0.0909 0.1656-0.1626 0.1656-0.0275 0-0.1047-0.0137-0.1281-0.1423-0.2714-1.3767-0.4339-2.0541-0.7535-2.6891-0.0992-0.2026-0.2287-0.3736-0.3375-0.5255-0.2342-0.3161-0.434-0.5871-0.2094-0.9552 0.0661-0.1095 0.2328-0.1807 0.4132-0.1807 0.091 9e-4 0.1722 0.0183 0.2439 0.052 0.2672 0.1287 0.529 0.4503 0.7962 0.9853 0.6668 1.359 0.1378 3.2762 0.1323 3.2954l0.0055-0.0055zm8.7175 13.721s-0.044 0.3886-0.2245 0.5583c-0.186 0.1656-0.8431 0.2559-1.1916 0.2464-0.3472-0.0137-0.4671-0.0616-0.5373-0.1656-0.0827-0.1191 0.051-0.3504 0.051-0.3504 0.0427-0.0848 0.4477-0.9237 1.2674-1.1454 0 0 0.2617-0.0958 0.5152 0.0274 0.2521 0.1231 0.1336 0.7485 0.124 0.8347l-0.0042-0.0054zm2.3723-5.4166c-0.024 0.1915-0.0819 0.3773-0.1708 0.5488-0.0427 0.0766-0.1144 0.2422-0.3527 0.2463-0.2617 0-0.2438-0.3024-0.2438-0.3448 0 0-0.0331-0.8485-0.1956-1.2029-0.1764-0.3887-1.0333-1.4821-1.5292-1.4342-0.124 0.0095-0.4477 0.2039-0.6861 0.5104-0.2906 0.375-0.2906 0.4215-0.3816 0.479-0.0909 0.0575-0.2052 0.0274-0.2424-0.1943-0.0386-0.2231-0.0827-0.4024 0.0234-0.8239 0.1047-0.4215 0.2094-0.5159 0.3334-0.8183 0 0 0.2576-0.5926 0.3527-0.739 0.2672-0.4024 0.6199-0.3736 0.6199-0.3736 0.095 0.0041 0.3995-0.0343 0.7301 0.3736 0.3802 0.4735 0.299 0.431 0.4037 0.5966 0.1047 0.1642 0.2204 0.3408 0.5345 0.6815 0.3141 0.3422 0.6612 1.0032 0.7577 1.4151 0.095 0.4119 0.0909 0.7622 0.0372 1.0811l0.0096-0.0014z" fill="#D2003C"/>
</svg>
