<svg width="169" height="94" viewBox="0 0 169 94" fill="none" xmlns="http://www.w3.org/2000/svg">
<path d="M79.3459 74.9811C93.0394 74.9811 104.143 63.9523 104.143 50.348C104.143 36.7436 93.0394 25.7148 79.3459 25.7148C65.651 25.7148 54.5488 36.7436 54.5488 50.348C54.5488 63.9523 65.651 74.9811 79.3459 74.9811Z" fill="#FFCC00"/>
<path d="M77.5793 61.7803C76.1783 60.9948 75.9014 59.447 75.1685 58.5C74.8682 58.125 74.3722 57.709 74.2386 57.3682C72.9753 54.1577 72.5469 52.354 72.1033 49.2202C71.8746 47.6149 70.8028 46.2615 69.2392 44.362C68.5573 43.534 67.5861 42.1655 66.7457 41.3567C63.9258 38.9947 62.4007 37.6823 60.5189 36.4233C60.1513 36.1755 59.7616 35.9616 59.3548 35.7842H59.3452C59.338 35.7827 59.3314 35.7794 59.3259 35.7746C58.6977 35.5009 58.1301 35.4243 57.3573 35.3818C57.2545 35.3758 57.1516 35.3726 57.0487 35.3722C55.6463 35.3722 54.3128 35.8786 52.9682 36.9105C51.9915 37.5454 50.8715 37.8999 49.7859 38.2406C48.4166 38.6717 46.9962 39.122 45.8391 40.1251C45.6324 40.2729 45.4437 40.4809 45.2577 40.6752C45.0042 40.9448 44.8237 41.2527 44.438 41.3759C44.1033 41.4512 43.8649 41.4512 43.5935 41.4744C43.1657 41.5064 42.7404 41.5668 42.3206 41.6551C40.8962 41.9903 39.8051 42.8621 38.6562 43.7858L38.2649 44.0978C37.521 44.6849 36.2398 45.22 35.5152 45.2433C33.4901 45.3049 32.056 45.7784 30.5641 46.8814C29.0239 48.0515 27.3749 49.2585 25.5495 50.0016C25.1303 50.1633 24.685 50.2482 24.2353 50.252C23.7586 50.252 23.0767 50.148 22.5339 49.6471C21.8424 49.0122 21.6137 47.7901 22.0283 46.9717C22.6483 45.7592 23.9102 44.7698 24.9406 44.0404C26.27 43.0414 27.5567 41.7303 26.985 39.5571C26.3692 37.5687 23.9253 36.9296 22.3094 36.504C21.852 36.3849 21.4553 36.2809 21.2224 36.1728C20.7127 35.9361 20.3545 35.6938 20.0074 35.4612C19.6702 35.2183 19.3076 35.0123 18.926 34.8467C18.8612 34.8241 18.7934 34.8112 18.7248 34.8084C18.4971 34.8084 18.3148 34.9174 18.1779 35.1355C17.5952 36.1441 17.4244 37.1718 17.6682 38.175C18.0443 39.8226 19.6795 41.3225 21.385 41.588C21.5558 41.6304 21.7514 41.6455 21.9429 41.6646C22.1193 41.6783 22.2997 41.6975 22.4664 41.7303C21.3347 42.5986 20.3022 43.5876 19.3875 44.6795C18.1393 46.1383 17.7963 48.5482 18.5912 50.2808C19.2786 52.0133 21.0227 53.4242 22.8343 53.7089C23.1911 53.7745 23.5782 53.8074 24.0149 53.8074C24.6444 53.8074 25.2781 53.7417 25.8843 53.676C26.0317 53.6623 26.1846 53.6418 26.3265 53.6281C26.3885 55.0007 26.4367 55.8533 27.204 57.7993C27.2509 57.9225 27.2178 58.1305 27.0566 58.2728C26.923 58.3905 25.8071 58.8503 25.4875 58.916C25.3523 58.9382 25.2154 58.9478 25.0784 58.9448H24.621C24.4695 58.9448 24.2725 58.9448 24.0824 58.9721C23.3812 59.072 23.034 59.6591 22.786 60.2284C22.6345 60.5733 22.5243 60.8771 22.4279 61.1371C22.1895 61.7858 22.0421 62.1881 21.5848 62.4345C21.5848 62.4345 20.6314 61.5915 20.4689 61.4765C20.2484 61.3473 19.9975 61.2779 19.7415 61.2753C19.1409 61.2753 18.6077 61.6544 18.0925 62.0184C17.9365 62.1342 17.7756 62.2433 17.6103 62.3455C17.1778 62.6151 16.8526 63.0749 16.759 63.5525C16.0578 63.9029 15.3717 64.3244 15.0521 65.0209C14.9006 65.3193 14.8716 65.6833 14.8427 66.0336C14.831 66.2 14.8117 66.3658 14.7848 66.5304C14.7302 66.6417 14.6681 66.7491 14.5989 66.852C14.4046 67.1175 14.2324 67.5102 14.2324 67.7525C14.2324 68.2629 14.4225 68.4573 14.7091 68.6995C15.0576 68.9458 16.0054 69.2332 16.6818 69.4002C16.7312 69.4135 16.7822 69.4199 16.8334 69.4193C17.04 69.4193 17.2053 69.3139 17.3637 69.214C17.4395 69.1675 17.5153 69.1155 17.6021 69.0772C18.16 69.2099 18.9838 69.381 19.7842 69.381C20.1993 69.3801 20.5759 69.3345 20.9139 69.2441C21.7294 69.0252 22.4251 67.9276 22.8012 67.3351C22.8921 67.1928 22.983 67.0518 23.0065 67.0326C23.0299 67.021 23.0562 67.0163 23.0822 67.019C23.2062 67.019 23.4073 67.0751 23.6209 67.1366C23.8688 67.2078 24.1554 67.2872 24.413 67.3118C25.3319 67.3926 26.2094 66.8246 26.777 66.4031C27.0098 66.2321 27.2619 65.9912 27.5099 65.7599C27.7854 65.4985 28.0678 65.2289 28.3116 65.0675C28.6337 64.9383 28.9783 64.8741 29.3256 64.8786C29.4496 64.8777 29.5864 64.8841 29.7361 64.8978C30.3974 65.0346 31.2653 65.1961 32.1097 65.1961C32.9528 65.1961 33.592 65.0538 34.1486 64.765L34.6638 64.4995C35.2218 64.2163 35.7935 63.9275 36.3363 63.6333C37.3846 63.0694 37.8048 62.1416 38.1478 61.3985L38.2332 61.2096C38.4344 60.7786 38.7388 59.9971 38.8201 59.8028C38.9808 59.8256 39.1494 59.8366 39.3257 59.8357C39.8919 59.8357 40.4498 59.718 40.9885 59.603C41.5175 59.4908 42.0699 59.3772 42.6223 59.3772C42.9144 59.3772 43.1803 59.4046 43.4475 59.4716C44.4394 59.666 45.7454 59.889 47.0748 59.889C47.7635 59.8952 48.4508 59.8236 49.1233 59.6755C49.2762 59.822 49.4484 59.9493 49.6151 60.0724C49.7804 60.1956 49.9333 60.3092 50.0766 60.4474C49.9237 60.4744 49.7697 60.4949 49.6151 60.509C49.1522 60.561 48.6714 60.613 48.3188 60.9879C47.9374 60.8347 47.5287 60.7602 47.1175 60.769C46.6511 60.7797 46.186 60.8241 45.7261 60.9017C45.5396 60.9291 45.3583 60.9542 45.1819 60.977C44.4725 61.0618 43.9862 61.3328 43.7341 61.7913C43.5811 62.0896 43.4668 62.403 43.7148 62.9134L45.1103 65.2139C45.2825 65.5122 45.5677 65.7545 45.7633 65.7681C45.868 65.7777 46.0071 65.7681 46.1587 65.7545C46.2799 65.7435 46.4007 65.7371 46.521 65.7353C46.7451 65.7353 46.8805 65.7732 46.9274 65.8489C46.9972 65.9565 47.0651 66.0637 47.1313 66.1705C47.4178 66.6166 47.7126 67.0805 48.1603 67.4733C48.8381 68.0604 49.9292 68.3053 50.9541 68.07C51.3399 67.9286 51.7256 67.7894 52.1113 67.6526C53.3181 67.2215 54.5662 66.7767 55.7758 66.2663L57.783 65.9816C58.4456 65.853 58.9512 64.9635 59.1179 64.594L59.1606 64.5091C59.1606 64.5091 59.7667 63.3158 59.9513 62.5918C59.961 62.715 59.961 62.8792 59.961 63.1078C59.961 64.234 60.1621 65.66 62.0963 65.5848C63.1736 65.541 64.6036 64.9073 65.623 64.7226C66.6906 64.542 68.082 64.9922 69.1166 64.49C70.1223 64.0835 70.6995 63.3062 70.8607 63.4677C71.5282 64.114 72.3209 64.619 73.1906 64.9521C74.0604 65.2852 74.9891 65.4394 75.9207 65.4055C77.3658 65.359 77.5228 64.208 76.513 63.6866C78.4844 63.9138 79.0671 62.8546 78.6993 62.5125C78.4651 62.2949 78.3274 62.1868 77.5793 61.7694V61.7803ZM59.8646 60.7101C59.1206 59.7111 58.6357 59.0022 58.5641 58.0881C59.5119 57.9786 60.3798 57.6666 61.7905 57.5913C61.4226 58.6752 60.1607 59.1911 59.8604 60.706L59.8646 60.7101ZM143.694 67.0696C143.626 66.9368 143.56 66.8096 143.522 66.7138C143.46 66.5017 143.45 66.2786 143.436 66.0418C143.422 65.7818 143.409 65.5109 143.326 65.2563C143.103 64.5173 142.307 64.0575 141.663 63.7975C141.64 63.5183 141.587 63.2159 141.326 63.0311C140.214 62.2442 139.633 61.7995 139.319 61.5627C139.133 61.4204 139.066 61.3684 139.028 61.3547C138.896 61.2938 138.753 61.2611 138.608 61.2589C138.117 61.2589 137.726 61.6476 137.346 62.0171L137.084 62.273C137.074 62.2826 137.07 62.2826 137.055 62.2826C136.935 62.2826 136.687 61.9185 136.625 61.7529C136.515 61.4587 136.431 61.1795 136.344 60.9099C136.202 60.4078 136.019 59.9181 135.796 59.4456C135.377 58.6177 134.482 58.604 133.69 58.5903H133.466C133.104 58.5903 132.626 58.5383 132.541 58.3002C132.455 58.0648 132.632 57.6187 132.742 57.293C132.818 57.0658 132.889 56.8523 132.913 56.6443C133.114 55.7548 133.128 54.5697 132.951 53.609C133.151 53.6144 133.351 53.6363 133.561 53.661C133.741 53.6856 133.929 53.7029 134.124 53.713H134.296C135.487 53.713 136.493 53.4803 137.369 53.0082C139.137 51.9517 140.219 50.2479 140.262 48.4346C140.2 47.4876 139.976 46.7062 139.491 45.7401C138.838 44.4619 137.751 43.2028 136.164 41.8959C137.083 41.7071 137.846 41.4854 138.551 41.0433C139.991 40.1347 140.629 38.487 140.348 36.4C140.272 35.9073 140.08 35.0548 139.662 34.8331C139.601 34.8013 139.534 34.7849 139.466 34.7852C139.161 34.7852 138.865 35.1122 138.604 35.401C138.507 35.5105 138.413 35.609 138.332 35.6802C137.842 36.1153 137.264 36.2289 136.66 36.348C136.34 36.4096 136.012 36.4753 135.701 36.5889C134.252 37.0582 131.788 38.1271 131.568 40.0731C131.355 41.9958 132.732 43.2891 134.067 44.5385C134.509 44.9545 134.935 45.3473 135.296 45.7647C136.067 46.6501 136.726 47.5301 136.554 48.525C136.493 48.8657 136.007 49.3871 135.544 49.5951C135.189 49.7174 134.826 49.7785 134.453 49.7785C133.218 49.7785 132.031 49.1079 130.988 48.5099L130.839 48.4251C128.419 46.7582 125.917 45.0312 122.815 44.7027C121.633 44.4769 120.608 43.7667 119.612 43.0742C119.383 42.9141 119.153 42.7568 118.92 42.6021C117.877 41.9934 116.727 41.5853 115.531 41.3992C114.911 41.3184 114.421 40.9161 113.902 40.4959C113.633 40.2644 113.346 40.054 113.045 39.8664C111.828 39.0864 110.472 38.5461 109.05 38.2749C108.909 38.2327 108.767 38.198 108.622 38.1708C108.251 38.0942 107.863 38.0094 107.596 37.7302C107.187 37.2512 106.624 36.6354 105.943 36.1537C105.032 35.5474 103.618 34.9029 102.383 34.9029C102.134 34.8995 101.885 34.9299 101.643 34.9932C100.957 35.1642 100.424 35.5611 99.8609 35.9826L99.6473 36.1386C98.5177 37.0145 97.0161 38.2187 95.8341 39.0563C92.3074 41.5511 90.9821 42.6445 89.2339 44.544C84.7346 49.4241 86.1026 56.7292 82.2136 60.9619C81.2079 62.0595 80.9269 62.2018 80.5605 62.5056C80.1059 62.8833 80.0012 64.8964 82.9465 63.9111C81.6033 65.0524 82.4506 65.582 83.3322 65.6012C84.8876 65.634 86.6027 65.0989 88.2848 63.3199C89.453 64.9895 91.4877 64.219 92.5457 64.3052C93.5376 64.3846 95.3629 65.4548 96.4251 65.3932C98.0452 65.2933 98.6417 63.6839 98.4791 62.7889C98.7409 62.7889 98.8125 62.7273 98.8841 62.6C99.0756 63.532 99.2037 64.1711 99.3856 64.6391C99.4012 64.6738 99.4214 64.7148 99.4462 64.7623V64.7732C99.5619 64.9758 99.8002 65.426 100.039 65.6436C100.314 65.9748 100.729 66.0186 101.058 66.0186C101.192 66.0186 101.325 66.009 101.453 66.0049C101.6 65.9949 101.743 65.9898 101.882 65.9898C102.005 66.0809 102.122 66.1787 102.234 66.2827C102.496 66.5099 102.763 66.748 103.093 66.8369C104.627 67.2297 105.9 67.58 107.135 68.0111C107.387 68.0919 107.773 68.1959 108.158 68.1959C108.284 68.1959 108.405 68.1849 108.521 68.163C109.694 67.9112 110.739 66.9136 110.995 65.7818C111.014 65.6067 111.142 65.5916 111.361 65.582C111.52 65.5779 111.7 65.5683 111.801 65.4548C112.438 64.9484 112.83 64.2518 113.211 63.584C113.29 63.4417 113.373 63.2984 113.459 63.1543C113.558 62.9856 113.613 62.7957 113.621 62.601C113.63 62.4062 113.59 62.2124 113.506 62.0362C113.382 61.7899 113.158 61.612 112.834 61.5025C112.224 61.3314 111.543 61.3164 110.956 61.3164H110.309C110.003 61.3164 109.65 61.3164 109.307 61.2835L109.059 61.0139C108.879 60.8525 108.65 60.8155 108.425 60.7772L108.264 60.7498L108.821 60.3174C109.044 60.3238 109.265 60.327 109.483 60.327C110.78 60.327 111.971 60.2134 113.035 59.9917C113.981 59.7657 114.95 59.6463 115.922 59.6359C116.052 59.634 116.184 59.6372 116.318 59.6454C116.477 59.6546 116.636 59.6655 116.795 59.6783C117.376 59.7166 117.972 59.7604 118.567 59.7604C119.354 59.7604 119.993 59.6879 120.565 59.5373C120.637 59.8206 120.693 60.0998 120.746 60.3749C120.955 61.4067 121.151 62.3825 121.951 63.2296C122.433 63.8399 123.061 64.1903 123.673 64.5365C123.987 64.7117 124.307 64.9101 124.615 65.114C125.026 65.322 125.355 65.3548 125.826 65.3548C126.483 65.3548 127.322 65.0757 127.799 65.0757C129.787 65.0757 131.321 66.1458 132.984 67.4377C133.28 67.632 133.643 67.7319 134.057 67.7319C134.562 67.7319 135.129 67.5814 135.625 67.3146L135.664 67.372C135.967 67.7976 136.288 68.2438 136.716 68.59C137.331 69.1429 138.127 69.2195 138.824 69.2195C139.057 69.2195 139.299 69.2086 139.533 69.199C139.867 69.1853 140.204 69.1716 140.529 69.1853C140.658 69.3646 140.906 69.5028 141.101 69.4932C141.297 69.4836 143.446 68.7871 143.56 68.7501C143.675 68.7132 143.836 68.6174 143.836 68.6174C144.356 68.3519 143.979 67.6047 143.703 67.0545L143.694 67.0696ZM99.1886 60.7799C98.6692 59.7536 98.2628 58.8298 97.6195 57.865C99.0935 58.2099 100.774 58.0429 100.774 58.0429C100.299 58.7162 99.7548 59.6769 99.1886 60.7799Z" fill="#FFCC00"/>
<path d="M108.349 61.7855C108.272 61.6897 108.12 61.676 108.034 61.676C107.997 61.6751 107.96 61.6769 107.923 61.6815C107.657 61.7143 107.414 61.728 107.162 61.728C107.031 61.7274 106.902 61.7242 106.772 61.7184C106.666 61.7184 106.571 61.7089 106.475 61.7089C106.318 61.7089 106.19 61.7184 106.062 61.7431H106.032L106.018 61.7704C105.999 61.8088 105.508 62.66 105.574 63.2005C105.646 63.7835 106.241 63.9012 106.694 63.9915C106.857 64.0244 107.043 64.0572 107.233 64.0572C107.556 64.0563 107.772 63.9491 107.881 63.7356C108.117 63.1599 108.286 62.5594 108.386 61.9456C108.394 61.9164 108.395 61.8858 108.388 61.8563C108.382 61.8268 108.368 61.7993 108.349 61.7759V61.7855ZM140.727 63.7069C140.446 63.3045 139.956 62.9816 139.564 62.7215C139.408 62.6262 139.258 62.5206 139.115 62.4054L139.035 62.3479C138.946 62.2724 138.833 62.2307 138.716 62.2303C138.272 62.2303 137.791 62.7599 137.782 62.9391C137.768 63.2046 138.148 63.6781 138.644 64.2666L138.749 64.3939C139.001 64.6922 139.271 64.8514 139.559 64.8715C139.85 64.8715 140.078 64.7757 140.322 64.5499C140.503 64.3843 140.903 63.9669 140.722 63.711L140.727 63.7069ZM142.802 67.135C142.733 67.0012 142.676 66.862 142.631 66.719C142.59 66.5184 142.558 66.3161 142.535 66.1127C142.493 65.7897 142.455 65.4832 142.354 65.2464C142.282 65.1004 142.171 64.9768 142.034 64.889C141.896 64.8012 141.737 64.7525 141.573 64.7483C141.46 64.747 141.348 64.7733 141.248 64.8249C140.763 65.0658 140.471 65.3272 140.552 65.8705C140.819 66.6615 140.952 67.2349 141.129 68.0149C141.149 68.134 141.23 68.5268 141.419 68.5268C141.434 68.5268 141.449 68.5254 141.463 68.5226L142.86 68.0683C142.892 68.0587 142.922 68.0423 142.948 68.0201C142.973 67.9978 142.993 67.9704 143.007 67.9397C143.088 67.7549 142.941 67.4429 142.798 67.1391L142.802 67.135Z" fill="#D2003C"/>
<path d="M140.337 68.2528C140.226 67.4004 139.988 66.5692 139.63 65.7867L139.612 65.7498H139.569C138.758 65.8004 138.258 65.1477 137.772 64.5222C137.61 64.3142 137.462 64.1199 137.3 63.9502C137.06 63.6826 136.8 63.4324 136.524 63.2016C136.237 62.9553 135.995 62.7377 135.899 62.5448C135.785 62.3066 135.661 61.8523 135.541 61.4116C135.456 61.0996 135.376 60.8013 135.299 60.5974L135.251 60.4701C135.103 60.0814 134.927 59.5984 134.421 59.519C134.169 59.4766 133.892 59.467 133.631 59.4574C132.9 59.4287 132.167 59.3014 131.791 58.78C131.443 58.301 131.585 57.8563 131.782 57.3841C131.867 57.1747 131.929 57.0009 131.977 56.8011C132.239 55.9253 132.33 54.836 132.129 54.0737C132.097 53.9507 132.058 53.8292 132.015 53.7097C131.91 53.3922 131.786 52.9091 131.863 52.7627C131.943 52.6162 132.024 52.5916 132.172 52.5916C132.301 52.5916 132.449 52.6354 132.586 52.6737C132.687 52.7011 132.763 52.7148 132.859 52.7394C133.22 52.8243 133.764 52.9228 134.26 52.9228C135.08 52.9228 135.941 52.7476 136.685 52.4301C138.091 51.7541 139.478 50.2255 139.407 48.3314C139.221 46.4142 138.029 44.5626 135.756 42.6645C135.704 42.6166 135.642 42.5687 135.584 42.5221C135.289 42.2799 134.931 41.9734 134.923 41.7024C134.914 41.4314 135.623 41.2672 136.066 41.1632C136.17 41.1413 136.262 41.1194 136.342 41.0975L136.456 41.0688C137.024 40.9224 137.605 40.7705 138.087 40.4393C139.707 39.354 139.649 37.4464 139.465 36.3953C139.456 36.368 139.448 36.3351 139.44 36.2968C139.412 36.16 139.374 35.9889 139.244 35.9889C139.197 35.992 139.153 36.0119 139.12 36.045L138.973 36.1819C138.787 36.3584 138.582 36.5568 138.343 36.6882C137.829 36.992 137.21 37.1206 136.614 37.2438C136.233 37.3232 135.837 37.4039 135.471 37.5312C133.859 38.0854 132.859 38.8956 132.501 39.9411C132.315 40.4858 132.415 41.1728 132.772 41.8351C133.301 42.6645 134.059 43.3884 134.797 44.0891C135.961 45.1976 137.161 46.3375 137.438 47.8908C137.59 48.794 137.219 49.5576 136.309 50.2159C135.832 50.4992 135.222 50.6511 134.545 50.6511C133.688 50.6437 132.845 50.4325 132.086 50.0352C131.143 49.5672 130.232 48.961 129.35 48.3739C128.025 47.4939 126.653 46.5839 125.133 46.1022C124.475 45.8024 123.742 45.656 123.035 45.5137C122.03 45.3112 120.991 45.1031 120.156 44.4531C119.869 44.2655 119.588 44.0697 119.313 43.866C118.555 43.3227 117.774 42.7575 116.888 42.5358C116.558 42.4222 116.235 42.3798 115.92 42.3333C115.434 42.2621 114.982 42.2005 114.562 41.9022L113.99 41.4903C113.285 40.9785 112.556 40.4489 111.827 40.0835C110.573 39.4635 109.238 39.1419 107.747 38.8203C107.27 38.7067 106.975 38.3509 106.66 37.9719C106.45 37.7173 106.231 37.4559 105.954 37.2712C104.807 36.368 103.762 35.7617 102.418 35.7617C102.292 35.7617 102.167 35.7663 102.042 35.7754C101.336 35.8233 100.65 36.3529 100.193 36.7511C98.854 37.9144 97.4103 38.9517 96.0189 39.9562C93.9387 41.4479 91.7951 42.9902 89.9601 44.9841C88.1541 46.8357 87.5011 49.1443 86.8619 51.3846C86.7668 51.7158 86.6773 52.0428 86.5767 52.374C86.4045 52.9857 86.2474 53.6152 86.0945 54.2215C85.2666 57.5196 84.4138 60.8163 81.0952 62.9553C80.8761 63.0976 80.9533 63.3727 81.1572 63.448C81.2439 63.4808 82.6353 63.9447 84.0226 62.5625C84.8602 61.5307 85.3272 60.5782 86.3287 59.5135C86.3618 59.4807 86.4761 59.3903 86.5712 59.3999C86.6387 59.4328 86.658 59.467 86.6387 59.5847C86.5092 60.0116 86.2474 60.3852 85.9912 60.7493C85.7295 61.1229 85.4608 61.5074 85.3272 61.9467C85.009 62.8937 84.1218 63.6615 83.3352 64.3334C83.3352 64.3334 83.2112 64.4141 83.1409 64.5045C83.0693 64.5934 83.0693 64.6317 83.0693 64.6317C83.0445 64.8397 83.2112 64.9684 83.5501 64.9821C85.4098 64.9821 86.7337 63.671 88.0108 62.397C88.0386 62.3689 88.0723 62.3472 88.1094 62.3333C88.1465 62.3193 88.1861 62.3135 88.2257 62.3162C88.2956 62.3141 88.3653 62.3253 88.431 62.3491C88.5164 62.397 88.712 62.5872 88.8635 62.7186C89.2837 63.088 89.7121 63.4712 90.2742 63.5848H90.2935C90.9713 63.4904 91.5802 63.4151 92.2098 63.4151C92.3934 63.4142 92.562 63.4206 92.7153 63.4343C93.3918 63.6368 94.0737 63.8927 94.7267 64.135C95.1882 64.3101 95.6648 64.4853 96.1456 64.6454H96.1663C96.7862 64.6221 97.227 64.0501 97.5522 63.5424C97.7037 63.1825 97.6334 62.8321 97.5618 62.4914C97.5191 62.2793 97.4764 62.0808 97.4902 61.8851C97.6045 61.829 97.7615 61.8386 97.9296 61.8619C98.077 61.8851 98.2906 61.8619 98.3622 61.8523C98.5247 61.829 98.6956 61.6443 98.6487 61.4034C98.5247 60.7876 98.2148 60.4085 97.9048 59.935C97.6334 59.5327 97.3758 59.155 97.2477 58.728C97.0424 58.1642 96.6085 57.6961 96.1897 57.2418C95.7034 56.7163 95.246 56.2181 95.1069 55.5886C95.1069 55.5886 95.0656 55.4559 95.1124 55.4039C95.1592 55.3519 95.2887 55.4135 95.2887 55.4135C95.5119 55.575 95.7365 55.7556 95.95 55.9294C96.6567 56.4987 97.3855 57.0899 98.2726 57.2226C99.0965 57.3034 100.002 57.4074 100.883 57.3321C101.117 57.2938 101.236 57.0899 101.179 56.8956C100.827 56.1566 100.464 55.3628 100.245 54.4952C100.059 53.8424 99.6448 52.1236 100.069 50.8262C100.112 50.699 100.197 50.6552 100.274 50.6552C100.282 50.6543 100.293 50.6561 100.307 50.6606C100.451 50.6935 100.546 50.8646 100.565 50.9959L100.579 51.167C100.703 52.9324 100.821 54.5992 101.908 56.0197C102.199 56.4795 102.614 56.7204 103.014 56.9571C103.29 57.1186 103.61 57.2651 103.811 57.521C104.039 57.8084 104.077 58.301 103.921 58.5993L102.585 60.5563C102.27 61.0011 101.965 61.4787 101.856 61.9659C101.757 62.4585 101.799 62.9375 101.842 63.4014L101.852 63.5137C101.809 63.4874 101.774 63.45 101.751 63.4055C101.214 62.4394 101.104 61.621 101.379 60.9915C101.556 60.5837 102.642 59.0551 102.957 58.5528C103.057 58.3913 103.138 58.2312 103.053 58.1217C102.947 57.9849 102.133 57.6387 101.918 57.6387C101.904 57.6377 101.89 57.6396 101.875 57.6441C101.685 57.6961 101.561 57.8713 101.451 58.0273L101.375 58.1313L99.7302 61.0955L99.6916 61.205C99.5965 61.502 99.5125 61.7579 99.5965 62.0986C99.6875 62.5434 99.8252 63.0224 99.9299 63.3713L100.017 63.6615C100.164 64.1774 100.302 64.6605 100.531 64.9301C100.599 65.0123 100.686 65.0774 100.785 65.1202C100.883 65.1629 100.991 65.1822 101.098 65.1764C101.222 65.1764 101.35 65.1572 101.474 65.1381C101.681 65.1052 101.904 65.082 102.071 65.1244C102.319 65.186 102.49 65.3707 102.671 65.5596C102.852 65.7539 103.038 65.9523 103.315 66.0331C103.824 66.2041 104.358 66.341 104.873 66.4737C105.559 66.653 106.27 66.8378 106.946 67.0978C107.328 67.2209 107.737 67.3345 108.132 67.3345C108.572 67.3345 108.843 67.2114 109.225 66.9048C109.758 66.4737 109.934 66.0468 110.068 65.4323C110.172 64.8685 110.363 64.8302 110.773 64.8069C110.973 64.7973 111.002 64.8069 111.197 64.7412C111.403 64.6741 111.998 63.9502 112.308 63.359C112.395 63.1966 112.482 63.0511 112.57 62.9225C112.652 62.815 112.697 62.684 112.699 62.5489C112.699 62.2546 112.451 62.1657 112.294 62.1602H112.188C112.188 62.1602 110.434 62.1465 109.953 62.1602C109.234 62.1985 108.92 62.8855 108.667 63.4959C108.566 63.7326 108.475 63.9502 108.357 64.1445C108.167 64.4853 107.795 64.6933 107.337 64.6837C107.204 64.6837 106.908 64.603 106.756 64.566C105.807 64.3334 104.83 64.0966 104.429 63.1592C104.392 62.9991 104.33 62.6665 104.567 62.3874C105.073 61.8058 105.741 61.0668 106.427 60.5372C107.38 60.3374 108.333 59.6367 108.857 58.7567C108.967 58.6048 109.024 58.4255 109.081 58.2545C109.167 57.989 109.247 57.7386 109.491 57.5826C109.643 57.5059 109.767 57.5305 109.801 57.6633C109.891 58.156 109.705 58.6281 109.519 59.0865C109.478 59.1888 109.438 59.2919 109.401 59.3958L109.372 59.4711L109.453 59.4807C109.717 59.5053 109.985 59.5181 110.258 59.519C111.236 59.519 112.165 59.3534 113.065 59.1919C113.957 59.0304 114.881 58.8648 115.834 58.8648C115.936 58.8639 116.039 58.8658 116.144 58.8703C116.569 58.8703 116.978 58.9073 117.379 58.9415C117.77 58.9743 118.175 59.0126 118.58 59.0126C118.722 59.0126 118.856 59.0126 118.989 58.999C120.21 58.9415 121.097 58.3913 121.363 57.521C121.615 56.7779 121.587 55.4956 121.282 53.7042C121.268 53.6194 121.258 53.5632 121.258 53.5537V53.5208C121.258 53.4538 121.258 53.384 121.349 53.3402C121.463 53.2786 121.583 53.3402 121.638 53.4866C122.101 54.7744 122.369 56.2565 122.512 57.2746C122.669 58.2641 123.083 59.2672 123.789 60.3374C124.661 61.6306 126.1 62.3737 127.734 62.3737C128.116 62.3737 128.498 62.3025 128.874 62.2546C129.135 62.2218 129.236 62.2355 129.412 62.2355C131.491 62.2355 133.297 63.1305 134.646 64.8219C134.646 64.8219 134.669 64.8548 134.669 64.9013C134.669 64.9725 134.565 65.0436 134.474 65.0053L134.297 64.8685C133.126 63.9653 131.914 63.0319 130.394 62.8472C130.111 62.7988 129.824 62.775 129.536 62.776C129.106 62.7825 128.676 62.814 128.25 62.8705C127.831 62.9184 127.44 62.9663 127.034 62.9663C126.563 62.9749 126.095 62.8912 125.657 62.7199C123.907 62.1451 122.479 60.1471 122.02 58.9073C122.003 58.8724 121.977 58.8429 121.945 58.8221C121.912 58.8013 121.874 58.79 121.835 58.7896C121.788 58.7887 121.738 58.8046 121.687 58.8375C121.483 58.9647 121.448 59.0304 121.421 59.1536C121.392 59.2576 121.563 60.1485 121.64 60.5317C121.868 61.4787 122.211 62.9088 123.46 63.4384C123.614 63.5305 123.768 63.6268 123.922 63.7271C124.547 64.124 125.19 64.5373 125.928 64.5373C126.106 64.5373 126.28 64.5136 126.452 64.4661C126.897 64.3694 127.349 64.3206 127.806 64.3197C129.246 64.3197 130.709 64.8069 131.939 65.6964C132.143 65.8155 132.338 65.9756 132.524 66.133C132.792 66.3547 133.063 66.5818 133.388 66.7009C133.592 66.783 133.811 66.8241 134.045 66.8241C134.603 66.8241 134.745 66.6585 135.142 66.4642C135.287 66.3926 135.447 66.3538 135.609 66.3506C136.057 66.3506 136.304 66.6954 136.619 67.1361C136.809 67.4016 137.024 67.6999 137.314 67.9599C137.719 68.3527 138.281 68.4006 138.725 68.4006C138.969 68.4006 139.211 68.3814 139.45 68.3677C139.678 68.3541 139.955 68.3431 140.103 68.3294C140.246 68.3103 140.327 68.2911 140.327 68.2911V68.235L140.337 68.2528ZM92.9812 61.6497C92.9013 61.7962 92.7057 61.881 92.4481 61.881C92.2341 61.8855 92.0235 61.8279 91.8419 61.7154C91.5086 61.4787 91.3143 61.0859 91.2854 60.57C91.2799 60.4509 91.2716 60.3278 91.4328 60.2101C91.5141 60.1622 91.5623 60.1622 91.6573 60.1622C91.9756 60.1622 92.4867 60.3661 92.758 60.6932C92.7773 60.7164 93.2016 61.2748 92.9826 61.6539L92.9812 61.6497ZM93.44 54.3625C93.3201 54.5144 93.1397 54.6279 92.9633 54.5431C92.7966 54.4856 92.6478 54.2721 92.5583 54.112C92.444 53.9081 92.3475 53.7329 92.0761 53.7521H92.0334C91.7951 53.7713 91.6146 53.889 91.4231 54.0354C91.3281 54.112 90.941 54.3967 90.8473 54.476C90.3279 54.9126 89.8031 55.3615 89.6791 55.9718C89.653 56.0808 89.6291 56.1903 89.6074 56.3003C89.5689 56.5124 89.5317 56.7341 89.3498 56.8477H89.3361C89.3116 56.8623 89.2832 56.8689 89.2548 56.8668C89.1725 56.864 89.0936 56.8342 89.0302 56.782C88.9977 56.7575 88.9711 56.7261 88.9523 56.6901C88.9334 56.6542 88.9229 56.6145 88.9214 56.574C88.8305 55.5229 89.1886 54.5759 89.9312 53.904C90.4133 53.5112 90.7991 53.0186 91.1752 52.5396C91.357 52.307 91.5471 52.0661 91.7427 51.8444C91.8902 51.698 92.134 51.8211 92.5335 52.255C92.7002 52.4356 93.2251 53.3224 93.4634 53.904C93.4911 53.9765 93.5029 54.054 93.4982 54.1314C93.4934 54.2088 93.4722 54.2843 93.4358 54.3529L93.44 54.3625ZM102.195 42.1431C101.995 42.3333 101.784 42.5221 101.575 42.7165C100.831 43.3884 100.064 44.085 99.5593 44.8705C99.321 45.1921 99.1447 45.5616 98.9725 45.9215C98.9532 45.9598 98.9105 46.0392 98.8292 46.0392C98.7871 46.0365 98.7477 46.0179 98.719 45.9872C98.5771 45.8449 98.6956 44.8554 98.8816 44.3587C99.2921 43.2611 100.221 42.1102 101.437 41.2056C101.572 41.1235 101.727 41.0795 101.885 41.0784C102.113 41.0784 102.29 41.1824 102.361 41.3616C102.513 41.6039 102.458 41.8872 102.195 42.1431ZM52.5317 62.9512C52.4889 62.88 52.4493 62.807 52.4132 62.7322C52.2892 62.501 52.2231 62.2546 52.1611 62.0411C52.0371 61.6114 51.9324 61.2365 51.4599 61.3021C50.7931 61.3979 50.1443 61.4404 49.421 61.4404C49.41 61.4404 49.1868 61.4404 49.1152 61.5964C49.0339 61.777 49.2158 61.9467 49.4114 62.1219C49.5202 62.2218 49.6345 62.3258 49.7103 62.4394C49.8439 62.6337 49.9721 62.9129 50.0961 63.1825C50.2917 63.6136 50.4639 63.9831 50.6595 64.0446C50.7491 64.0701 50.8419 64.0826 50.935 64.0816C51.3896 64.0816 52.0123 63.8407 52.4655 63.4904C52.7177 63.2769 52.6378 63.1346 52.5234 62.9457L52.5317 62.9512ZM19.9387 62.2793L19.9015 62.2505C19.7637 62.141 19.5157 62.1547 19.3477 62.2697C19.2333 62.3491 19.1135 62.4257 19.0005 62.5023C18.6286 62.7473 18.2428 62.9977 17.8378 63.3385C17.689 63.4617 17.6077 63.6943 17.594 63.8736C17.5802 64.0159 17.6077 64.1295 17.6656 64.202C17.6987 64.239 17.9949 64.5647 18.0569 64.618C18.1869 64.733 18.354 64.798 18.528 64.8014C18.6675 64.7981 18.8043 64.7625 18.9275 64.6974C19.648 64.3389 20.3919 63.0128 20.4208 62.9361C20.4966 62.724 20.2541 62.5297 19.9387 62.2793ZM17.565 65.4227C17.4176 65.2147 16.9272 64.6413 16.6503 64.6413C16.6269 64.6413 16.6021 64.6413 16.5842 64.655C16.2026 64.811 15.759 65.3037 15.7356 65.5979C15.6391 66.8802 15.6019 67.017 15.2493 67.4112C15.1487 67.5206 15.0826 67.7752 15.1969 67.8847C15.2961 67.9832 16.5649 68.3814 16.7068 68.3814H16.7357C16.8501 68.3431 16.9451 68.0544 17.2041 67.1689C17.3419 66.69 17.4989 66.1508 17.6753 65.6636C17.6849 65.6307 17.689 65.5828 17.5747 65.4227H17.565Z" fill="#D2003C"/>
<path d="M56.4409 65.3379C56.9603 65.2996 57.4989 65.2612 57.8805 64.8589C58.3627 64.1623 58.776 63.463 59.1397 62.724C59.4634 62.0603 59.4675 61.4116 59.1493 60.9053C58.1905 59.3808 58.0197 58.9784 57.6284 57.9425L57.6188 57.9137L57.5912 57.9041C57.478 57.8692 57.3663 57.8295 57.2565 57.7851C57.0223 57.6961 56.7743 57.5962 56.4946 57.5962H56.4561C56.1268 57.6058 55.9037 57.7098 55.8127 57.8905L55.799 57.9178L57.5375 61.3268C57.6477 61.5923 57.7758 61.8619 57.7097 62.2601C57.6422 62.657 56.7895 63.9926 56.5318 64.1623C56.4888 64.1976 56.4359 64.2191 56.3803 64.2239C56.361 64.2239 56.2701 64.2061 56.3266 64.0063C56.4891 63.4534 56.6944 62.1506 56.6365 61.7346C56.5745 61.2515 55.117 58.8553 55.055 58.7512L55.0261 58.7102C54.8016 58.3448 54.5687 57.9657 54.588 57.5251C54.588 57.3212 54.7781 57.1802 54.9159 57.1282C55.1694 57.0324 55.4118 56.9955 55.6695 56.938C56.2894 56.8011 56.9272 56.6643 57.1573 56.318C57.853 55.267 58.2663 54.1695 58.5432 52.6491C58.5569 52.582 58.6052 52.4548 58.7002 52.4548C58.7581 52.4548 58.8146 52.4739 58.838 52.6053C58.9639 53.3242 58.9446 54.0608 58.7811 54.7722C58.6177 55.4836 58.3134 56.1556 57.886 56.7491C57.8257 56.8484 57.8037 56.9661 57.824 57.0803C57.8433 57.2035 57.9811 57.3034 57.9811 57.3034C58.3145 57.5305 59.535 57.3978 60.4209 56.938C61.0973 56.9517 61.7323 56.834 62.3509 56.7204C62.5474 56.683 62.7412 56.6483 62.9322 56.6164C62.9942 56.6492 63.0425 56.7067 63.0521 56.7491C62.5327 57.3307 62.2173 57.9849 62.0561 58.8033C61.9084 58.9519 61.7559 59.0956 61.5987 59.2343C61.0311 59.7503 60.4209 60.3291 60.3919 61.0668C60.3919 61.0668 60.374 61.3323 60.6647 61.35C60.7542 61.3555 60.8589 61.309 60.954 61.2707C61.0473 61.2226 61.1505 61.1964 61.2557 61.194C61.3001 61.2003 61.3409 61.2218 61.3711 61.2548C61.4012 61.2878 61.4189 61.3302 61.421 61.3747L60.7735 62.3162C60.5311 62.709 60.6358 63.1264 60.7308 63.5342C60.8024 63.7559 60.7694 63.931 60.8314 64.1295C60.9926 64.5989 61.5698 64.8206 62.0272 64.8206C62.8703 64.7836 63.639 64.5086 64.3815 64.2431C64.5151 64.1965 64.6432 64.1486 64.781 64.1021C65.5965 63.7518 66.6835 63.6806 67.9757 63.8886C69.0144 63.8216 69.7955 63.14 70.5532 62.4777C70.8774 62.4868 71.2113 62.6761 71.5547 63.0456C72.6789 64.2431 74.0565 64.8247 75.7675 64.8247H75.9631L76.1339 64.811C76.3103 64.7699 76.3585 64.6837 76.3681 64.5742C76.3819 64.4429 76.2772 64.3101 76.0871 64.2198L75.1283 63.7135C74.3609 63.2304 73.5275 62.6474 73.2988 61.8797C73.0508 61.0613 72.5879 60.2292 72.2408 59.675C72.17 59.5619 72.0951 59.4515 72.0162 59.3438C71.8826 59.1495 71.7407 58.9497 71.6443 58.7417C72.6885 59.1112 73.274 59.8775 73.9807 61.1571C74.5042 62.1082 75.8681 63.1305 77.1589 63.1305C77.3311 63.1305 77.4923 63.1113 77.6548 63.0785C77.7926 63.0511 77.8835 62.9608 77.9028 62.8417C77.9166 62.7377 77.9028 62.6378 77.7884 62.5762L77.006 62.1889C76.0774 61.6484 75.5429 60.7588 75.0236 59.8926C74.8183 59.5505 74.6103 59.2015 74.3802 58.884C74.2328 58.665 73.9752 58.4392 73.752 58.2408C73.5564 58.0656 73.3704 57.8987 73.336 57.8097C72.4888 55.5079 71.5644 52.8051 71.3398 49.7985C71.3068 49.34 70.9816 48.3314 70.5959 47.6773C69.3905 45.7272 66.5113 42.3894 66.3542 42.2238C66.2551 42.1203 66.1535 42.019 66.0498 41.92L65.9726 41.8447L60.7873 37.5654C59.7582 36.8456 59.4441 36.7169 58.6961 36.4528C58.1719 36.2737 57.6206 36.1858 57.0664 36.1928C56.3321 36.1928 55.5978 36.3338 54.9972 36.5897C54.5839 36.8086 54.183 37.0632 53.7918 37.3095C53.1305 37.731 52.4417 38.1662 51.6992 38.4125C51.1178 38.6725 50.4938 38.8628 49.889 39.0475C48.7111 39.4061 47.4961 39.781 46.5331 40.6623C46.2521 40.9169 46.0234 41.1304 45.8319 41.3151C44.942 42.1485 44.851 42.2375 44.1223 42.2375C42.4347 42.2375 41.2389 42.6494 39.9894 43.658C39.0031 44.5475 38.0263 45.3823 36.887 45.7751C36.3773 45.9502 35.8098 46.0159 35.2091 46.0734C34.3467 46.1487 34.2131 46.1583 33.3989 46.3526C32.1687 46.6318 30.8641 47.639 29.762 48.4916C29.3997 48.7707 28.9189 49.1402 28.6902 49.288C28.5704 49.3633 28.4285 49.4523 28.3128 49.5207C26.9407 50.3144 25.6485 51.0671 23.9898 51.0671H23.8658C22.6274 50.9781 21.5032 50.1297 21.1258 49.0075C20.7786 47.7444 21.1505 46.447 22.1548 45.4521C22.6315 44.9786 23.1743 44.5202 23.7046 44.0754C24.5533 43.3597 25.3537 42.6823 25.9116 41.9405C26.5591 41.0784 26.4874 39.625 25.7587 38.834C25.034 38.043 23.414 37.6503 22.8037 37.5038L22.699 37.4792C22.637 37.4655 22.5323 37.4518 22.4744 37.4381C22.0887 37.3615 21.7167 37.3095 21.3407 37.2192C20.3777 36.9592 19.6297 36.2161 18.7769 35.7617C18.4477 36.2626 18.3375 36.8073 18.3815 37.4135C18.5427 38.6917 19.6159 40.0178 20.8061 40.557C20.8585 40.5761 20.9067 40.5994 20.9591 40.6144C21.3351 40.7746 21.7305 40.7992 22.1025 40.7992H22.5846C22.8133 40.7992 23.0902 40.7992 23.3368 40.8608C23.4678 40.8983 23.5849 40.9729 23.674 41.0755C23.763 41.178 23.8201 41.3041 23.8383 41.4383C23.8576 41.608 23.7804 41.7407 23.5628 41.9063L22.9566 42.4031C21.9317 43.242 20.8736 44.1137 20.0154 45.1675C18.8623 46.4046 18.81 48.5531 19.3486 49.9449C20.0347 51.7787 21.9317 52.8051 23.509 53.0035C23.7901 53.0459 24.0711 53.0706 24.3673 53.0706C25.2958 53.0706 26.1775 52.8475 27.0357 52.634C27.0679 52.6258 27.095 52.6226 27.117 52.6244C27.1556 52.6244 27.2313 52.6244 27.2451 52.8188C27.2699 53.1979 27.2933 53.6289 27.3126 54.045C27.3402 54.7224 27.3746 55.3615 27.4228 55.6324C27.5358 56.2332 27.8361 56.9667 28.0372 57.4498C28.1227 57.6537 28.1888 57.8138 28.2081 57.8946C28.2852 58.1683 28.2136 58.468 28.0276 58.6377C27.3801 59.2302 26.0576 59.6983 25.8152 59.7325C25.4253 59.779 25.0106 59.8023 24.7048 59.8173C24.5533 59.8255 24.4293 59.831 24.3673 59.8406C24.2306 59.8547 24.1029 59.9146 24.005 60.0103C23.819 60.1909 23.6192 60.7068 23.3809 61.3035C23.2376 61.6634 23.0944 62.037 22.947 62.3449C22.5323 63.0265 21.8407 63.4288 21.1698 63.812C21.0008 63.9078 20.8355 64.0059 20.6739 64.1062L20.6546 64.1254C20.3791 64.5606 20.1008 64.9725 19.744 65.2845C19.4685 65.5404 19.1144 65.5979 18.7714 65.6403H18.748L18.7342 65.6595C18.2093 66.2561 18.0426 67.0458 17.876 67.8176C17.8512 67.9371 17.8254 68.0539 17.7988 68.1679L17.7754 68.2774H17.8429C18.1184 68.3103 18.3939 68.3677 18.686 68.4334C19.0717 68.5183 19.4671 68.6045 19.8583 68.6045C20.2303 68.6045 20.5444 68.5279 20.8309 68.3718C21.331 68.1447 21.5983 67.6849 21.86 67.2456C22.0322 66.9568 22.2086 66.653 22.4469 66.4217C22.5132 66.3469 22.5954 66.2876 22.6876 66.2483C22.7799 66.209 22.8797 66.1907 22.98 66.1946C23.1756 66.1946 23.3906 66.2507 23.5944 66.3081C23.7859 66.3601 23.9802 66.4121 24.1661 66.4217C25.0919 66.4737 25.9681 65.8962 26.3924 65.5596C26.5784 65.4131 26.7643 65.238 26.9448 65.0724C27.2258 64.8124 27.5124 64.5414 27.8223 64.3525C28.1984 64.1719 28.6517 64.0871 29.2137 64.0871C29.9094 64.0871 30.6478 64.2239 31.2347 64.3334C31.5474 64.4141 31.8691 64.4555 32.1921 64.4565C32.7197 64.4662 33.2406 64.3388 33.7034 64.0871C34.2186 63.7997 34.7366 63.5287 35.1526 63.3111C35.3951 63.1825 35.61 63.0744 35.7767 62.9799C36.5151 62.5776 37.1447 61.4595 37.3775 60.9956C37.5979 60.5645 37.9699 59.6326 37.974 59.623L37.9933 59.5806L37.1295 58.9264L37.0964 58.9839C37.0964 58.9839 36.5247 59.9158 36.1583 60.3469C34.6374 62.4024 32.1632 62.6665 30.1767 62.6665C30.0389 62.6611 29.9021 62.6579 29.7662 62.657C27.3071 62.657 25.3247 63.4767 23.8755 65.0956C23.8093 65.1709 23.6895 65.186 23.6413 65.1189C23.6137 65.082 23.6041 65.0204 23.6234 64.9437C23.6527 64.7997 23.7078 64.6621 23.7859 64.5373C25.3247 62.3641 27.956 62.0425 30.0761 62.0042C31.6438 61.9002 32.7831 61.6306 33.775 61.1283C35.0479 60.4851 35.9861 59.0646 36.358 57.937C36.6005 57.198 36.7204 56.4084 36.8347 55.6461C36.9256 55.0399 37.0207 54.4145 37.1722 53.8369C37.186 53.8011 37.2103 53.7702 37.242 53.7482C37.2737 53.7263 37.3113 53.7143 37.3499 53.7138C37.3678 53.7138 37.383 53.7138 37.4105 53.7275C37.4932 53.7425 37.6447 53.7986 37.6447 53.9177C37.4298 55.111 37.1392 56.7491 37.6874 58.1122C37.9451 58.6513 38.4878 58.9168 39.3557 58.9168C39.8792 58.9168 40.4523 58.8265 41.0089 58.7417C41.4387 58.676 41.8437 58.6089 42.1909 58.5952C42.3378 58.5816 42.4875 58.5752 42.64 58.5761C43.3302 58.5761 43.9983 58.7088 44.6416 58.8361C45.2037 58.9497 45.7851 59.0633 46.3802 59.092C46.4867 59.0975 46.5997 59.1057 46.7191 59.1166C46.9244 59.1344 47.1379 59.1495 47.3583 59.1495C47.8625 59.1495 48.2207 59.0496 48.4783 58.8416C48.6588 58.6951 48.5968 58.4721 48.5155 58.1929L48.5017 58.1409C48.4889 58.0925 48.4728 58.0405 48.4535 57.9849C48.3392 57.6154 48.1642 57.057 48.4535 56.7957C48.5008 56.7617 48.5577 56.7434 48.6161 56.7437C48.6629 56.7437 48.7304 56.7573 48.7497 56.834L48.8447 57.1556C48.9729 57.6017 49.1065 58.0656 49.393 58.4625C49.9992 59.2289 50.9318 59.9583 52.0945 60.5604C52.844 61.0709 53.7436 61.933 53.8166 63.1359C53.8166 63.6806 53.282 64.0583 52.8867 64.2951C52.2612 64.603 51.1936 64.9492 50.6894 64.9492C50.6225 64.9542 50.5553 64.9429 50.4938 64.9164C49.7691 64.5332 49.3972 63.9119 49.0018 63.2536C48.7951 62.8926 48.5612 62.5477 48.302 62.2218C47.9245 61.8058 47.4478 61.6443 46.8045 61.6963C46.1846 61.7442 45.6129 61.8619 44.9365 62.0042C44.8705 62.0156 44.8084 62.0427 44.7554 62.0832C44.7023 62.1238 44.66 62.1765 44.632 62.2368C44.6025 62.3086 44.5905 62.3864 44.597 62.4636C44.6035 62.5409 44.6282 62.6156 44.6692 62.6816C45.0219 63.3056 45.3608 63.8736 45.7231 64.4743L45.8856 64.7453C45.971 64.8917 46.157 64.9109 46.3086 64.9109C46.3912 64.9109 46.4803 64.9063 46.5758 64.8972C46.6768 64.8899 46.7802 64.8853 46.8858 64.8835C47.1999 64.8835 47.401 64.9588 47.5291 65.1148C47.6393 65.279 47.7344 65.4556 47.8294 65.6253C48.0678 66.0468 48.3116 66.4874 48.7208 66.7994C49.0927 67.1279 49.63 67.3113 50.1934 67.3113C50.4414 67.3113 50.6797 67.2729 50.9084 67.2072C52.534 66.7009 54.1155 66.1809 55.6212 65.3803C55.6212 65.3803 56.2177 65.3707 56.4464 65.3516L56.4409 65.3379ZM59.1438 47.2325C59.1162 47.3324 59.0529 47.3981 58.9812 47.3981C58.9537 47.3981 58.8765 47.3844 58.8531 47.2558C58.5817 45.8791 58.4192 45.2017 58.0996 44.5667C58.0004 44.3641 57.8709 44.1931 57.7621 44.0412C57.5279 43.7251 57.3281 43.4541 57.5527 43.086C57.6188 42.9765 57.7855 42.9053 57.9659 42.9053C58.0569 42.9062 58.1381 42.9236 58.2098 42.9573C58.477 43.086 58.7388 43.4076 59.006 43.9426C59.6728 45.3016 59.1438 47.2188 59.1383 47.238L59.1438 47.2325ZM67.8613 60.9532C67.8613 60.9532 67.8173 61.3418 67.6368 61.5115C67.4508 61.6771 66.7937 61.7674 66.4452 61.7579C66.098 61.7442 65.9781 61.6963 65.9079 61.5923C65.8252 61.4732 65.9589 61.2419 65.9589 61.2419C66.0016 61.1571 66.4066 60.3182 67.2263 60.0965C67.2263 60.0965 67.488 60.0007 67.7415 60.1239C67.9936 60.247 67.8751 60.8724 67.8655 60.9586L67.8613 60.9532ZM70.2336 55.5366C70.2096 55.7281 70.1517 55.9139 70.0628 56.0854C70.0201 56.162 69.9484 56.3276 69.7101 56.3317C69.4484 56.3317 69.4663 56.0293 69.4663 55.9869C69.4663 55.9869 69.4332 55.1384 69.2707 54.784C69.0943 54.3953 68.2374 53.3019 67.7415 53.3498C67.6175 53.3593 67.2938 53.5537 67.0554 53.8602C66.7648 54.2352 66.7648 54.2817 66.6738 54.3392C66.5829 54.3967 66.4686 54.3666 66.4314 54.1449C66.3928 53.9218 66.3487 53.7425 66.4548 53.321C66.5595 52.8995 66.6642 52.8051 66.7882 52.5027C66.7882 52.5027 67.0458 51.9101 67.1409 51.7637C67.4081 51.3613 67.7608 51.3901 67.7608 51.3901C67.8558 51.3942 68.1603 51.3558 68.4909 51.7637C68.8711 52.2372 68.7899 52.1947 68.8946 52.3603C68.9993 52.5245 69.115 52.7011 69.4291 53.0418C69.7432 53.384 70.0903 54.045 70.1868 54.4569C70.2818 54.8688 70.2777 55.2191 70.224 55.538L70.2336 55.5366Z" fill="#D2003C"/>
</svg>
