<svg width="123" height="86" viewBox="0 0 123 86" fill="none" xmlns="http://www.w3.org/2000/svg">
<g clip-path="url(#clip0_291_519)">
<mask id="mask0_291_519" style="mask-type:luminance" maskUnits="userSpaceOnUse" x="0" y="0" width="123" height="86">
<path d="M0.03125 0.230469H122.595V86.0008H0.03125V0.230469Z" fill="white"/>
</mask>
<g mask="url(#mask0_291_519)">
<path fill-rule="evenodd" clip-rule="evenodd" d="M51.015 9.58801C54.9684 5.46974 60.4731 2.91428 66.5607 2.91428C74.6527 2.91428 81.7137 7.42618 85.4725 14.1251C88.8358 12.6225 92.4789 11.848 96.1626 11.8525C110.758 11.8525 122.591 23.7871 122.591 38.51C122.591 53.233 110.758 65.168 96.1626 65.168C94.3803 65.168 92.6398 64.9888 90.9561 64.6492C87.6459 70.5532 81.3353 74.5431 74.0942 74.5431C71.1653 74.5472 68.2742 73.8818 65.6418 72.5979C62.2861 80.4926 54.4648 86.0278 45.3521 86.0278C35.8602 86.0278 27.7705 80.0233 24.6674 71.6021C23.2844 71.8939 21.8748 72.0406 20.4613 72.0399C9.16042 72.0399 0 62.7846 0 51.3679C0 43.716 4.11514 37.0355 10.2316 33.4617C8.93567 30.4781 8.26882 27.2593 8.27262 24.0065C8.27262 10.8756 18.933 0.230469 32.0829 0.230469C39.8033 0.230469 46.6647 3.90016 51.015 9.58801Z" fill="#00A1E0"/>
</g>
<path fill-rule="evenodd" clip-rule="evenodd" d="M17.7583 44.7205C17.6813 44.9213 17.7858 44.9632 17.8106 44.9988C18.0407 45.1655 18.2745 45.2862 18.5105 45.4217C19.7605 46.0833 20.942 46.2774 22.1762 46.2774C24.6909 46.2774 26.253 44.9407 26.253 42.7879V42.7456C26.253 40.7549 24.4896 40.0316 22.8369 39.5096L22.6212 39.4398C21.3748 39.0353 20.2992 38.6854 20.2992 37.8644V37.8225C20.2992 37.1194 20.928 36.6028 21.9023 36.6028C22.9856 36.6028 24.2693 36.9627 25.0972 37.4198C25.0972 37.4198 25.3413 37.5775 25.4301 37.3419C25.4783 37.2145 25.8967 36.0876 25.9413 35.9655C25.9891 35.8336 25.9053 35.7341 25.8193 35.6827C24.8738 35.1067 23.568 34.7148 22.2162 34.7148L21.9654 34.7157C19.6637 34.7157 18.0565 36.1074 18.0565 38.099V38.1418C18.0565 40.2406 19.8294 40.9229 21.4902 41.3971L21.7568 41.48C22.9662 41.8511 24.0108 42.1718 24.0108 43.0225V43.0649C24.0108 43.844 23.332 44.4228 22.2388 44.4228C21.8149 44.4228 20.4618 44.4156 18.9997 43.4909C18.8227 43.3878 18.7218 43.3135 18.5853 43.2302C18.5133 43.1865 18.3331 43.1077 18.2547 43.3437L17.7583 44.7205ZM54.5721 44.7205C54.4951 44.9213 54.5996 44.9632 54.6252 44.9988C54.8545 45.1655 55.0887 45.2862 55.3243 45.4217C56.5747 46.0833 57.7562 46.2774 58.9899 46.2774C61.5047 46.2774 63.0672 44.9407 63.0672 42.7879V42.7456C63.0672 40.7549 61.3042 40.0316 59.6512 39.5096L59.4354 39.4398C58.1891 39.0353 57.113 38.6854 57.113 37.8644V37.8225C57.113 37.1194 57.7422 36.6028 58.717 36.6028C59.7998 36.6028 61.0831 36.9627 61.911 37.4198C61.911 37.4198 62.1551 37.5775 62.2443 37.3419C62.292 37.2145 62.7109 36.0876 62.7551 35.9655C62.8033 35.8336 62.719 35.7341 62.6335 35.6827C61.6876 35.1067 60.3822 34.7148 59.0305 34.7148L58.7791 34.7157C56.4779 34.7157 54.8707 36.1074 54.8707 38.099V38.1418C54.8707 40.2406 56.6432 40.9229 58.3044 41.3971L58.5706 41.48C59.7804 41.8511 60.825 42.1718 60.825 43.0225V43.0649C60.825 43.844 60.1457 44.4228 59.0534 44.4228C58.6287 44.4228 57.2756 44.4156 55.8139 43.4909C55.6369 43.3878 55.5333 43.3166 55.3991 43.2302C55.3536 43.2013 55.1414 43.1185 55.0689 43.3437L54.5721 44.7205ZM79.7039 40.5031C79.7039 41.7192 79.4769 42.6794 79.031 43.3563C78.5878 44.0273 77.9189 44.3539 76.986 44.3539C76.0532 44.3539 75.3879 44.0278 74.9519 43.3572C74.5118 42.6798 74.2884 41.7192 74.2884 40.5031C74.2884 39.288 74.5118 38.3309 74.9519 37.6608C75.3879 36.9965 76.0532 36.674 76.986 36.674C77.9189 36.674 78.5878 36.9969 79.031 37.6612C79.4778 38.3309 79.7039 39.288 79.7039 40.5031ZM81.8038 38.2481C81.5971 37.5504 81.2759 36.9366 80.8485 36.4245C80.4201 35.9111 79.8782 35.4981 79.2359 35.199C78.5945 34.8995 77.8378 34.7477 76.986 34.7477C76.1342 34.7477 75.3771 34.8995 74.7352 35.199C74.0938 35.4981 73.5515 35.9111 73.1231 36.4254C72.6961 36.9384 72.374 37.5513 72.1682 38.2481C71.9633 38.9403 71.8592 39.6992 71.8592 40.5031C71.8592 41.3075 71.9633 42.0668 72.1682 42.7582C72.374 43.4545 72.6952 44.0679 73.1236 44.5818C73.5519 45.0961 74.0956 45.5055 74.7361 45.7973C75.3784 46.0892 76.1351 46.2378 76.986 46.2378C77.8373 46.2378 78.5932 46.0892 79.235 45.7973C79.8764 45.5055 80.4192 45.0961 80.8485 44.5818C81.2759 44.0697 81.5971 43.4554 81.8038 42.7582C82.0083 42.0655 82.1124 41.3066 82.1124 40.5031C82.1124 39.7001 82.0083 38.9408 81.8038 38.2481ZM99.0405 44.0282C98.9716 43.8242 98.7725 43.9012 98.7725 43.9012C98.4675 44.0179 98.1432 44.126 97.7964 44.18C97.4469 44.235 97.0599 44.2624 96.646 44.2624C95.6312 44.2624 94.8227 43.9602 94.2456 43.363C93.6659 42.7654 93.3403 41.7998 93.3439 40.4937C93.347 39.3065 93.6344 38.412 94.1497 37.7301C94.6605 37.0528 95.4406 36.7051 96.478 36.7051C97.3442 36.7051 98.0049 36.8055 98.6973 37.0226C98.6973 37.0226 98.8617 37.0942 98.9405 36.8776C99.1247 36.3673 99.2608 36.0043 99.4571 35.4436C99.513 35.2837 99.3761 35.2161 99.3261 35.1967C99.054 35.0905 98.4112 34.9162 97.9261 34.8428C97.4725 34.7734 96.9424 34.7374 96.351 34.7374C95.4695 34.7374 94.6835 34.8882 94.0114 35.1873C93.3407 35.4859 92.7718 35.8984 92.321 36.4114C91.8701 36.9253 91.5268 37.5392 91.2998 38.2355C91.0724 38.9281 90.9575 39.6884 90.9575 40.4946C90.9575 42.2353 91.4273 43.6418 92.3538 44.6723C93.2835 45.7064 94.6781 46.2315 96.4983 46.2315C97.5734 46.2315 98.6765 46.014 99.4711 45.7014C99.4711 45.7014 99.6225 45.6284 99.5567 45.4519L99.0405 44.0282ZM102.713 39.3371C102.814 38.6611 102.999 38.0994 103.288 37.6608C103.723 36.9965 104.386 36.6303 105.319 36.6303C106.252 36.6303 106.867 36.9969 107.31 37.6612C107.603 38.1003 107.731 38.6854 107.781 39.338L102.713 39.3371ZM109.78 37.8522C109.601 37.1793 109.161 36.4997 108.871 36.1889C108.414 35.6962 107.966 35.3512 107.522 35.1607C106.878 34.8873 106.186 34.7468 105.487 34.7477C104.6 34.7477 103.794 34.8977 103.141 35.204C102.486 35.5111 101.936 35.9309 101.505 36.4524C101.073 36.9735 100.749 37.5937 100.543 38.2972C100.335 38.9966 100.231 39.7591 100.231 40.5644C100.231 41.3832 100.34 42.1466 100.553 42.8329C100.769 43.5252 101.115 44.1327 101.583 44.6385C102.05 45.1461 102.651 45.5442 103.37 45.8217C104.084 46.0986 104.953 46.2423 105.949 46.2392C108.002 46.2324 109.082 45.7748 109.527 45.5285C109.606 45.4843 109.681 45.4082 109.588 45.1889L109.123 43.8882C109.052 43.6941 108.855 43.7643 108.855 43.7643C108.346 43.9544 107.625 44.2935 105.938 44.2899C104.837 44.2881 104.02 43.9625 103.507 43.454C102.983 42.9338 102.725 42.17 102.681 41.0909L109.786 41.0963C109.786 41.0963 109.973 41.0945 109.992 40.9116C110 40.836 110.236 39.4524 109.78 37.8522ZM45.8062 39.3371C45.9067 38.6611 46.0923 38.0994 46.3805 37.6608C46.8166 36.9965 47.4787 36.6303 48.4124 36.6303C49.3457 36.6303 49.9606 36.9969 50.4038 37.6612C50.6961 38.1003 50.8241 38.6854 50.8741 39.338L45.8062 39.3371ZM52.8731 37.8522C52.6947 37.1793 52.2537 36.4997 51.9645 36.1889C51.5074 35.6962 51.0601 35.3512 50.6151 35.1607C49.9716 34.8874 49.2795 34.747 48.5805 34.7477C47.6936 34.7477 46.8877 34.8977 46.2342 35.204C45.5797 35.5111 45.0297 35.9309 44.5977 36.4524C44.1667 36.9735 43.8428 37.5937 43.6352 38.2972C43.4284 38.9966 43.3244 39.7591 43.3244 40.5644C43.3244 41.3832 43.432 42.1466 43.6469 42.8329C43.8622 43.5252 44.209 44.1327 44.6757 44.6385C45.1432 45.1461 45.7441 45.5442 46.4625 45.8217C47.1778 46.0986 48.0453 46.2423 49.0421 46.2392C51.0948 46.2324 52.1749 45.7748 52.6208 45.5285C52.6992 45.4843 52.774 45.4082 52.6807 45.1889L52.2163 43.8882C52.1447 43.6941 51.9483 43.7643 51.9483 43.7643C51.4393 43.9544 50.7182 44.2935 49.0313 44.2899C47.93 44.2881 47.1134 43.9625 46.6004 43.454C46.0761 42.9338 45.818 42.17 45.7743 41.0909L52.8789 41.0963C52.8789 41.0963 53.0663 41.0945 53.0857 40.9116C53.0933 40.836 53.3294 39.4524 52.8731 37.8522ZM30.4479 43.9895C30.1691 43.767 30.1303 43.7125 30.038 43.568C29.897 43.3504 29.8249 43.0406 29.8249 42.6438C29.8249 42.02 30.0321 41.5705 30.4591 41.2688C30.4546 41.2697 31.0717 40.7364 32.5199 40.7553C33.1659 40.7668 33.8104 40.8217 34.4491 40.9197V44.1489H34.45C34.45 44.1489 33.5469 44.3431 32.5302 44.4043C31.0852 44.4912 30.4434 43.9882 30.4479 43.9895ZM33.2752 38.9966C32.987 38.9754 32.6136 38.9651 32.1658 38.9651C31.5573 38.9651 30.9686 39.0407 30.4159 39.1894C29.861 39.3389 29.3619 39.5704 28.9326 39.8771C28.5036 40.1835 28.1509 40.5845 27.9016 41.049C27.6498 41.5178 27.5214 42.0686 27.5214 42.6861C27.5214 43.3162 27.6309 43.8621 27.8471 44.3079C28.0586 44.75 28.3771 45.1324 28.7736 45.4204C29.1687 45.7077 29.656 45.9185 30.2213 46.0473C30.7794 46.1748 31.4118 46.2392 32.1028 46.2392C32.8325 46.2392 33.5581 46.1779 34.2612 46.0595C34.8602 45.9563 35.4568 45.8403 36.0508 45.7118C36.2877 45.6573 36.549 45.5857 36.549 45.5857C36.7246 45.5411 36.7111 45.3533 36.7111 45.3533L36.7071 38.8561C36.7071 37.4311 36.3269 36.3754 35.5778 35.7196C34.8324 35.067 33.7347 34.7374 32.3145 34.7374C31.7812 34.7374 30.9244 34.8094 30.41 34.9126C30.41 34.9126 28.8588 35.2134 28.22 35.7138C28.22 35.7138 28.0795 35.8003 28.1561 35.9962L28.6592 37.3473C28.7218 37.5225 28.8925 37.4626 28.8925 37.4626C28.8925 37.4626 28.9461 37.4414 29.0092 37.4041C30.3758 36.6609 32.105 36.683 32.105 36.683C32.8726 36.683 33.464 36.8384 33.8613 37.1424C34.2491 37.4401 34.4459 37.8882 34.4459 38.8354V39.1358C33.8365 39.0475 33.2752 38.9966 33.2752 38.9966ZM90.5859 35.3364C90.5961 35.3126 90.6015 35.287 90.6016 35.2612C90.6018 35.2353 90.5967 35.2097 90.5868 35.1858C90.5768 35.162 90.5622 35.1403 90.5437 35.1222C90.5252 35.1042 90.5032 35.09 90.4791 35.0806C90.358 35.0346 89.7539 34.9072 89.2882 34.8783C88.395 34.8225 87.9 34.9729 87.4558 35.1729C87.0153 35.3715 86.5275 35.6926 86.2554 36.0588L86.2545 35.1922C86.2545 35.0733 86.1703 34.9774 86.0505 34.9774H84.229C84.1109 34.9774 84.0254 35.0733 84.0254 35.1922V45.7906C84.0255 45.8478 84.0482 45.9026 84.0887 45.943C84.1291 45.9834 84.1839 46.0062 84.2411 46.0063H86.1081C86.1653 46.0062 86.2201 45.9834 86.2604 45.943C86.3008 45.9025 86.3235 45.8477 86.3235 45.7906V40.4964C86.3235 39.7852 86.4018 39.0768 86.5581 38.6313C86.7122 38.1904 86.9216 37.8391 87.1811 37.5865C87.4269 37.3426 87.7279 37.1615 88.0585 37.0586C88.3684 36.9697 88.6892 36.9245 89.0116 36.9244C89.3832 36.9244 89.7922 37.0199 89.7922 37.0199C89.9292 37.0352 90.0053 36.9514 90.0517 36.828C90.1737 36.5033 90.5197 35.53 90.5859 35.3364Z" fill="#FFFFFE"/>
<path fill-rule="evenodd" clip-rule="evenodd" d="M73.0589 30.4253C72.8284 30.3557 72.5939 30.3 72.3567 30.2587C72.0376 30.2054 71.7145 30.1804 71.391 30.1839C70.1059 30.1839 69.0929 30.5469 68.3817 31.2639C67.6754 31.9755 67.1948 33.0596 66.9538 34.4859L66.8669 34.9674H65.2539C65.2539 34.9674 65.057 34.9593 65.0156 35.1741L64.7507 36.6514C64.7323 36.7928 64.7931 36.8811 64.9823 36.8802H66.5525L64.9593 45.772C64.8345 46.4881 64.6917 47.0772 64.5336 47.5235C64.3778 47.964 64.2255 48.2941 64.0381 48.5337C63.8566 48.7657 63.6846 48.9364 63.3877 49.0359C63.1427 49.1183 62.8607 49.1562 62.5517 49.1562C62.3797 49.1562 62.1508 49.1273 61.9819 49.0936C61.813 49.0602 61.7252 49.0224 61.5986 48.9693C61.5986 48.9693 61.4144 48.899 61.3419 49.0836C61.2829 49.2345 60.8644 50.3852 60.8149 50.5276C60.7644 50.6681 60.8351 50.7789 60.9243 50.8109C61.1333 50.8856 61.2887 50.9334 61.5734 51.0005C61.9689 51.0937 62.3022 51.0996 62.6143 51.0996C63.2684 51.0996 63.8643 51.0077 64.3584 50.8293C64.8557 50.6496 65.2885 50.3366 65.6714 49.9128C66.0854 49.4557 66.3457 48.9769 66.5948 48.3239C66.8412 47.6767 67.0511 46.8732 67.2191 45.9368L68.8199 36.8802H71.1604C71.1604 36.8802 71.3577 36.8874 71.3987 36.6734L71.6635 35.1962C71.682 35.0548 71.6216 34.9665 71.4315 34.9674H69.16C69.1713 34.9161 69.2744 34.1171 69.5352 33.3649C69.6465 33.0438 69.8559 32.7849 70.0334 32.607C70.1991 32.4375 70.4032 32.3105 70.6284 32.2367C70.8753 32.1604 71.1326 32.1233 71.391 32.1269C71.6049 32.1269 71.8149 32.1525 71.9748 32.1859C72.195 32.2327 72.2806 32.2575 72.3383 32.2746C72.5698 32.3453 72.6009 32.2768 72.6463 32.1647L73.1896 30.673C73.2454 30.5127 73.1094 30.4451 73.0589 30.4253ZM41.3152 45.7909C41.3152 45.9098 41.2306 46.0067 41.1116 46.0067H39.2275C39.1081 46.0067 39.0234 45.9098 39.0234 45.7909V30.6275C39.0234 30.5091 39.1081 30.4132 39.2275 30.4132H41.1116C41.2306 30.4132 41.3152 30.5091 41.3152 30.6275V45.7909Z" fill="#FFFFFE"/>
</g>
<defs>
<clipPath id="clip0_291_519">
<rect width="123" height="86" fill="white"/>
</clipPath>
</defs>
</svg>
