<svg width="135" height="21" viewBox="0 0 135 21" fill="none" xmlns="http://www.w3.org/2000/svg">
<g clip-path="url(#clip0_291_18487)">
<path d="M5.18577 5.62811C5.08557 5.22966 5.11062 4.83121 5.16072 4.60708C5.28598 3.98451 5.71187 3.31212 6.93942 3.31212C8.09181 3.31212 8.74316 4.00941 8.74316 5.08024C8.74316 5.42889 8.74316 6.2756 8.74316 6.2756H13.6033V4.90592C13.6283 0.672385 9.79535 0 7.03962 0C3.58244 0 0.751561 1.14555 0.225468 4.30825C0.0751561 5.17986 0.0501041 5.95185 0.275572 6.92308C1.12734 10.8827 8.06676 12.0282 9.06884 14.5434C9.26926 15.0166 9.1941 15.6143 9.11894 15.9878C8.96863 16.6353 8.51769 17.3077 7.21499 17.3077C5.98744 17.3077 5.26093 16.6104 5.26093 15.5396V13.6718H0V15.166C0 19.4992 3.43213 20.7941 7.08973 20.7941C10.6221 20.7941 13.5031 19.5988 13.979 16.3614C14.2045 14.6929 14.0291 13.5971 13.954 13.1987C13.1523 9.08965 5.73692 7.8943 5.18577 5.62811ZM68.6426 5.65302C68.5674 5.27947 68.5925 4.85612 68.6175 4.65689C68.7679 4.03431 69.1687 3.36193 70.3962 3.36193C71.5236 3.36193 72.1749 4.05921 72.1749 5.10515C72.1749 5.45379 72.1749 6.3005 72.1749 6.3005H76.9849V4.95573C76.9849 0.771998 73.2271 0.124516 70.4964 0.124516C67.0643 0.124516 64.2585 1.24516 63.7324 4.38296C63.6071 5.22966 63.557 6.00166 63.7825 6.97288C64.6092 10.8827 71.4735 12.0282 72.4756 14.5185C72.6509 14.9917 72.6008 15.5894 72.5006 15.938C72.3503 16.5855 71.9244 17.233 70.6217 17.233C69.4192 17.233 68.6677 16.5357 68.6677 15.4898V13.622H63.4819V15.0913C63.4819 19.3747 66.8639 20.6696 70.4964 20.6696C73.9787 20.6696 76.8597 19.4743 77.3106 16.2867C77.5361 14.6182 77.3607 13.5473 77.2856 13.1489C76.5089 9.11456 69.1937 7.9192 68.6426 5.65302ZM112.935 16.2369L108.35 0.622579H101.11V19.8229H105.895L105.619 3.71057L110.555 19.8229H117.494V0.622579H112.684L112.935 16.2369ZM20.8934 0.622579L17.2609 20.0221H22.5218L25.2525 2.06696L27.908 20.0221H33.1439L29.5614 0.622579H20.8934ZM50.3546 0.622579L47.8995 15.7886L45.4444 0.622579H37.4779L37.052 20.0221H41.9371L42.0624 2.06696L45.4194 20.0221H50.3546L53.7116 2.06696L53.8368 20.0221H58.722L58.2961 0.622579H50.3546ZM95.6988 0.622579H90.7636V14.9668C90.7636 15.2158 90.7636 15.4898 90.7135 15.7139C90.6132 16.1871 90.2124 17.1334 88.8345 17.1334C87.4817 17.1334 87.0809 16.212 86.9807 15.7139C86.9306 15.5147 86.9306 15.2158 86.9306 14.9668V0.622579H81.9953V14.5185C81.9953 14.8672 82.0204 15.6143 82.0454 15.7886C82.3962 19.3996 85.2521 20.5949 88.8345 20.5949C92.417 20.5949 95.298 19.4245 95.6487 15.7886C95.6738 15.5894 95.7239 14.8672 95.6988 14.5185V0.622579ZM129.569 9.11456V11.9535H131.573V14.7676C131.573 15.0166 131.573 15.2905 131.523 15.5147C131.448 16.0376 130.947 16.9341 129.519 16.9341C128.116 16.9341 127.615 16.0376 127.54 15.5147C127.515 15.2905 127.49 15.0166 127.49 14.7676V5.90205C127.49 5.57831 127.515 5.25457 127.59 4.98063C127.69 4.50747 128.116 3.58605 129.519 3.58605C131.022 3.58605 131.373 4.55728 131.473 4.98063C131.523 5.25457 131.523 5.72773 131.523 5.72773V6.79856H136.433V6.15108C136.433 6.15108 136.458 5.47869 136.408 4.85612C136.033 1.24516 133.001 0.0996126 129.544 0.0996126C126.087 0.0996126 123.131 1.27006 122.705 4.88102C122.655 5.20476 122.605 5.80244 122.605 6.17598V14.3193C122.605 14.668 122.605 14.9419 122.68 15.5894C123.006 19.1256 126.087 20.3708 129.544 20.3708C133.026 20.3708 136.083 19.1256 136.408 15.5894C136.458 14.9419 136.484 14.668 136.484 14.3193V9.11456H129.569Z" fill="white"/>
</g>
<defs>
<clipPath id="clip0_291_18487">
<rect width="135" height="21" fill="white"/>
</clipPath>
</defs>
</svg>
