<svg width="122" height="22" viewBox="0 0 122 22" fill="none" xmlns="http://www.w3.org/2000/svg">
<g clip-path="url(#clip0_291_543)">
<path d="M43.0575 22.198C38.6752 22.198 34.6143 20.8359 31.907 18.2957C30.9389 17.388 30.1675 16.2751 29.6444 15.0314C29.1213 13.7878 28.8584 12.442 28.8734 11.0839C28.8704 9.73138 29.1388 8.39321 29.6612 7.15547C30.1837 5.91773 30.9487 4.80786 31.907 3.89727C34.4209 1.5135 38.8685 0 43.0575 0C47.6913 0 51.4017 1.21837 54.2371 3.90231C55.1916 4.81259 55.9515 5.92267 56.4671 7.16012C56.9827 8.39757 57.2425 9.73457 57.2296 11.0839C57.2231 12.4345 56.9546 13.7698 56.4403 15.0093C55.926 16.2487 55.1765 17.3667 54.2371 18.2957C51.5951 20.851 47.4472 22.198 43.0575 22.198V19.277C45.3805 19.277 47.5366 18.4395 49.0425 16.8756C50.5484 15.3116 51.2325 13.4147 51.2325 11.0738C51.2325 8.83886 50.4807 6.75022 49.0425 5.27203C47.5559 3.74592 45.349 2.88575 43.0575 2.88575C40.766 2.88575 38.5495 3.73835 37.0629 5.27203C35.6295 6.75274 34.8874 8.84895 34.8874 11.0738C34.8659 12.1427 35.047 13.2056 35.4204 14.2012C35.7937 15.1969 36.3519 16.1057 37.0629 16.8756C38.5495 18.4219 40.7515 19.277 43.0575 19.277V22.198ZM11.0587 0C8.71643 0 6.05509 0.459096 3.8071 1.5135C1.70897 2.49223 1.48942e-05 4.06376 1.48942e-05 6.6695C-0.00313729 8.03406 0.494159 9.34816 1.3899 10.3423C1.99662 10.9275 2.97558 11.9214 5.53298 12.5066C6.67631 12.7588 9.1201 13.165 11.5542 13.4323C13.9883 13.6997 16.3475 13.9368 17.3144 14.2067C18.0831 14.4111 19.3763 14.6885 19.3763 16.202C19.3763 17.7156 18.0154 18.1696 17.7785 18.268C17.5416 18.3664 15.9076 19.1483 12.9731 19.1483C11.0288 19.092 9.10223 18.7463 7.2516 18.1217C6.15661 17.713 5.00845 17.1757 3.93763 15.8111C3.50548 15.1684 3.26573 14.4064 3.24873 13.6215H0.589811V21.3908H3.54362V20.339C3.54316 20.2609 3.56263 20.1842 3.60004 20.1166C3.63744 20.0491 3.69143 19.9931 3.75643 19.9546C3.82144 19.9161 3.89512 19.8963 3.96988 19.8973C4.04464 19.8984 4.11778 19.9202 4.18176 19.9606C5.5734 20.5925 7.02095 21.0808 8.50371 21.4186C10.0556 21.7566 11.0587 22.0013 12.9876 22.0013C15.023 22.0417 17.0516 21.7428 18.9968 21.1159C20.2884 20.7464 21.5003 20.1222 22.567 19.277C23.1669 18.7961 23.6518 18.1765 23.9836 17.467C24.3153 16.7575 24.4849 15.9774 24.479 15.188C24.489 13.6882 23.9344 12.2443 22.9344 11.1671C22.3783 10.604 21.7341 10.1441 21.0296 9.8075C20.2723 9.45041 19.486 9.16424 18.6801 8.95237C17.1476 8.56138 13.7055 8.07201 12.0594 7.90048C10.3335 7.71382 7.33862 7.454 6.14211 7.06806C5.77953 6.9495 5.03987 6.58374 5.03987 5.68825C5.03987 5.05005 5.37828 4.51024 6.04542 4.07384C7.10657 3.38016 9.24821 2.94881 11.4817 2.94881C13.6436 2.92157 15.7877 3.35861 17.7809 4.23276C18.3164 4.47621 18.82 4.78985 19.2796 5.16609C20.0287 5.83381 20.5475 6.73936 20.7565 7.74409H23.1423V0.981254H20.4833V1.76575C20.4833 2.018 20.2416 2.35097 19.7582 2.07602C18.5592 1.42522 15.1897 0.0176575 11.0587 0ZM69.4316 1.24107L82.4264 13.4777L82.2935 5.23924C82.279 4.15709 82.0904 3.70556 80.9688 3.70556H78.5275V1.24107H89.6466V3.70556H87.2608C86.1199 3.70556 86.0522 4.08898 86.0329 5.23924L86.2335 20.9822H82.4264L67.4567 7.04283V16.9336C67.4688 18.0107 67.5171 18.5177 68.5783 18.5177H71.2372V20.9822H60.3381V18.5177H62.8906C63.843 18.5177 63.8043 17.5692 63.8043 16.8781V5.33257C63.8043 4.57582 63.7028 3.70808 62.209 3.70808H60.1399V1.24107H69.4316ZM102.332 18.5127C102.552 18.5127 102.771 18.4984 102.99 18.4698C103.103 18.4343 103.207 18.3735 103.296 18.2916C103.384 18.2097 103.455 18.1087 103.502 17.9955C103.535 17.8203 103.552 17.642 103.553 17.4633V13.566C103.553 13.4349 103.553 13.4323 103.393 13.2255C103.234 13.0186 96.5863 5.15348 96.2842 4.80033C95.9071 4.3715 95.2448 3.70808 94.2368 3.70808H91.9284V1.24107H104.957V3.70304H103.386C103.023 3.70304 102.782 4.06376 103.091 4.45979C103.091 4.45979 107.476 9.93362 107.517 9.99164C107.558 10.0497 107.594 10.0623 107.65 10.0093C107.705 9.95633 112.143 4.51024 112.177 4.45979C112.23 4.38794 112.261 4.30189 112.268 4.21186C112.275 4.12183 112.257 4.03161 112.217 3.95191C112.176 3.87221 112.114 3.80639 112.039 3.76227C111.963 3.71816 111.877 3.6976 111.791 3.70304H110.178V1.24107H120.86V3.70808H118.474C117.609 3.70808 117.265 3.87457 116.606 4.64141L109.414 13.2028C109.344 13.3088 109.313 13.4379 109.327 13.566V17.4608C109.329 17.6396 109.346 17.8178 109.381 17.993C109.427 18.1063 109.497 18.2074 109.585 18.2894C109.673 18.3714 109.777 18.4321 109.891 18.4673C110.107 18.4971 110.325 18.5114 110.543 18.5101H112.982V20.9771H100.021V18.5101L102.332 18.5127Z" fill="white"/>
</g>
<defs>
<clipPath id="clip0_291_543">
<rect width="122" height="22" fill="white"/>
</clipPath>
</defs>
</svg>
