<svg width="89" height="89" viewBox="0 0 89 89" fill="none" xmlns="http://www.w3.org/2000/svg">
<g clip-path="url(#clip0_291_515)">
<path d="M70.4254 39.5254C56.2974 31.1352 32.9935 30.3638 19.5066 34.4571C17.3407 35.1145 15.0503 33.8913 14.3942 31.7261C13.7378 29.5588 14.9591 27.2701 17.1266 26.6117C32.6087 21.9123 58.3454 22.8199 74.6098 32.4746C76.5578 33.6312 77.1968 36.1471 76.0422 38.0918C74.8866 40.0398 72.3687 40.6819 70.4254 39.5254ZM69.9627 51.9525C68.9715 53.5609 66.8685 54.0654 65.2623 53.0778C53.4837 45.8376 35.5233 43.7402 21.5884 47.9701C19.7813 48.5162 17.8726 47.4973 17.3237 45.6937C16.7792 43.8866 17.7986 41.9814 19.6024 41.4319C35.521 36.6014 55.3103 38.9411 68.8385 47.2546C70.4448 48.2439 70.9503 50.3478 69.9627 51.9525ZM64.5997 63.8871C63.812 65.1788 62.1304 65.5834 60.8434 64.7961C50.5511 58.5057 37.5965 57.0852 22.3401 60.5698C20.8699 60.9069 19.4047 59.9857 19.0694 58.5156C18.7327 57.046 19.6505 55.5805 21.1239 55.2451C37.8194 51.4283 52.1408 53.071 63.6932 60.1302C64.9812 60.9169 65.3869 62.5995 64.5997 63.8871ZM44.4991 0.670076C20.2932 0.670076 0.669922 20.293 0.669922 44.4985C0.669922 68.7068 20.2932 88.3281 44.4991 88.3281C68.7056 88.3281 88.328 68.7068 88.328 44.4985C88.328 20.293 68.7056 0.670076 44.4991 0.670076Z" fill="#1ED760"/>
</g>
<defs>
<clipPath id="clip0_291_515">
<rect width="89" height="89" fill="white"/>
</clipPath>
</defs>
</svg>
