<svg width="89" height="88" viewBox="0 0 89 88" fill="none" xmlns="http://www.w3.org/2000/svg">
<g clip-path="url(#clip0_291_18500)">
<path d="M44.5609 87.6777L56.9917 18.5412C68.8272 18.5412 72.574 19.8234 73.0992 25.0563C73.0992 25.0563 81.0479 22.1107 85.0398 16.1847C69.4225 9.01111 53.7002 8.69922 53.7002 8.69922L44.5259 19.7541H44.5609L35.4216 8.69922C35.4216 8.69922 19.6993 9.01111 4.08203 16.1847C8.07389 22.1453 16.0226 25.0563 16.0226 25.0563C16.5478 19.8234 20.2946 18.5412 32.0601 18.5065L44.5609 87.6777Z" fill="#E82127"/>
<path d="M44.5609 5.51263C57.2017 5.40867 71.6635 7.45331 86.4754 13.8298C88.4713 10.295 88.9615 8.73554 88.9615 8.73554C72.784 2.39369 57.6219 0.245091 44.5609 0.175781C31.5348 0.245091 16.3727 2.39369 0.160156 8.73554C0.160156 8.73554 0.8955 10.6416 2.64632 13.8298C17.4582 7.41865 31.92 5.40867 44.5609 5.51263Z" fill="#E82127"/>
</g>
<defs>
<clipPath id="clip0_291_18500">
<rect width="89" height="88" fill="white"/>
</clipPath>
</defs>
</svg>
