<svg width="107" height="35" viewBox="0 0 107 35" fill="none" xmlns="http://www.w3.org/2000/svg">
<g clip-path="url(#clip0_291_18482)">
<path d="M40.9391 30.6399C36.9722 28.0696 31.5886 27.6186 22.9063 30.0414C13.6503 32.2291 10.5642 33.6315 6.51134 30.8163C4.95431 29.4333 4.39607 27.2066 4.81292 23.9992C5.77973 18.7705 8.39246 13.7387 13.0334 8.15722C15.6238 5.25377 18.0268 2.76207 21.1996 1.7615C23.6314 1.13382 23.404 3.05601 23.1098 3.33091C22.7993 3.33091 22.2777 3.3801 21.8746 3.64468C21.5474 3.89989 20.6494 4.72393 20.6011 5.83239C20.5316 7.52927 22.2774 7.17609 23.0305 6.24442C23.8422 5.19452 25.0418 3.18401 24.0982 1.31021C23.7027 0.643251 23.0193 0.182307 22.1708 0.0253528C19.2654 -0.141654 16.5597 1.25137 14.0624 2.79142C8.60102 6.60725 4.23229 11.8946 1.76029 17.6822C0.335184 21.1742 -0.953725 26.1764 0.978173 30.2477C2.47284 33.0726 5.57557 34.5731 9.27746 34.2594C11.8738 33.985 15.0133 33.141 17.1248 32.6314C19.2365 32.1208 30.0451 28.384 33.5965 34.888C33.5965 34.888 34.7775 32.5822 37.7289 32.533C40.1553 32.3078 43.6558 33.2395 46.2048 35.1225C45.3556 33.838 42.9478 31.9447 40.9391 30.6399Z" fill="#E61A27"/>
<path d="M24.0075 8.81234C21.9859 7.4783 17.9227 10.0287 14.6683 14.4035C11.6923 18.3276 10.4073 22.8884 11.8059 24.9974C13.8861 27.479 17.7481 23.8694 19.3905 21.9373L19.6023 21.7114C20.7192 20.5048 21.582 19.053 22.4172 17.6598C22.4172 17.6598 23.1848 16.3846 23.2215 16.3256C23.6959 16.2377 24.2673 16.1003 24.9112 15.9139C24.902 15.9431 22.4476 20.0925 22.698 22.1521C22.776 22.7805 22.7165 25.0758 24.9445 25.7721C27.9142 26.2727 30.2854 23.9574 32.3774 21.8974C32.3774 21.8974 32.7338 21.5545 32.9355 21.3586C32.8844 21.564 32.8179 21.8381 32.8179 21.8381C31.9485 24.879 33.1204 25.5172 33.8535 25.7525C36.069 26.4005 38.7157 23.1631 38.7244 23.1631C38.6556 24.1829 38.455 25.0263 39.5238 25.7034C40.5324 26.0666 41.5534 25.5128 42.3295 24.9928C45.1247 23.0115 47.3765 19.9103 49.1953 17.2297H48.0351C48.0214 17.2297 45.1724 21.3832 43.3223 22.2859C43.3194 22.2859 42.9826 22.4597 42.7887 22.3222C42.5484 22.1162 42.6432 21.6877 42.7915 21.3842C42.8008 21.3645 49.9349 8.91957 49.9349 8.91957H46.5665C46.5665 8.91957 46.1986 9.5183 46.1686 9.55757C46.146 9.538 46.092 9.43507 46.0547 9.38574C43.9678 6.48229 39.2419 10.9483 35.684 16.1274C34.3142 18.1189 32.5702 20.3611 30.7618 21.9796C30.7618 21.9796 28.0827 24.4496 26.9381 22.675C26.5197 21.9294 26.6484 20.8392 26.8844 20.1234C28.2172 16.3074 30.5137 12.8444 33.1271 10.7549C33.8647 10.1765 34.6667 10.0093 35.0644 10.2546C35.4437 10.4805 35.5049 11.0392 35.265 11.4219C34.6564 11.4023 34.1687 11.5883 33.7723 12.0004C32.9914 12.8244 32.7201 13.6191 32.9684 14.3647C34.1745 16.0911 36.58 12.6774 36.4637 10.5978C36.4221 9.85218 36.0267 9.14609 35.4364 8.80242C34.5567 8.27299 33.2148 8.4101 32.3463 8.83218C31.1836 9.27342 29.3434 10.8133 28.2692 12.0103C26.9168 13.5113 24.5974 15.1787 23.8722 14.992C24.1093 14.3543 26.0683 10.3228 24.0075 8.81234ZM40.2469 14.7763C40.9021 13.8642 42.8092 11.4216 43.2742 11.0097C44.8379 9.62607 45.4629 10.2348 45.517 10.6662C44.0576 13.295 42.3352 16.3066 40.7158 19.0141C40.7192 19.0045 40.209 19.789 40.209 19.789C39.4938 20.8872 38.7737 21.8291 37.599 22.4861C37.4314 22.5356 37.1553 22.5553 36.9716 22.4174C36.7503 22.2702 36.6631 22.0249 36.688 21.7698C36.7585 20.9265 37.6121 18.3471 40.2469 14.7763ZM21.9227 16.3555C21.9227 16.3555 21.8933 16.4441 21.8789 16.4731C21.8751 16.4731 20.4102 18.876 20.4102 18.876C19.5261 20.0632 18.4223 21.5546 17.0425 22.2703C16.6335 22.4076 16.0681 22.4962 15.78 22.1335C15.1693 21.3976 15.484 20.3774 15.7398 19.5536L15.8304 19.2593C16.5636 17.2584 17.7268 15.4923 18.8593 13.8542C18.8734 13.8445 18.9051 13.8347 18.9166 13.8347C18.9194 13.8445 18.9239 13.8445 18.9258 13.8642C19.6363 15.2373 20.9687 15.8746 21.9651 16.1694C21.9711 16.1694 21.9776 16.1791 21.9776 16.1988C21.9777 16.2281 21.9615 16.2676 21.9227 16.3555ZM23.3105 13.521C23.304 13.5405 22.658 15.0315 22.658 15.0315C22.5646 15.1099 22.417 15.0708 22.2477 15.0315L21.9578 14.9822C21.0472 14.6979 20.3603 14.0897 20.1486 13.3639C19.8566 11.9513 21.0564 10.8428 21.5849 10.4409C22.0921 10.0874 22.8806 9.9011 23.3385 10.2642C23.6209 10.5978 23.7279 11.0293 23.7279 11.5004C23.728 12.1377 23.5324 12.8537 23.3105 13.521ZM65.893 18.0721C65.5681 17.366 64.7972 16.9147 63.9755 16.9636C61.3072 17.2091 58.6972 19.4161 57.3268 22.5842C56.6077 24.2128 56.2152 25.5565 55.9579 27.6948C56.7877 26.7338 58.4802 25.1546 60.4007 24.2913C60.4007 24.2913 60.6621 22.2412 61.9947 20.4166C62.4989 19.6611 63.508 18.4449 64.6411 18.7684C65.6312 19.102 65.2832 21.8586 63.9673 24.5261C62.9937 26.4883 61.5039 28.4507 59.9964 29.804C58.6637 30.9418 56.6918 32.3151 54.9666 31.2559C53.88 30.6087 53.3257 29.2546 53.4427 27.5087C53.9619 22.5552 56.2039 18.3371 59.4122 13.5306C62.7203 9.06741 66.3669 4.48652 71.2793 2.0436C72.2813 1.5336 73.2092 1.41592 74.0113 1.72983C74.0113 1.72983 69.3999 4.28024 67.2017 8.99865C66.6426 10.1956 65.8649 11.8136 66.648 13.2459C67.0573 13.9913 67.7838 14.0503 68.369 14.011C71.0634 13.383 72.8042 10.8523 74.2265 8.53757C75.0511 6.78172 75.7841 5.03565 75.7841 3.09336C75.7841 2.858 75.7719 2.54422 75.7522 2.30859C77.0394 1.6222 79.6792 2.83829 79.6792 2.83829C81.7419 3.52522 86.1341 6.90959 87.6157 7.55671C88.3384 6.71323 89.526 5.43816 90.1949 4.80042L89.2267 4.20196C87.6769 3.25045 86.0387 2.34786 84.4264 1.45533C80.7645 -0.555323 77.7837 0.15077 76.2667 0.700177C75.6705 0.915839 75.1258 1.10228 75.1258 1.10228C74 -0.133651 72.1535 -0.0162367 70.793 0.317509C65.9004 1.72996 61.3579 5.17291 56.4879 11.147C52.9074 15.8261 50.6865 19.8676 49.5027 23.8598C48.5903 26.5475 48.3129 30.5006 50.54 32.8451C52.4335 34.8359 54.9443 34.4046 56.7172 33.6889C60.5588 31.7858 64.0115 27.6853 65.7319 22.9669C66.1471 21.5644 66.6078 19.5829 65.893 18.0721ZM74.7265 3.28972C74.218 9.15574 69.6845 12.5991 68.5627 12.8733C67.883 13.0104 66.7231 12.7066 67.7586 10.2448C69.2834 6.92889 71.887 4.1139 74.6801 2.67182C74.7482 2.91711 74.7464 3.07366 74.7265 3.28972ZM101.618 4.03495C99.1799 5.42811 96.6519 6.33029 93.592 6.01652C92.744 6.97808 91.9182 7.96873 91.1572 8.98873C95.452 10.0874 100.005 7.6449 102.545 5.32034C105.231 2.97581 106.608 0.0234375 106.608 0.0234375C106.608 0.0234375 104.595 2.33821 101.618 4.03495ZM55.5331 8.91984H52.3343L50.5299 11.8686H53.728L55.5331 8.91984Z" fill="#E61A27"/>
<path d="M93.5821 30.9124C93.2381 31.1478 92.7549 30.9668 92.9355 30.4275C93.3856 29.0542 95.1748 26.2555 95.1748 26.2555L100.158 17.3656H96.7448C96.5825 17.6336 96.2356 18.2491 96.2356 18.2491C96.0777 17.9845 95.6054 17.3963 95.411 17.2691C94.577 16.739 93.3535 16.9896 92.5095 17.4701C88.8396 19.6285 86.1619 23.8928 84.0501 27.2183C84.0501 27.2183 81.8272 30.915 80.5933 31.1899C79.63 31.2684 79.7294 29.9632 79.7711 29.6591C80.1436 27.4614 81.0086 25.3723 81.88 23.479C83.6526 22.2431 85.6754 20.6246 87.5137 18.8492C91.5033 15.0134 94.8667 10.6679 95.3583 9.69679C95.3583 9.69679 94.8262 9.80482 94.1979 9.82426C91.1286 14.1305 84.8477 20.3891 82.9435 21.3208C83.7871 19.28 89.2372 9.5397 93.875 4.8804L94.6049 4.1739C95.7335 3.06544 96.9027 1.92762 97.8139 1.74118C97.9102 1.73139 98.0341 1.74118 98.1411 1.96716C98.1817 2.83021 97.8623 3.46794 97.4958 4.19374L96.9823 5.25328C96.9823 5.25328 97.7097 5.1159 98.1876 4.95854C98.7418 3.90945 99.3559 2.73196 99.1295 1.32956C99.0541 0.878265 98.7292 0.535003 98.3047 0.456459C96.9212 0.191607 95.4135 1.22126 94.2001 2.05536L94.1512 2.08457C87.9143 6.99908 82.6479 14.0815 78.0435 23.7535C77.7098 24.0082 76.4205 24.3126 76.2014 24.1653C76.6561 23.2238 77.2286 21.9581 77.515 20.5848C77.5645 20.1922 77.6106 19.7904 77.6106 19.3981C77.6106 18.5538 77.4092 17.7595 76.6573 17.2105C75.7756 16.769 74.6859 16.9751 73.9511 17.3083C70.66 18.6817 68.2001 22.0759 66.4249 24.8712C65.4702 26.6472 64.5183 28.5493 64.2547 30.7273C64.0691 32.4339 64.447 33.5327 65.4119 34.0821C66.4039 34.5918 67.6525 34.062 68.1431 33.8072C71.4774 32.0414 73.8072 28.5005 75.6436 25.2633C75.7166 25.2536 76.7193 25.2244 77.4778 25.0279C77.4878 25.0279 77.492 25.0279 77.5088 25.0381C77.4654 25.1847 77.0735 26.3622 77.0735 26.3622C75.9096 29.7951 75.3713 32.13 76.4707 33.513C78.0417 35.465 80.6428 33.4446 82.7585 30.776C82.3044 33.9736 83.952 34.4743 85.2082 34.2292C86.651 33.8371 88.2588 32.2868 89.0049 31.4925C88.7653 32.4242 88.8304 34.0921 90.143 34.2586C91.0425 34.4259 91.7159 33.9337 92.4948 33.5118C95.2892 31.9814 98.6342 26.8817 99.5026 25.4074H98.3639C97.1292 27.2843 95.5582 29.7446 93.5821 30.9124ZM68.4998 30.5709C68.3226 30.3059 68.2638 30.0164 68.2579 29.7033C68.2239 27.7798 70.2815 24.3354 71.7337 22.4589H71.7367C72.3452 23.7992 73.7234 24.6608 74.5553 25.0239C73.5222 27.3391 69.9783 32.2973 68.4998 30.5709ZM75.1386 23.9889C75.0403 24.058 73.3024 23.4691 72.9665 21.8506C72.6816 20.4572 73.6356 19.3684 74.5585 18.8197C74.9547 18.5055 75.5515 18.398 75.9892 18.5543C76.3956 18.8295 76.5056 19.3203 76.5056 19.8491C76.5056 20.1735 76.4629 20.5067 76.4251 20.8107L76.4169 20.8796C76.1258 21.9671 75.6962 23.0122 75.1386 23.9889ZM89.0774 29.953C89.076 29.953 88.7476 30.2472 88.7476 30.2472C88.2788 30.6689 87.7964 31.1201 87.214 30.8943C87.0532 30.8356 86.94 30.62 86.9129 30.4527C86.8863 29.2461 87.4264 28.1281 87.9504 27.0394L88.0848 26.7548C89.5917 24.2241 91.3433 21.2421 93.9158 19.1726C94.3493 18.858 94.8197 18.5937 95.3162 18.7999C95.4304 18.9076 95.5634 19.0941 95.5634 19.2803C95.5634 19.3394 95.5112 19.4962 95.4812 19.5451C94.7626 20.7129 94.0785 21.9388 93.4131 23.1159C92.1127 25.4407 90.7637 27.8436 89.0774 29.953Z" fill="#E61A27"/>
</g>
<defs>
<clipPath id="clip0_291_18482">
<rect width="107" height="35" fill="white"/>
</clipPath>
</defs>
</svg>
