<svg width="199" height="85" viewBox="0 0 199 85" fill="none" xmlns="http://www.w3.org/2000/svg">
<g clip-path="url(#clip0_291_18460)">
<mask id="mask0_291_18460" style="mask-type:luminance" maskUnits="userSpaceOnUse" x="-1" y="0" width="200" height="85">
<path d="M198.996 0H-0.00390625V84.3307H198.996V0Z" fill="white"/>
</mask>
<g mask="url(#mask0_291_18460)">
<path d="M128.201 13.4141H70.7969V70.9124H128.201V13.4141Z" fill="#EB0A1E"/>
<path d="M109.072 29.6693C106.409 28.8114 103.093 28.3047 99.5003 28.3047C95.9081 28.3047 92.5913 28.8116 89.927 29.6693C82.8413 31.951 77.9727 36.6895 77.9727 42.1656C77.9727 49.869 87.6102 56.1153 99.5003 56.1153C111.388 56.1153 121.026 49.869 121.026 42.1656C121.026 36.6898 116.157 31.9528 109.072 29.6693ZM99.5003 50.1171C97.7259 50.1171 96.277 46.623 96.192 42.2323C97.259 42.3284 98.3657 42.3799 99.5003 42.3799C100.635 42.3799 101.74 42.3284 102.808 42.2323C102.722 46.623 101.274 50.1171 99.5003 50.1171ZM96.4155 38.7948C96.8992 35.7129 98.0974 33.5298 99.5003 33.5298C100.903 33.5298 102.1 35.7129 102.583 38.7948C101.597 38.8841 100.565 38.9328 99.5003 38.9328C98.4358 38.9328 97.4032 38.8834 96.4155 38.7948ZM104.468 38.5624C103.749 33.725 101.796 30.2573 99.5003 30.2573C97.2045 30.2573 95.2506 33.725 94.5308 38.5624C90.158 37.8785 87.1015 36.3224 87.1015 34.5096C87.1015 32.0668 92.6529 30.0864 99.5008 30.0864C106.349 30.0864 111.898 32.0668 111.898 34.5096C111.898 36.3224 108.842 37.8785 104.469 38.5624M81.1146 41.6545C81.1146 39.2933 82.0218 37.0798 83.6051 35.176C83.587 35.3081 83.5777 35.4413 83.5774 35.5746C83.5774 38.5452 88.032 41.0704 94.2434 41.9991C94.2385 42.2234 94.2348 42.4482 94.2348 42.6754C94.2348 48.1989 95.7643 52.8774 97.8791 54.4904C88.4835 53.9153 81.1146 48.3894 81.1146 41.6545ZM101.122 54.4911C103.235 52.878 104.765 48.1998 104.765 42.676C104.765 42.4488 104.762 42.224 104.757 41.9997C110.967 41.0713 115.423 38.5461 115.423 35.5752C115.422 35.4418 115.413 35.3087 115.394 35.1766C116.977 37.0804 117.885 39.2936 117.885 41.6552C117.885 48.39 110.515 53.9159 101.123 54.4914" fill="white"/>
</g>
</g>
<defs>
<clipPath id="clip0_291_18460">
<rect width="199" height="85" fill="white"/>
</clipPath>
</defs>
</svg>
