<svg width="126" height="42" viewBox="0 0 126 42" fill="none" xmlns="http://www.w3.org/2000/svg">
<g clip-path="url(#clip0_291_18479)">
<path d="M6.28949 25.2819V0H0V25.5999C0 35.2198 6.94294 41.58 15.9279 41.58C20.3387 41.58 24.1778 39.9104 27.0366 37.0483V40.8645H33.2444V0H26.9549V25.2819C26.9549 31.8011 22.4625 36.1738 16.6631 36.1738C10.782 36.0943 6.28949 31.8806 6.28949 25.2819ZM39.4522 40.944H45.415V37.2073C48.1922 39.9899 52.1129 41.6595 56.3603 41.6595C65.3453 41.6595 72.4516 34.7428 72.4516 26.0769C72.4516 17.4111 65.3453 10.4944 56.3603 10.4944C52.1129 10.4944 48.2738 12.1639 45.4967 14.9465V0H39.4522V40.944ZM45.415 26.0769C45.415 20.2732 50.1525 15.7416 55.9519 15.7416C61.7513 15.7416 66.4889 20.2732 66.4889 26.0769C66.4889 31.8011 61.7513 36.4123 55.9519 36.4123C50.0708 36.4123 45.415 31.8011 45.415 26.0769ZM76.0456 25.9974C76.0456 34.9018 83.1519 41.58 92.3003 41.58C97.8546 41.58 102.429 39.1949 105.533 35.2198L101.122 32.0397C98.8348 34.9813 95.8126 36.4123 92.3003 36.4123C87.1543 36.4123 82.9885 32.7552 82.1717 27.9055H107.085V25.9974C107.085 17.0931 100.632 10.4944 91.8102 10.4944C82.8252 10.4944 76.0456 17.5701 76.0456 25.9974ZM91.6468 15.6621C96.1393 15.6621 99.8966 18.6832 100.959 23.2943H82.2534C83.397 18.6832 87.1543 15.6621 91.6468 15.6621ZM127.26 16.3776V10.8919H125.136C121.787 10.8919 119.337 12.4024 117.785 14.7875V11.1304H111.904V40.944H117.948V23.9304C117.948 19.3192 120.807 16.2981 124.81 16.2981H127.26V16.3776Z" fill="white"/>
</g>
<defs>
<clipPath id="clip0_291_18479">
<rect width="126" height="42" fill="white"/>
</clipPath>
</defs>
</svg>
