<svg width="113" height="37" viewBox="0 0 113 37" fill="none" xmlns="http://www.w3.org/2000/svg">
<g clip-path="url(#clip0_291_18467)">
<path d="M74.0059 0C65.9515 0 58.7198 4.20048 58.7198 11.9086C58.7198 20.7859 71.4943 21.3921 71.4943 25.8091C71.4943 27.6712 69.3292 29.36 65.6916 29.36C60.4952 29.36 56.5979 27.0216 56.5979 27.0216L54.9523 34.8163C54.9523 34.8163 59.4126 36.8083 65.3885 36.8083C74.2225 36.8083 81.151 32.4346 81.151 24.5533C81.151 15.1997 68.3332 14.5934 68.3332 10.4795C68.3332 9.0072 70.1086 7.40496 73.7461 7.40496C77.86 7.40496 81.2377 9.09381 81.2377 9.09381L82.8832 1.55894C82.8399 1.55894 79.1591 0 74.0059 0ZM0.216518 0.56295L0 1.68885C0 1.68885 3.37769 2.2951 6.45224 3.55092C10.3929 4.97994 10.6527 5.80272 11.3456 8.35765L18.5773 36.202H28.2773L43.1304 0.56295H33.4737L23.9036 24.8131L20.0063 4.24378C19.6599 1.90537 17.8411 0.56295 15.5893 0.56295H0.216518ZM47.0278 0.56295L39.4496 36.202H48.6733L56.2081 0.56295H47.0278ZM98.3859 0.56295C96.1774 0.56295 95.0082 1.73215 94.1421 3.81074L80.6314 36.202H90.2881L92.1502 30.789H103.929L105.055 36.202H113.585L106.181 0.56295H98.3859ZM99.6417 10.2197L102.5 23.6006H94.835L99.6417 10.2197Z" fill="#1434CB"/>
</g>
<defs>
<clipPath id="clip0_291_18467">
<rect width="113" height="37" fill="white"/>
</clipPath>
</defs>
</svg>
